<?xml version="1.0" encoding="UTF-8"?><svg width="260px" height="260px" id="Layer_2" xmlns="http://www.w3.org/2000/svg" viewBox="0 0 407.02 409.96"><g id="Layer_1-2"><ellipse cx="224.18" cy="373.36" rx="162.14" ry="36.6" fill="#311e3b" opacity=".2"/><path d="M407.02,122.1c-.44.01-.87.06-1.3.15-3.67-.14-7.23.57-10.83,1.16-3.43.56-6.88.75-9.25-2.62-1.74-4.87-.14-9.63,1.27-14.07,2.19-6.9,9.43-7.31,15.12-.32,2.35,2.89,3.33.79,5,.48v15.22Z" fill="#fe9f88"/><path d="M407.02,106.88c-2.21,1.35-.78,3.89-2.09,6.12-2.11-3.41-4.07-6.58-7.64-8.48-5.13-2.73-8.3-1.7-9.42,4.01-.79,4.01-1.05,8.12-1.54,12.18-.38.09-.76.17-1.14.26-1.21-.32-2.08-1.02-2.51-2.23-.44-4.14.14-8.27.66-12.34,1.08-8.37,5.31-10.98,13.53-8.72,2.88.79,5.68,1.85,8.12,3.67.87.78,1.37,1.83,2.04,2.76v2.77Z" fill="#f48181"/><path d="M407.02,104.11c-.47-.46-.94-.91-1.41-1.37-3.03-5.1-2.41-10.38-.79-15.71.3-.3.6-.59.9-.88.43,0,.87,0,1.3-.02v17.99Z" fill="#fed6ca"/><path d="M389.07,29.31c9.63,12.23,12.35,26.97,15.06,41.68.66,3.59.83,7.28,1.22,10.92-8.88-5.34-18.7-5.35-28.55-4.87-6.68.33-9.39,2.92-10.66,9.48-2.07,10.69-1.81,21.45-.92,32.23-.03.79-.21,1.54-.53,2.26-4.8,5.03-10.79,5.63-17.22,4.64-2.39-1.5-2.91-3.92-3.11-6.48-.2-2.49-.35-4.98-.75-7.46-2.33-14.66-2.71-15.06-17.53-18.02-11.69-.1-23.42-.9-34.96,1.78-4.71,1.09-9.26,2.64-13.37,5.28-3.98,1.74-5.57,5.99-8.84,8.47-5.9,6.95-15.15,9.18-21.63,15.34-.88.84-2.07.93-2.96-.29-.76-11.58.63-22.66,7.46-32.48,4.55-9.31,3.48-14.24-4.35-20.7-2.06-1.69-4.85-2.58-5.98-5.32,1.46-4.65,3.4-9.19,3.27-14.22,4.28-1.08,5.91,2.63,8.18,4.81,5.45,5.22,10.99,10.14,18.7,11.69,15.35,6.81,30.66,3.09,45.96-.18,10.33-1.09,19.99-4.74,29.8-7.84,4.8-1.52,9.47-3.56,14.34-4.73,12.34-2.96,21.11-9.57,24.54-22.26.42-1.54,1.27-2.95,2.81-3.75Z" fill="#fea588"/><path d="M373.9,16.87c1.12.04,2.18.2,2.75,1.36,8.58,13.77-.35,34.13-20.03,37.83-3.72-.14-7.68,1.09-10.88-1.93-1.73-5.76,2.29-7.88,6.41-9.48,10.85-4.2,11.81-5.95,8.1-16.53-1.48-3.28-3.04-4.31-4.83-.18-.36.85-1.01,1.65-1.06,2.52-.61,10.11-4.52,17.87-14.64,21.59-2.29.84-2.15,3.9-3.73,5.55-17.18,4.17-34.47,4.23-51.64.52-10.28-2.22-20.62-4.17-30.89-6.47-7.78-4.55-12.07-11.89-14.96-19.96-1.93-5.39.73-9.88,5.18-13.17,8.12-6.02,17.44-8.99,27.23-11.08,16.16-3.45,32-2.7,47.65,2.39,14.37,4.68,21.82,21.08,16.13,35.14-1.22,3-3.68,4.05-6.56,4.18-15.92.73-31.77.59-47.12-4.53-3.26-1.09-6.39-2.57-9-4.96-3.72-3.4-5.47-7.26-3.5-12.31,1.95-4.98,5.22-8.27,10.79-8.08,10.51.35,21.06.49,31.41,2.7,2.66,1.54,3.76,4.44,6.02,7.13.2-3.47.9-6.42,3.15-9.88-2.62,1.44-4.65,2.09-6.81,2.24-10.31-.58-20.57-1.7-30.86-2.39-7.88-.54-12.38,1.54-14.05,7.04-2.06,6.79.18,12.24,7.25,15.98,10.78,5.71,22.69,7.49,34.61,8.77,5.01.54,9.98,1.94,15.11,1.28,7.01-.9,9.05-2.9,10.13-9.88.89-5.74.74-11.48.3-17.23-.17-2.27-.94-4.57.48-6.73,5.15-1.65,9.47,2.58,15.03,1.54,7.47-1.41,15.13-2.66,22.83-2.94Z" fill="#fead87"/><path d="M373.9,16.87c-4.17,4.22-9.98,3.19-14.91,3.83-7.5.97-15.68,3.7-22.63-2.36-2.07.66-3.62-.52-4.96-1.7-13.19-11.61-29.06-13.16-45.42-11.43-14.41,1.53-28.48,4.79-41.02,12.75-2.35,1.49-4.43,3.26-6.54,5.01-3.76,3.11-4.21,6.73-2.15,11.07,2.18,4.6,4.99,8.78,7.81,12.97.88,1.31,1.74,2.76,1.03,4.49,1.23,5.1,1.35,9.98-2.82,14-2.57,1.95-4.72-.81-7.7-.63,1.54,6.61,5.5,12.09,7.56,18.29.86,2.76,3.33,5.15,1.9,8.42-3.42,1.2-4.76-1.6-6.39-3.51-2.16-2.53-3.65-5.6-6.15-7.88-5.65-9.9-10.59-20.21-19.24-28.16-3.54-3.25-6.64-4.01-11.06-2.39-8.02,2.94-15.31,7.16-22.36,11.86-2.29,1.53-4.46,3.2-7.16,3.95-7.45,2.75-14.81,5.72-22.33,8.26-2.13.72-4.03,2.21-6.46,1.71-2.54-4.09,1-5.83,3.3-7.69,3.62-2.93,8.08-4.38,12.51-5.5,11.85-3,20.3-11.07,29.47-18.96-2.27-.99-3.86.23-5.52.27-7.57.37-13.87,5.43-21.44,5.79-2.12-2.55.25-3.83,1.73-4.81,17.12-11.46,32.74-24.86,48.9-37.58,1.27-1,2.86-1.43,4.15-2.4C248.19-.57,280.55-.95,313.04,1.34c16.63,1.17,32.84,3.98,48.57,9.51,4.32,1.52,8.71,2.97,12.3,6.01Z" fill="#feaf88"/><path d="M120.71,343.64c-10.21,0-20.43-.01-30.64-.02-3.66,1.54-4.41-1.6-5.15-3.67-4.74-13.27-10.51-26.2-13.7-39.99.52-7.15-4.06-12.83-5.58-19.4-.96-4.13-3.63-7.89-2.7-12.44.31-.74.8-1.3,1.47-1.73.71-.4,1.45-.68,2.24-.86,8.64-2.4,17.64-1.18,26.4-2.63,5.1-.84,10.43.02,15.61-1.2,2.42-.57,5.02-.34,7.04,1.63,2.88,4.53,2.83,9.65,2.84,14.72.06,17.76-.03,35.51.05,53.27.03,8.15.5,8.57,8.64,8.64,7.38.07,14.76-.05,22.14.05,2.97.04,6.06-.22,8.54,2.01.2,2.59-1.89,3.11-3.56,3.23-10.44.71-20.9,1.06-31.33-.2-.9-.11-1.64-.75-2.29-1.41Z" fill="#84184c"/><path d="M69.24,159.66c-3.99-12.38-2.9-25.36-4.59-37.97-2.76-20.5,6.49-34.59,21.13-46.72,1.74-.54,3.38.06,4.41,1.26,4.13,4.84,9.8,6.56,15.57,8.16,2.95.82,4.89,2.69,5.27,5.71,2.26,17.73,5.11,35.39,5.9,53.28.08,1.83-.11,3.67-.74,5.43-4.55,4.57-7.96,9.68-9.98,16.03-1.96,6.17-6.01,6.96-11.09,2.48-7.81-6.9-16.93-12.83-20-23.77-.19-12.46-1.91-25.26,7-35.88,7.75-9.23,14.06-8.28,18.57,2.98,3.03,7.56,6.11,15.23,5.53,23.68-3.85,5.21-8.66,5.69-14.14,2.87-2.97-2.81-.51-5.48.23-8.17q-6.67,5.59-2.07,11.14c.64,1.49,1.17,3.08,2.21,4.28,2.05,2.35,3.88,5.8,7.81,4.1,3.88-1.68,7.42-4.13,7.18-9.1-.56-12.08-4.05-23.45-8.8-34.46-1.8-4.18-5.2-5.36-9.05-3.27-6.91,3.75-12.2,9.03-13.37,17.3-.77,5.46-1.62,10.92-1.59,16.46-1.28,3.94-3.08,7.88-.13,11.87.52,1.69.48,3.35-.2,4.99-1.84,2.34-2.45,5.54-5.08,7.33Z" fill="#fea488"/><path d="M69.24,159.66c1.08-2.56.28-6.24,4.22-7.11,2.84.95,3.11,3.75,4.14,5.94,5.18,10.99,11.21,21.39,20.19,29.78,3.72,2.54,6.31,1.17,8.54-2.26,1.92-2.95,2.37-6.41,3.67-9.57,4.37-6.14,5.81-13.13,5.92-20.51,1.01-5.6,1.34-11.26,1.48-16.94.17-1.16.57-2.23,1.32-3.14,3.56-1.63,4.58,1.13,5.42,3.45,5.74,15.85,12.37,31.29,19.7,46.47,2.32,4.79.88,6.68-4.51,7.25-3.66.39-7.39-.31-11,.72-9.73,2.32-16.07,8.48-19.82,17.55-.79,1.9-1.33,3.95-3.03,5.34-7,1.02-10.88-3.84-14.89-8.16-5.48-5.91-9.07-13.15-13.35-19.9-4.06-9.26-6.7-18.91-8.01-28.92Z" fill="#fd9a88"/><path d="M65.19,267.37c-.36-.17-.74-.24-1.14-.19-6.88,5.98-18.47,5.08-24.22-1.91-1.26-1.53-3.09-1.94-4.76-2.66-7.83-3.35-16.17-5.34-23.97-8.77-2.19-.96-5.16-1.01-5.68-4.25,1.87-2.83,4.54-5.43,5.44-8.54,1.83-6.33,5.54-5.83,10.56-4.62,12.43,3,20.8,11.84,29.81,19.84,5.98,7.15,12.76,4.78,19.61,1.66.61-.28,1.26-.48,1.91-.69,13.17-4.25,26.54-7.61,40.24-9.56,4.09-.59,8.58,1.36,12.28-1.87,2.6-1.13,5.26-1.05,7.93-.37,2.19,1.29,4.51,2.1,7.11,1.95,2.41.54,4.65,1.36,6.07,3.59.99,2.44,2.29,4.87.27,7.43-.65.48-1.36.83-2.13,1.06-17.56,3.15-35.46,2.38-53.09,4.58-8.75,1.09-17.83-.3-26.25,3.34Z" fill="#f0e2db"/><path d="M72.13,299.21c4.58,12.93,9.07,25.89,13.85,38.74.77,2.08.61,5.34,4.09,5.67-.3,1.57-.43,3.52-2.52,3.48-6.49-.12-13.73,2.41-18.37-4.82-6.65-12.28-11.38-25.53-18.8-37.43-1.59-4.81-4.46-9.07-6.03-13.89-1.14-5.27-4.22-9.7-6.29-14.57-1.02-2.41-2.94-5.14.77-7.13,1.12-.27,2.18-.09,3.21.39,4.41,1.17,8.93.17,13.37.67,2.15.98,4.46-.03,6.64.52,4.84,8.93,8.21,18.38,10.08,28.37Z" fill="#ad2951"/><path d="M120.71,343.64c9.99-.19,19.98-.34,29.97-.6,2.44-.06,5.02.67,7.31-.83,2.51-2.45,5.49-1.88,8.47-1.37,3.84,1.57,5.87,4.89,7.92,8.2-.51,4.68-1.02,9.36-1.53,14.04-2.23,2.11-5.08,1.99-7.82,2.01-14.97.09-29.93.09-44.9,0-2.76-.01-5.57-.01-7.83-2.03-.81-6.11,3.75-10.36,5.38-15.63,1.01-1.26,2.01-2.53,3.02-3.79Z" fill="#feb69a"/><path d="M171.79,14.23c9.22-4.17,19.05-5.84,28.98-7.14.92,4.03-2.46,5.71-4.61,7.73-19.57,18.39-39.36,36.52-63.61,48.81-1.63,1.2-3.22,2.47-5.12,3.25-2.32.53-4.85,2.96-6.93.77-1.96-2.06-.25-4.81.7-7.04,3.5-8.2,7.98-15.84,13.45-22.89,1.26-1.62,2.58-3.24,4.94-3.17,3.14,2.96-1.58,5.33-.35,8.97,14.97-4.38,23.37-15.81,31.14-27.97.47-.44.94-.88,1.42-1.32Z" fill="#feaf88"/><path d="M45.68,291.48c2.3,4.12,6,7.68,5.26,13.02.55,4.7-.23,8.77-5.11,10.94-2.79,1.24-2.39,3.48-1.94,5.87.7,3.74-.76,5.82-4.81,5.52-2.45.04-4.92-.06-7.35.16-5.3.47-7.55-1.73-6.58-7.04,1.58-1.98,3.86-2.81,6.37-3.74-1.91-.31-3.66-.3-4.92-1.67-2.65-5.31-5.25-10.65-5.6-16.73,1.11-1.04,2.09-2.29,3.5-2.55-1.31-.16-2.34,1.36-3.83,1.39-7.88-2.68-9.17-5.62-7.91-18.09,5.46,1.8,10.93,2.82,16.72,1.41,2.36-.58,5.12.38,5.89,2.61,1.78,5.13,5.43,7.61,10.31,8.89Z" fill="#feba9d"/><path d="M45.68,291.48c-1.8.22-3.62.37-5.41.67-2.69.45-4.12.01-4.14-3.33-.04-6.2-3.1-8.25-9.4-6.76-4.93,1.17-10.5,2.35-13.97-3.49-4.25-8.32-8.5-16.65-12.75-24.97,2.12-1.7,4.42-.88,6.6-.31,10.01,2.59,19.81,5.87,29.62,9.1,4.64,1.53,6.24,3.7,2.63,7.82-2.4,2.78.66,4.53,1.36,6.66,1.63,4.94,5.88,8.9,5.46,14.62Z" fill="#961a45"/><path d="M39.08,326.84c1.27-.84,3.7-2.32,3.64-2.43-5.54-10.12,9.08-11.86,8.22-19.91,6.47,5.91,8.69,14.31,12.25,21.82,2.4,5.07,6.4,9.76,5.99,15.96-7.16-1.33-14.36-2.46-21.46-4.03-5.91-1.3-5.52-7.77-8.64-11.41Z" fill="#8e1a48"/><path d="M124.58,246.93c-2.71,4.6-7.23,1.31-10.73,2.45-7.03-3.28-9.93-10.48-14.93-15.7-3.13-4.65-7.78-8.44-8.36-14.55-4.83-10.01-10.21-19.78-13.31-30.54,5.83,4.34,8.25,11.29,12.76,16.67,4.21,5.01,8.47,9.59,15.22,10.9,1.51,1.16,1.63,2.84,1.68,4.53-.62,2.56.15,4.3,2.89,4.91,3.17,3.45,3.86,8.51,7.58,11.6,2.41,3.24,5.67,5.86,7.19,9.75Z" fill="#ef736f"/><path d="M131.58,62.57c10.83-6.78,22.37-12.59,32.06-20.98,12.77-11.05,26.08-21.56,37.12-34.49,4.95-1.58,9.94-2.88,15.21-2.55-10.13,10.22-21.88,18.49-32.97,27.56-7.21,5.9-15.61,10.18-22.31,16.75.26,2.73-2.11,3.01-3.7,4.04-8.64,4.9-15.65,11.82-22.87,18.48-3.14,2.9-5.84,6.57-10.71,6.76-2-2.43-.08-4.1,1.18-5.85,2.33-3.24,5.32-6.01,6.99-9.72Z" fill="#f38081"/><path d="M357.2,54.31c15.56-4.09,25.4-17.78,18.88-34.95-.1-.27.37-.75.57-1.13,5.01,2.72,9.37,6.17,12.42,11.09-2.9,14.57-11,23.87-25.9,27.61-13.28,3.33-26.23,7.96-39.36,11.91-1.71.52-3.6.45-5.41.65.69-4.42,5.53-3.3,7.68-5.78,10.19-3.74,20.8-6.07,31.11-9.39Z" fill="#f38081"/><path d="M90.23,69.56c3.64-3.31,7.28-6.62,10.91-9.94.46.47.72,1.05.81,1.7.14,1.62-1.36,2.81-1.17,4.74,6.04-1.89,9.51-6.46,12.72-11.31.94-1.42.98-2.51-1.19-2.53-.94-.29-1.62-.76-1.33-1.89,8.69-7.28,17.29-14.68,27.47-19.9,1.38,4.02-2.41,5.68-4.1,7.99-7.99,10.89-16.18,21.62-21.54,34.14-1.39,3.24-4.15,4.74-6.87,6.43-1.79,1.12-3.74,1.74-5.83,1.97-6.96-.1-7.81-1.08-9.88-11.39Z" fill="#feab88"/><path d="M90.23,69.56c2.52,1.1,2.4,3.47,2.88,5.66.79,3.55,2.83,5.42,6.71,4.05,4.92,2.74,9.93,5.14,15.82,3.87,1.48-.32,2.67-.07,3.3,1.48,1.11,6.97,3.99,13.79,1.73,21.03-1.84-.35-3.41-2.03-2.73,2.32,1.26,8.09.45,16.45.35,24.7-.03,2.03-.67,4.12.79,5.95.7,6.12-.72,12.07-1.34,18.09-1.13.9-2.21.78-3.26-.14-1.44-2.38-1.22-4.64.49-6.79.34-17.71-2.63-35.09-5.23-52.51-.3-2.04-.25-4.13-.29-6.2-.04-2.24-.56-4.4-3.08-4.7-8.47-.99-14.69-5.86-20.59-11.4,1.48-1.8,2.96-3.6,4.45-5.4Z" fill="#f37f80"/><path d="M72.19,259.07c-1.89.71-3.88,1.23-5.66,2.15-6.83,3.52-12.29,3.14-15.31-4.96,5.43-5.62,9.6-12.48,16.55-16.58,6.21-1.04,10.31,2.53,14.25,6.48-.56,6.36-5.28,9.57-9.83,12.91Z" fill="#fdc2a2"/><path d="M81.77,247.2c-4.17-3.42-8.77-6.06-13.99-7.51,6.61-7.94,15.26-13.63,22.79-20.56,3.03,4.49,6.07,8.97,9.1,13.46-4.8,6.3-10.72,11.22-17.9,14.61Z" fill="#533365"/><path d="M364.12,119.34c-2.81-12.99-1.84-25.84,1.54-38.57,1.07-4.03,4.89-4.93,8.14-5.37,8.9-1.19,17.78-.12,26.61,1.33,3.01.49,3.57,3.2,4.95,5.18.12,1.41.24,2.82.36,4.23,0,0-.42-.25-.42-.25-3.34.69-5.39-2.09-8.12-3.05-4.77-1.67-9.57-3.14-14.69-3.1-8.05.06-10.88,2.72-12.58,10.51-1.98,9.06-.36,18.27-1.62,27.34-.21.73-.58,1.37-1.08,1.94-1.07.6-2.11.62-3.09-.2Z" fill="#f48281"/><path d="M105.27,77.77c3.37-2.06,5.63-4.77,7.25-8.59,6.16-14.52,17.05-25.98,25.93-38.74,2.39-2.35,5.02-4.33,8.27-5.33,3.55,1.54.63,3.27.16,4.93-1.8,2.23-3.1,5.14-6.68,5-10.02,8.38-14.64,20.01-20,32.48,3.11-.92,5.18-1.54,7.25-2.16-2.32,7.8-14.42,14.56-22.18,12.41Z" fill="#f48281"/><path d="M38.85,270.2c1.93-4.17.37-6.05-3.93-7.14C23.23,260.1,11.63,256.78,0,253.59c.09-3.65,2.14-4.66,5.42-4.01,11.09,4.1,22.21,8.15,33.26,12.35,2.14.81,6.25.76,3.32,5.13-.61.91.07,1.98,1.09,1.8,6.24-1.11,13.4,4.42,18.86-2.64.55-.72,1.67,0,2.1.95,0,0-.43.41-.43.41-1.14,1.12.14,2.99-1.25,4.03-2.31-.06-4.62-.11-6.92-.17-4.38-1.67-9.09.49-13.47-1.21-1.04-.01-2.08-.02-3.12-.03Z" fill="#582b44"/><path d="M26.6,314.55c3.34.13,6.75-.61,12.12,1.27-5.75,1.75-9.66,2.95-13.58,4.14.49-1.8.97-3.61,1.45-5.41Z" fill="#f68c87"/><path d="M145.6,29.72c-.53-1.76,3.19-2.49,1.12-4.62,3.25-2.71,7-4.44,11.04-5.57,1.42-.52,1.79.31,1.91,1.48-3.95,4.1-7.66,8.6-14.08,8.71Z" fill="#fcad8e"/><path d="M110.98,50.33c.45.41.89.83,1.34,1.24-1.91,5.3-5.74,8.39-11.13,9.68-.01-.54-.03-1.08-.04-1.62,2.77-3.64,5.89-6.9,9.84-9.3Z" fill="#febfa2"/><path d="M159.21,20.94c-.48-.47-.97-.94-1.45-1.4,4.2-3.02,8.79-5.01,14.03-5.3-.04.47-.09.94-.13,1.41-3.92,2.3-7,6.59-12.45,5.29Z" fill="#fecbae"/><path d="M20.67,296.66c1.67-3.15,4.26-3.41,7.6-2.4-2.23,2.02-4.54,3.2-7.27,3.56-.16-.37-.27-.76-.33-1.16Z" fill="#f58986"/><path d="M364.12,119.34c.91,0,1.83,0,2.74,0,2.87,3.97,2.25,8.79,2.99,13.22.79,4.78,1.62,9.53,3.07,14.14,2.87,9.17,9.28,11.54,17.67,6.7,2.4-1.38,4.45-3.27,6.75-4.79,2.04-1.35,3.77-3.54,6.69-2.92-2.38,19.66-6.35,38.91-14.59,57.08-.85,1.87-1.41,3.88-3.16,5.2-14.75,11.6-32.1,16.35-50.25,18.95-6.6.94-13.05,2.65-19.59,3.88-2.67.5-5.42,1.43-7.92-.6-1.2-3.78.53-7.16,1.47-10.63,1.85-6.83,3.56-13.67,3.86-20.79,2.28-9.47-.2-19.32,2.25-28.76,7.05.05,7.4-4.88,7.35-10.02-.06-6.37.42-12.76-.77-19.09-.42-2.26-.54-4.55.99-6.56.96-.7,2.02-.88,3.17-.67,3.52,1.57,3.04,4.85,3.16,7.75.27,6.68-.11,13.36.49,20.04.78,8.64.67,8.65,9.39,9.67.54,4.74-.32,6.02-7.4,11.04,8.7-2.25,9.59-3.03,11.1-11.82,1.53-8.92,1.27-17.79-1.85-26.44-1.88-4.74-1.98-9.63-1.19-14.59.22-.78.58-1.49,1.07-2.13,1.99-1.61,4.05-2.65,6.47-.81,1.84,2.91,1.35,6.19,1.41,9.37.14,7.56-.08,15.11.71,22.66.44,4.23,2.18,5.25,6.23,5.01,11.97-.74,12.13-.72,9.43-12.46-1.54-6.72-2.41-13.54-3.38-20.34-.49-3.45-.47-6.88,1.63-9.94,0-.45.02-.9.04-1.34Z" fill="#f67d73"/><path d="M309.03,229.94c25.33-5.33,52.1-5.75,74.26-21.87.82-.6,1.94-1.46,2.98-.1-9.17,13.58-22.38,22.13-36.69,29.2-15.94,7.87-32.76,12.89-50.45,14.87-.84-5.38,3.64-9.03,4.48-13.86,1.64-2.85,2.24-6.4,5.43-8.23Z" fill="#c64558"/><path d="M404.01,145.7c-4.21,3.12-8.25,6.5-12.65,9.31-9.28,5.93-17.62,2.5-20.35-8.08-2.34-9.05-4.12-18.19-4.15-27.58,0,0,.04-.03.04-.03,5.32-2.7,10.49-.55,15.68.47,4.3,2.82.89,7.75,3.39,11.46-.84-3.75-2.27-7.25.25-10.52,0,0,.1-.03.1-.03,5.28,3.32,10.45.06,15.61-.46,2.14-.22,3.46-.51,3.78,2,.23,7.88-.34,15.69-1.7,23.45Z" fill="#fc8c78"/><path d="M304.86,238.51c-.54,5.1-3.63,9.11-5.74,13.54-1.9,4.88-5.46,8.64-8.53,12.74-.66,1.3-1.6,2.27-3.13,2.48-8.06-1.59-12.4-7.18-11.95-15.38,3.82-5.4,9.53-9.14,13.07-14.81,1.98-2.8,4.48-4.67,8.1-4.53,3.7.65,7.82.73,8.19,5.96Z" fill="#fdcaa6"/><path d="M283.87,336.64c3-2.28,6.29-4.32,7.02-8.48,8.75,9.21,20.46,13.25,31.7,18.12,0,.43.02.86.04,1.29-5.54,3.92-11.77,1.86-17.72,1.9-3.59.02-7.14-1.12-10.77-1.2-2.53.17-5.04-.06-7.46-.71-2.58-.69-5.73-.9-6.41-4.23-.62-3.04.97-5.24,3.61-6.7Z" fill="#fdd2bc"/><path d="M288.28,266.16c.77-.46,1.54-.92,2.3-1.37.19,6.9-.22,13.77-1.24,20.6-4.7,3.14-9.64,2.43-14.63.94-2.29-1.67-2.26-4.02-1.91-6.47,3.88-5.99,9.33-10.24,15.47-13.7Z" fill="#220e22"/><path d="M274.42,285.31c4.98.02,9.95.05,14.93.07-.03,1.38-.07,2.75-.1,4.13-3.77.79-7.74,1.09-11.27,2.48-4.28,1.69-3.85-1.01-4.12-3.45-.73-1.24-.51-2.31.56-3.23Z" fill="#583767"/><path d="M188.17,291.19c-5.29,15.72-9.01,31.83-12.16,48.09-.54,3.25-1.08,6.51-1.63,9.76-3.44-1.23-5.09-4.21-6.89-7.04-.44-.52-.77-1.11-1.03-1.74-.33-1.37-.1-2.7.31-4.01,1.1-7.46-3.4-13.66-4.69-20.6-.67-3.6-2.18-7.04-1.47-10.82,2.87-8.3,5.61-16.68,12.06-23.12,7.81-1.17,11.39,4.57,15.48,9.49Z" fill="#fdc5a3"/><path d="M305.99,366.95c-.44-5.88-4.81-9.58-7.94-13.88-1.6-2.2-3.39-4.24-4.53-6.74,9.68.91,19.36,1.91,29.11,1.24,6.1,4.58,5.84,11.49,6.62,18.02-7.62,2.74-15.31,4.22-23.26,1.35Z" fill="#fdc5a3"/><path d="M112.31,363.06c20.18,0,40.36.01,60.54.02.97,5.21-1.4,6.61-6.41,6.89-16.11.89-32.18-.17-48.27-.3-4.79-.04-6.76-1.87-5.86-6.61Z" fill="#88194b"/><path d="M383.47,120.71c-5.63.79-11.03-1.11-16.57-1.39.29-10.09-.67-20.19,1.24-30.27,1.46-7.66,4.18-10.88,12.24-11.17,9.21-.34,17.75,1.81,24.91,8.02.1,5.61.2,11.23.31,16.84-2.98-1.05-5.94-2.19-8.96-3.14-8.08-2.54-11.11-.67-11.66,7.71-.27,4.08-.26,8.14-1.44,12.09.41.31.53.61.37.9-.15.27-.3.41-.45.41Z" fill="#fea387"/><path d="M383.47,120.71c.03-.44.06-.87.07-1.31.89.44,1.78.89,2.67,1.33-.28,4.6.14,9.03,3.76,12.93-4.91,1.92-6.68.44-6.5-4.11.12-2.94,0-5.89-.01-8.83Z" fill="#db6673"/><path d="M232.62,79.22c4.72,3.24,5.67,9.81,11.05,12.46,4.46,5.04,4.27,14.08-.68,21.33-3.49,5.11-7.59,9.86-10.04,15.58-1.32,3.09-4.74,7.56-.64,9.63,3.39,1.71,6.07-2.95,8.21-5.88,1.73-2.36,1.77-5.78,4.62-7.46,6.21-7.79,16.34-10.06,23.42-16.62.82,1.72-.05,3.16-.93,4.45-8.18,11.87-14.47,24.8-21.24,37.47-.88,1.66-1.98,3.06-3.85,3.69-9.5.95-19.06,1.18-28.51,2.64-7.25,1.03-14.58,1.13-21.87,1.84-15.48,1.51-27.49,7.97-35.25,21.76-1.54,2.73-2.73,5.89-5.85,7.44-3.44,0-4.64-2.69-5.77-5.12-6.44-13.94-12.43-28.06-16.87-42.79-1.16-3.83-1.57-7.49,4.05-7.98,3.36.07,6.16,1.78,9.1,3.09,13.3,5.21,26.69,10.2,40.17,14.92,2.81.99,5.38.68,8.03-.48,18.46-8.1,33.35-20.25,43.84-37.71,2.71-4.51,3.57-8.8,2.19-13.78-1.05-3.78-2.12-7.54-3.26-11.3-.71-2.36-2.02-4.81.07-7.17Z" fill="#fe9e88"/><path d="M245.1,51.5c-3.43-5.4-7.63-10.26-10.28-16.21-3.49-7.83-3.05-10.39,4.47-15.45,13.17-8.86,27.93-13.83,43.47-16,13.93-1.94,28.02-2.2,40.8,5.33,4.5,2.66,8.55,6.08,12.81,9.16,1.61,8.37,1.52,16.63.55,25.19-.94,8.3-5.67,11.01-12.23,10.59-16.85-1.07-33.79-2.31-49.26-10.25-4.46-2.29-8.06-5.56-9.34-10.49-2.67-10.3,4-17.69,14.87-16.29,11.12,1.43,22.27,2.23,33.44,2.82.32,2.38-1,3.51-3.09,4.05-11.39-3.28-23.07-3.27-34.73-2.69-4.35.22-5.3,4.37-6.76,7.81-1.7,4.01.17,6.65,2.77,9.09,5.88,5.54,13.72,6.16,21.02,7.67,11.08,2.29,22.41,1.45,33.65,1.62,4.81.07,6.33-1.91,6.48-6.58.68-21.95-2.64-26.99-24.42-31.68-20.03-4.31-39.67-2.13-58.29,6.87-2.67,1.29-5.29,2.87-7.54,4.79-3.61,3.09-5.27,7.06-2.97,11.7,3.27,6.59,7.17,12.76,12.86,17.61,3.47,1.85,6.47,4.18,8.2,7.85,1,2.67,3,4.45,5.19,6.14,1.71,1.33,4.02,2.43,3.27,5.33-7.84-1.87-13.48-7.03-18.91-12.56-1.89-1.93-4.02-3.62-6.04-5.42Z" fill="#f48181"/><path d="M364.07,120.69c-.19,11.78,2.08,23.21,4.85,34.58,2.09,8.57,1.23,9.68-7.33,9.74-.23,0-.46,0-.69,0-12.94.12-13.04.12-13.35-13.19-.2-8.52-.05-17.04-.05-25.56-.35-.31-.46-.63-.34-.94.12-.31.24-.46.36-.46,5.74-.52,11.46-1.13,16.56-4.17Z" fill="#fc8c78"/><path d="M245.14,124.88c-1.13,5.55-3.25,10.57-7.99,14.03-2.22,1.62-4.87,3.75-7.49,1.9-2.27-1.6-1.3-4.64-.67-7.07,1.95-7.52,6.24-13.89,11.15-19.61,5.99-6.99,6.15-14.37,3.52-22.45-.9-2.79-1.8-5.58-2.69-8.38,5.61.69,8.43,5.47,12.47,8.47-6.76,10.04-7.17,21.66-8.3,33.11Z" fill="#febdaa"/><path d="M253.44,91.76c-5.7-.55-8.2-5.81-12.47-8.47-3.47-6.88-7.14-13.68-9.69-21.67,4.48,0,7.38,3.08,11.01,3.88,2.76,1.94,5.69,3.68,8.25,5.85,7.1,6.04,7.85,11.84,2.91,20.41Z" fill="#fefdfd"/><path d="M243.65,152.5c7.13-15.41,15.26-30.25,24.91-44.24,2.33-2.76,3.38-6.62,7.03-8.25,3.07,1.83,6.75-1.6,9.73,1.12.49,1.32-.18,2.3-1.17,2.92-8.19,5.06-12.82,13.04-17.34,21.1-4.55,6.74-8.1,14.15-13.53,20.3-2.98,2.66-3.29,9-9.63,7.05Z" fill="#f48081"/><path d="M347.51,124.86c0,.47,0,.93-.01,1.4-1.84.46-3.69.92-5.53,1.38-2.25-1.32-2.71-3.59-3.08-5.88-.36-2.27-.76-4.53-1.31-6.77-3.32-13.47-4.6-14.6-18.38-16-1.61-.16-3.21-.28-4.59-1.25-1.39-3.65,1.9-3.25,3.61-3.94,2.65-1.07,5.71-.64,8.32-2.01,2.45.5,4.9.99,7.34,1.49,6.97,1.42,9.97,5.84,10.99,12.77.91,6.26.32,12.75,2.63,18.8Z" fill="#f48081"/><path d="M369.4,64.02c-5.35,14.96-9.45,16.85-30.17,13.18,6.84-8.16,15.1-12.11,24.87-13.42,1.8-.59,3.58-.93,5.29.24Z" fill="#fefcfb"/><path d="M326.55,91.79c-3.27,3.7-8.55,2.78-12.31,5.35-9.31,3.76-18.83,6.19-28.98,4.32-2.02-.13-4-.16-5.94.68-2.04.87-3.53.4-3.72-2.14,8.16-6.3,17.95-7.5,27.68-8.21,7.72-.57,15.51-.04,23.27,0Z" fill="#ce5970"/><path d="M270.05,69.48c-2.22-4.64-9.2-5.12-9.77-11.19,1.7-.56,3.22.11,4.57.94,16.21,9.94,33.57,9.49,51.35,5.91,3.45-.69,7.1-2.57,10.56.2-2.78,1.38-5.56,2.77-8.35,4.15-8.29,1.62-16.42,3.91-24.98,4.32-8.24.4-15.96-.9-23.39-4.32Z" fill="#d05b71"/><path d="M369.4,64.02c-1.76-.08-3.53-.16-5.29-.24,2.65-2.14,5.77-1.11,8.67-1.14,12.42-.14,17.22-3.8,19.73-15.46,2.72,2.12,2.36,5.48,3.01,8.22,2.4,10.09-.56,13.07-10.6,11.31-5.17-.91-10.18-2.74-15.52-2.69Z" fill="#fec1a9"/><path d="M289.57,87.78c-3.64-1.23-9.44-.4-9.83-3.47-.43-3.39,5.01-4.14,8.41-5.13,1.74-.51,3.52-1.18,5.3-1.24,3.06-.11,7.62-1.18,8.34,2.22.53,2.51-3.25,5.07-6.49,6.04-1.95.58-3.92,1.09-5.73,1.58Z" fill="#fec0a8"/><path d="M326.76,65.33c-6.99,1.03-14.01,1.9-20.96,3.14-16.63,2.96-31.8-.28-45.52-10.18-2.3-2.71-4.59-5.42-6.89-8.14,13.72,1.04,26.73,5.95,40.31,7.56,14.3,1.69,28.63,1.35,42.76-1.97,2.84-2.23,6.19-2.75,9.66-2.85,3.39,2.82,7.41.76,11.08,1.42-8.06,5.63-17.68,6.88-26.8,9.52-1.29.37-2.77.16-3.65,1.5Z" fill="#f89a7d"/><path d="M346.12,52.89c-2.41,3.7-6.22,2.67-9.66,2.85-2.12-4.93,2.18-5.81,4.9-6.78,6.85-2.45,10.57-6.9,10.24-14.18-.15-3.25,1.03-5.72,2.84-8.12,2.29-2.37,4.59-3.39,6.9-.02,5.81,11.71,3.71,16.38-8.63,19.41-3.59.88-5.92,3.09-6.59,6.84Z" fill="#fec4a9"/><path d="M310.54,30.71c-10.62,4.65-19.64,3.58-29.64-.46,10.06-4.98,19.11-6.53,29.64.46Z" fill="#fefdfc"/><path d="M311.32,23.95c1.03-1.35,2.06-2.7,3.09-4.05,2.47-1.11,4.93-2.23,8.25-3.73-2.34,5.64-5.78,10.41-3.93,16.52-.56.08-1.11.15-1.67.23-1.91-2.99-3.83-5.98-5.74-8.98Z" fill="#d05b71"/><path d="M361.34,26.63c-2.3-1.99-4.6-.26-6.9.02.16-1.89.63-3.83,2.91-3.7,2.04.12,3.86,1.15,3.98,3.68Z" fill="#feaf88"/><path d="M120.49,105.55c-.81-7.41-2.86-14.66-2.7-22.19-.18-3.85,1.7-5.65,5.5-5.56,10.68-6.94,18.61-17.16,29.13-24.31,1.33-.9,2.44-2.04,4.18-1.97.34,4.91-5.03,6.49-6.14,10.55-4.53,7.14-10.61,13.13-14.9,20.48-7.58,13-1.34,28.07,13.24,31.5,3.14.74,3.03-1.22,2.6-3.13-1.26-5.66-3.17-11.01-7.63-15.1-4.36-4-6.2-9.03-5.36-14.9.38-2.63.62-5.53,4.26-5.88,9.28-4.81,19.25-7.78,29.12-11.05.6,4.23-3.31,5.7-5.33,8.19-2.53,3.12-3.64,6.06-2.61,10.05,3.73,14.57,10.04,27.51,22.36,36.83,3.78,3.21,7.17,1.44,10.5-.86,5.57-2.52,9.28-7.25,13.48-11.38,2.42-2.38,2.41-5.07,1.61-8.18-2.01-7.77-5.51-14.89-9.13-21.97-.69-1.85-.86-4.53-3.94-2.18-2.52,1.93-4.96,4-7.77,5.79,5.27-2.52,10.34-3.69,14.31,2.06,2.24,3.49,3.72,7.36,4.81,11.26,1.09,3.89,2.06,8.24-3.04,10.59-9.93,1.04-19.85,1.05-29.77.02-15.69-9.89-16.82-29.15-2.38-40.19,6.81-5.21,14.02-9.63,22.34-12.02,6.07-1.74,11.39-.8,15.63,4.22,12.17,14.41,18.77,31.02,19.36,49.88.15,4.58-2.3,8.33-5.45,11.56-11.39,6.94-22.63,14.12-35.37,18.55-7.18,2.5-14.21,3.03-21.66,1.15-8.95-2.26-17.52-5.66-26.39-8.09-5.39-1.78-8.07-7.03-12.62-9.9-4.4-3.87-8.94-7.66-10.25-13.82Z" fill="#fea687"/><path d="M185.64,120.67c-14.32-10.17-20.42-25.14-24.27-41.45-.69-2.92.91-4.79,2.55-6.66,2.55-2.91,5.22-5.71,7.85-8.56,10.07-6.31,19.75-13.27,31.36-16.82,3.56-1.09,5.73-.61,8.52,1.85,9.5,8.39,15.5,19.07,20.97,30.19-.04,4.04,1.73,7.64,3.11,11.23,3.64,9.44,3.14,17.83-3.07,26.37-11.57,15.91-26.34,27.41-44.34,34.97-1.2.51-2.84.89-3.99.49-14.5-5.01-29.07-9.87-43.09-16.17-2.58-4.18-5.44-8.18-8.19-12.25-1.17-1.73-3.33-3.33-1.49-5.88,3.71,3.22,7.41,6.45,11.12,9.67,10.81,6.52,21.91,12.44,33.72,16.98,4.07,1.56,7.72,1.62,11.93.09,15.38-5.6,27.27-15.65,37.39-28.14,7.35-7.68,4.47-16.58,2.73-25.16-2.65-13.07-8.79-24.45-17.41-34.61-3.09-3.63-6.79-4.73-11.06-3.72-11.42,2.73-21.47,8.07-29.34,16.92-7.41,8.33-5.05,13.91.29,25.29,1.25,2.66,3.29,4.96,4.97,7.42,4,2.08,6.92,5.19,8.92,9.21-.33,2.97,2.84,5.61.83,8.74Z" fill="#f48081"/><path d="M142.65,75.04c-4.55,7.16-4.27,13.36,1.97,19.06,5.51,5.03,7.36,11.49,9,18.19.35,1.44.23,3.56-.62,4.59-1.27,1.53-3.03-.04-4.27-.8-4.3-2.64-8.79-5.12-12.62-8.35-7.48-6.32-8.21-16.82-1.84-26.18,4.75-6.99,10.06-13.61,15.11-20.4,10.51,0,18.78-4.82,25.91-12.08,2.4-2.44,4.74-4.93,7.38-7.12,2.88-.33,5.54-2.47,9.5-.68-8.39,8.78-16.98,16.63-28.22,20.95-5.32,2.05-11.03,3.13-15.98,6.09-2.54,1.52-4.99,3.35-5.31,6.73Z" fill="#fec2aa"/><path d="M182.66,41.94c-6.22,11.26-15.74,18.04-28.28,20.58-1.71.35-3.73.47-5.01-1.37,1.01-4.25,5.17-6.14,7.21-9.62,1.37-.89,2.74-1.79,4.11-2.68,7.21-2.67,14.13-6.27,21.97-6.91Z" fill="#fefdfd"/><path d="M216.93,25.45c-3.45-14.91,11.88-23.89,30.46-20.2-5.28,3.89-9.58,8.25-16.01,9.1-6.36.84-10.85,4.38-14.44,11.1Z" fill="#fec8a9"/><path d="M167.39,340.78c.08.4.12.81.1,1.22-3.17.07-6.33.14-9.5.21-11.72-.02-23.45-.29-35.16.06-5.28.16-6.65-1.69-6.55-6.73.29-14.93.13-29.88.1-44.82-.02-9.15.5-18.34-1.39-27.39,8.09-3.17,16.57-3.08,25.01-2.7,4.6.21,5.56,4.42,6.61,7.89,4.38,14.54,8.83,29.07,13,43.68,2.71,9.5,5.97,18.85,7.79,28.59Z" fill="#7a1750"/><path d="M167.39,340.78c-6.18-11.61-8.15-24.61-12.16-36.94-3.96-12.16-7.54-24.44-11.01-36.75-1.15-4.07-3.31-5.15-7.38-5.35-7.4-.36-14.55,1.57-21.86,1.58-16.6,1.35-33.2,2.7-49.8,4.05,1.38-3.6,4.66-2.29,7.13-2.54,24.26-2.39,48.54-4.62,72.81-6.9,5.73,4.44,4.46,11.7,7.04,17.42.38,1.02.68,2.05.91,3.12,5.61,17.4,8.38,35.56,14.15,52.92.55,1.67,1.01,3.52.49,5.38-.11,1.34-.21,2.68-.32,4.02Z" fill="#562843"/><path d="M62.36,271.62c.14-1.43-.32-3.05,1.26-4.03,1.76,7.85,4.71,15.3,7.39,22.85.97,2.74,3.89,5.47,1.12,8.77-3.26-9.2-6.51-18.39-9.77-27.59Z" fill="#681b3c"/><path d="M115.01,156.7c.91,0,1.82,0,2.73,0-.46,7.59-1.23,15.08-6.98,20.91-1.86,5.42-4.1,10.34-11.22,9.9-1.18-.07-1.6,1.52-2.41,2.31-11.38-10.21-18.14-23.35-23.67-37.27,0-1.84-.01-3.69-.02-5.53-2.22-3.69-.94-7.38,0-11.07-.52-6.67.54-13.23,1.52-19.78.86-5.77,12.36-16.6,18.19-17.43,3.66-.52,5.62,1.65,6.82,4.56,4.8,11.68,7.79,23.88,9.39,36.37.74,5.8-3.91,8.37-8.15,10.71-4.38,2.42-6.75-1-9.27-3.62-1.78-1.85-3.01-4.04-3.24-6.67,1.36-.78,2.53-.14,3.71.49,7.38,6.67,10.42,5.26,12.92-6.01-.3-10.14-3.88-19.32-8.61-28.07-2.05-3.79-5.04-5.02-9.13-2.12-5.35,3.8-8.95,8.9-9.78,15.16-1.08,8.16-2.29,16.4-1.54,24.71,2.94,7.41,4.68,15.3,8.95,22.19,3.97,6.41,16.31,9.64,22.64,5.8,2.72-1.65,2.67-4.62,3.46-7.2.89-2.92-.08-6.67,3.68-8.33Z" fill="#f48281"/><path d="M115.01,156.7c-1.24,2.05-.79,4.59-1.58,6.57-1.6,4.01.67,10.44-6.29,11.39-8.62,1.18-17.55,2.86-23.06-6.58-4.29-7.35-7.78-15.05-7.79-23.84.64.23,1.79.38,1.85.7,1.79,10.88,12.14,14.46,18.46,21.41,3.99,4.39,6.56,3.27,8.57-3.01,1.81-5.68,2.66-11.84,9.82-13.56.01,2.31.02,4.62.04,6.93Z" fill="#fd9a88"/><path d="M105.33,134.56c3.47,5.54-.65,8.8-4.17,11.34-5.09,3.67-6.95-1.92-9.77-4.45-1.03-1.88-1.66-3.75.18-5.53,4.85,2.17,9.42,1.52,13.77-1.36Z" fill="#fa9681"/><path d="M72.71,99.39c3.38-7.86,9.53-11.71,17.99-11.28-3.8,8.31-10,12.19-17.99,11.28Z" fill="#fefbfa"/><path d="M91.57,135.92c-.06,1.84-.12,3.69-.18,5.53-.89-.46-1.79-.91-2.68-1.37-.94-2.9-4.13-2.2-6.4-3.8,4.07-3.89,7.15-8.48,13.21-11.09-1.5,4.07-2.72,7.4-3.95,10.72Z" fill="#d15d71"/><path d="M73.45,135.95c0,3.69,0,7.38,0,11.07-5.26-3.69-1.77-7.38,0-11.07Z" fill="#fd9a88"/><path d="M150.85,187.02c7.5-15.24,17.65-27.42,35.73-29.89,8.82-1.2,17.69-2.32,26.65-1.88,5.28-.88,10.46-.87,15.38,1.63-.55,5.08-4.68,3.88-7.79,4.35-16.17,2.44-32.01,5.7-44.83,17.01-4.31,3.81-8.38,7.76-10.4,13.32-5.78,1.57-4.54,7.62-7.13,11.24-2.19,2.77-5.12,1.64-7.86,1.52-3.48-.12-6.92-.48-10.3-1.31-.67,0-1.35-.06-2.02-.12-11-.41-18.9,5.41-25.99,12.88-2.12,2.23-3.13,5.7-6.81,6.22-.08-1.95-.17-3.9-.25-5.85,3.13-11.88,9.25-20.94,22.21-23.54.79-.52,1.68-.64,2.59-.58,7.46.51,14.75.31,20.8-5.01Z" fill="#cd5870"/><path d="M150.85,187.02c-3.56,5.82-9.23,5.97-15.1,5.69-2.76-.13-5.53-.07-8.3-.1,4.01-2.62,8.47-.81,12.7-1.26,2.4-.26,4.35-.49,2.77-3.59-8.34-16.33-15.43-33.19-21.42-50.53-.21-.6-1.48-.83-2.25-1.24-2-3.12-.64-5.74,1.6-7.82,2.25-2.09,4.79-.61,6.95.51,2.03,1.05,5.13,1.08,5.21,4.47-2.09.11-4.85.07-3.78,3.19,5.93,17.23,11.29,34.72,21.01,50.37.1.16.4.2.61.3Z" fill="#f38081"/><path d="M133.01,133.16c-1.37-.7-2.72-1.46-4.12-2.08q-7.48-3.3-9.63,4.92c-.05.87-.11,1.75-.16,2.62-2.66-1.1-2.75-3.38-2.74-5.77.03-8.52.2-17.05-.05-25.57-.15-5.11,1.97-3.17,4.18-1.72,3.77,4.07,6.45,9.11,11.08,12.43,1.73,4.95,5.78,8.42,8.21,12.93.88,1.63,3.12,2.85,1.47,5.19-2.74-.98-5.49-1.96-8.23-2.95Z" fill="#ce5870"/><path d="M97.14,189.82c-.47-2.5-3.3-6.23,3.11-4.29,6.49,1.95,7.37-4.75,10.51-7.92.08,3.57-1.44,6.54-3.15,9.58-2.67,4.74-5.88,6.15-10.48,2.64Z" fill="#d05b71"/><path d="M150.99,202.44c2.3.12,4.63,1.94,6.9-.1,4.59,5.95,6.72,13.34,12.01,19.02,3.64,3.91,7.18,5.9,12.43,5.58,3.13-.19,6.42-.63,9.41,1.02,2.14,5.08-1.68,8.15-4.31,11.21-3.29,3.81-7.53,6.69-11.92,8.71,5.26.14,8.79-4.64,13.83-5.8,1.37.4,3.11,1.98,4.02-.08,1.11-2.51-2.39-1.09-2.75-2.6-1.92-4.03,3.53-6.93,1.65-10.95.5-3.68,2.88-2.87,5.1-2.03,4.14,1.56,6.43-.42,7.98-3.97,2.3-1.33,4.85-1.2,7.32-1.05,9.37.54,16.17-3.49,20.97-11.34.94-1.54,1.81-3.19,3.7-3.83,3.45,1.57,4.11,5.82,7.31,7.62,3.38,2.65,6.57,2.36,9.6-.59,1.29-1.25,2.59-2.47,4.34-3.1,7.3-2.32,14.79-2.96,22.4-2.86,6.18.08,12.39.4,18.46-1.17,3.58,1.69,1.91,4.59,1.48,7.07-1.19,6.98-4.31,13.52-4.83,20.67-3.27-.17-4.82,2.23-6.53,4.39-4.25,2.63-8.94,4.16-13.66,5.66-3,.9-5.78,2.28-8.34,4.08-3.62,2.32-7.4,4.25-11.64,5.15-6.22-2.03-7.24-3.9-5.01-9.23.53-1.27,1.34-2.41,1.94-3.65.94-1.94,3.31-4.05.9-6.09-2.17-1.83-4.81-.85-7.05.58-5.83,3.72-7.27,8.92-4.09,15.29,1.48,2.97,3.2,5.8-.14,8.63-3.28,2.09-7,2.96-10.71,3.89-6.96,2.26-13.62-.26-20.36-1.35-2.71-.44-5.35-1.32-8.04-1.92-3.15-.71-5.92-.52-7.73,2.71-1.93,3.45.95,4.93,2.68,6.9-.55.42-1.09.84-1.64,1.26-5.37,3.64-11.82,2.86-17.72,4.37-.77.16-1.55.24-2.34.28-7.88-.66-15.63,3.02-23.56.68-4.44-5.08-4.52-11.72-6.29-17.76-.48-2.27-.96-4.53-1.45-6.8.38-3.9,1.79-7.77.45-11.74.09-3.43.56-6.81,1.19-10.17,1.59-3.75,4.38-2.28,6.99-1.59,1.99.52,4.25,1.44,5.87-.24,2.02-2.09.15-4.31-.63-6.35-1.4-3.67-4.11-6.62-5.83-10.11-1.27-2.58-3.5-4.97-2.37-8.27Z" fill="#f1736e"/><path d="M140.39,248.26c3.91-1.49,5.37-4.94,6.74-8.46,2.08,4.15,1.49,7.86-1.83,11.12-1.64-.89-3.28-1.77-4.91-2.66Z" fill="#cf5c72"/><path d="M146.75,257.71c1.92,5.46,3.84,10.91,5.76,16.37-.1.92-.66,1.4-1.52,1.59-1.95-5.91-3.91-11.82-5.86-17.74.54-.07,1.08-.14,1.62-.22Z" fill="#d9bbbd"/><path d="M41.97,270.24c4.48.47,9.16-1.23,13.47,1.21-4.49-.36-9.17,1.27-13.47-1.21Z" fill="#681b3c"/><path d="M159.21,20.94c4.34-1.33,7.74-4.84,12.45-5.3-6.52,12.91-15.66,23.2-29.34,28.74-1.86.75-4.45,2.96-6.2.44-1.26-1.81.75-3.85,1.7-5.64.74-1.41,1.58-2.77,2.38-4.14,1.8-1.77,3.6-3.54,5.4-5.32,4.54-2.93,9.08-5.86,13.61-8.78Z" fill="#fefdfd"/><path d="M123.28,77.81c-2.23,1.46-4.06,3.31-5.5,5.56-5.45,3.46-16.28.99-17.96-4.1,1.82-.5,3.64-1,5.46-1.5,9.17-.95,16.24-5.68,22.18-12.41,1.38-.93,2.75-1.86,4.13-2.79.96,4.49-2.99,6.56-4.85,9.63-1.14,1.87-3.42,3.03-3.45,5.61Z" fill="#ce5970"/><path d="M145.24,216.33c-7.18-.21-13.13,2.33-17.7,7.95-3.96-1.11-8.04-2.48-11.28,1.37-3.54,4.21-1.19,8.53.17,12.78-4.08-3.26-5.45-8.07-7.25-12.65-.38-2.4,1.28-3.81,2.68-5.26,7.84-8.04,15.92-15.76,26.9-19.47.33.17.68.26,1.05.27,4.62,3.99,7.36,8.65,5.41,15.01Z" fill="#d5aab9"/><path d="M138.77,201.05c-10.54,7.43-21.49,14.37-29.59,24.72-1.46.38-3.53,1.56-4.25,1-1.77-1.39.73-3.08.55-4.78,4.79-7.11,10.22-13.55,18.11-17.43,4.78-2.35,9.67-4.29,15.18-3.51Z" fill="#4e3152"/><path d="M101.18,61.25c3.71-3.23,7.42-6.45,11.13-9.68,1.52-.88,3.04-1.77,6.11-3.55-4.28,11.01-10.13,17.96-20.41,21.3-1.1-3.95,2.08-5.59,3.17-8.07Z" fill="#fefcfb"/><path d="M285.25,101.46c9.66-1.44,19.32-2.88,28.98-4.32,22.21-.16,21.94,2.67,26.35,23.8.47,2.23.92,4.47,1.39,6.7-.02.45-.03.89-.03,1.34-6.6,6.01-9.81,6.68-15.7,3.24-.48-.78-.81-1.63-.96-2.55-1.74-10.75-2.32-10.95-13.18-8.33-9.47,2.28-17.18,7.34-24.1,13.92-9.28,1.27-18.82-3.2-22.19-10.39,3.8-10.03,10-18.07,19.45-23.42Z" fill="#fea188"/><path d="M323.98,134.57c1.64,9.03,1.38,18.15,1.39,27.27,0,2.54,0,5.05-1.39,7.29-.93,1.48-1.13,3.78-3.39,3.91-2.6.15-1.73-2.89-3.18-3.89-2.56-1.55-2.07-4.42-2.83-6.72-1.26-3.78-2.63-7.38-6.64-9.11-7.8.44-8.48,7.21-10.97,12.34-1.32,2.73-.68,6.51-4.32,8-.9-.28-1.73-.69-2.23-1.49-6.07-9.62-5.3-28.57,1.49-37.8,1.6-1.55,3.23-3.06,5.65-3.11,8.04,3.86,16.28,4.89,24.79,1.57,1.17,0,1.96.35,1.62,1.74Z" fill="#fa8876"/><path d="M308.76,151.46c7.48,3.64,7.49,10.95,8.66,17.68-.78,10.14.56,20.41-1.91,30.45-4.33,3.76-9.02,4.36-14.1,1.61-2.33-3.86-1.5-8.11-1.55-12.26.19-8.63-.69-17.31,1.25-25.88,1.11-4.9,3.21-8.98,7.65-11.59Z" fill="#4c2c61"/><path d="M326.76,131.78c5.96,3.97,10.03-2.34,15.18-2.8.15,5.14-.51,10.37,1.45,15.34,1.47,6.78,1.69,13.6.61,20.46-.43,2.76-.79,5.51-3.51,7.12-1.55.32-3.11.65-4.66.95-5.15.99-7.57-1.46-7.5-6.68.12-9.76-.13-19.53-.32-29.29-.02-.78-.81-1.55-1.24-2.32-.84-.93-.74-1.85,0-2.77Z" fill="#fa8876"/><path d="M301.6,200.91c4.74.67,9.3-.55,13.91-1.32-.22,10.53-3.81,20.34-6.48,30.35-1.15,2.97-1.98,6.1-4.17,8.56-2.19-2.93-5.07-4.56-8.76-4.67-2.75-1.23-2.39-2.93-1.45-5.44,2.63-7.02,4.82-14.21,5.41-21.77-1.28-1.64-1.15-3.37-.32-5.15.46-.69,1.08-.88,1.86-.56Z" fill="#553566"/><path d="M326.76,131.78c0,.92,0,1.85,0,2.77-.93,0-1.85,0-2.78.02-.45-.46-.91-.93-1.36-1.39-6.18-6.61-8.21-6.98-17.28-3.74-2.5.89-4.59,3.24-7.64,2.37-1.39.92-2.78,1.84-4.17,2.76-1.48,1.09-3.05,1.52-4.81.7-.25-.24-.49-.48-.74-.72,3.32-7.05,10.09-9.6,16.51-12.55,2.08-.96,4.29-1.65,6.5-2.27,14.51-4.05,15.73-3.1,15.76,12.06Z" fill="#f48181"/><path d="M340.49,171.9c2.6-9.02,3.21-18.25,2.9-27.58,4.43,10.83,3.29,21.84.67,32.75-1.16,4.85-7.31,7.32-14.81,6.75,3.74-4.09,8.39-7.17,11.24-11.92Z" fill="#d25b70"/><path d="M242.21,257.38c3.04-3.47-.65-5.55-1.99-7.68-2.81-4.45-2-8.08.92-11.94,3.03-4,6.18-7.3,11.9-6.43,4.49.69,5.54,2.72,3.29,6.57-1.15,1.98-2.37,3.92-3.59,5.85-2.78,4.4-1.9,7.3,3.39,8.45.45.06.86.26,1.28.38,3.04.89,2.47,6.63,6.71,5.44,4.28-1.2,7.24-4.4,9.31-8.35.47-.47,1.05-.7,1.72-.68,1.54.52,1.01,2.2,1.76,3.16-.27,7.21,4.04,12.51,11.37,13.99-3.75,5.27-9.12,8.68-14.22,12.4-7.71,2.41-9.82,10.35-15.03,15.22-1.69,1.27-3.14.51-4.17-.81-7.02-8.99-13.98-18.03-19.58-28.02-.45-.8-.48-1.75-.38-2.67,1.5-3.03,6.09-1.44,7.31-4.9Z" fill="#febb9d"/><path d="M276.91,252.16c-1.82-.11-1.4-1.72-1.84-2.75-1.58-2.43-1.29-4.72.48-6.92,4.67-1.42,8.79-4.66,14.01-4.26-3.35,5.43-8.37,9.35-12.65,13.93Z" fill="#220d21"/><path d="M235.38,262.09c5.83,10.52,13.36,19.87,20.4,29.55.87,1.2,1.78,2,3.25,2.13-5.67,6.29-13.91,6.86-21.24,9.37-2.51.86-5.29.97-7.94,1.42-5.63-5.81-8.63-13.26-12.56-20.13-.89-1.55-.73-3.04-.61-4.64.19-2.56.26-5.1-2.18-6.82-5.4-1.36-10.8-2.73-16.19-4.09-3.42,0-6.91-.23-5.58-5.09,1.18-4.31,2.84-8.47,8.85-7.06,6.62,1.55,13.32,2.81,19.9,4.52,3.5.91,6.74.6,10.03-.56,1.05,1.15,3.03-.29,3.88,1.4Z" fill="#feaf97"/><path d="M178.62,272.85c5.89-1.75,11.94-2.44,18.05-2.71-2.4,5.52-4.8,11.03-7.19,16.55-6.47-2-10.97-7.74-10.85-13.84Z" fill="#210d21"/><path d="M214.49,272.97c2.03.04,4.57,1.23,3.95,2.85-2.65,6.92,4.15,10.94,4.52,16.75.18,2.81,2.77,3.46,4.02,5.26,1.42,2.04,3.37,3.87,2.86,6.73-4.89-3.55-10.55-5.69-11.51-13.49-.73-5.98-4.82-11.54-3.84-18.11Z" fill="#f28484"/><path d="M178.62,272.85c2.33,5.62,5.99,10.21,10.85,13.84-.43,1.5-.87,2.99-1.31,4.49-5.38-2.17-8.25-8.59-14.82-8.75-2.33-4.63.92-6.99,3.87-9.47.47-.04.94-.07,1.4-.11Z" fill="#553566"/><path d="M151.25,278.43c5.74,5.55,4.79,13.71,7.83,20.33.92,2,.88,4.43,2.89,5.91.27,8.85,4.22,16.78,6.2,25.2.49,2.09,3.64,4.91-.45,6.89-5.04-17.71-10.09-35.42-15.12-53.13-.49-1.72-.89-3.46-1.34-5.19Z" fill="#ced5e0"/><path d="M228.47,158.16c-4.85-2.17-10.03-2.65-15.24-2.9,9.97-2.78,20.2-2.76,30.43-2.76,5.13-.38,5.66-5.41,8.36-8.25.47-.05,1.12-.11,1.26.16,3.33,6.52-4.42,21.15-11.58,21.94-3.09-.51-3.55-4.01-5.98-5.28-2.19-1.55-5.33-.74-7.26-2.91Z" fill="#ef6f70"/><path d="M153.86,163.64c-3.62.1-7.43.07-6.93-5.04.54-5.51,4.15-7.66,9.5-7.47,3.69.13,7.72-.02,9.18,4.11.96,2.71-7.32,8.39-11.75,8.4Z" fill="#febbab"/><path d="M240.9,165.05c4.36.55,7.26-1.16,7.63-5.67.44-5.24,6.11-9.23,3.49-15.13,5.84-5.57,8.07-13.71,13.79-19.37,6.15,6.06,13.59,9.18,22.18,9.66,0,0,.06.07.06.07,1.88,2.13.52,4.27.1,6.47-2.52,13.19-1.75,26.37,1.04,39.38,1.46,6.82,2.7,14.15,10.69,17.18,1.38.52,1.52,2.14.66,3.53-.16,1.82-.32,3.64-.47,5.46-1.85,3.21-4.94,2.71-7.89,2.67-11.64-.14-23.29-.45-34.67,2.74-.5-.48-.74-1.09-1.01-1.72-.95-2.18,2.31-6.21-2.07-6.58-3.67-.31-6.92,1.76-8.41,5.63-.71,1.85-.55,4.09-2.35,5.47-2.98-2.02-5.87-4.1-5.51-8.33-1.88-2.35-.08-5.08-.82-7.56.07-3.45,1.57-6.67,1.64-10.12.13-4.37-.13-8.78,1.08-13.06.48-3.56-2.26-7.38.84-10.73Z" fill="#f88274"/><path d="M225.72,116.58c-7,14.52-20.01,21.88-33.69,28.62-6.72,3.31-12.74,2.92-19.43-.32-10.42-5.04-21.74-8.37-29.93-17.24,8.49,1.03,16.26,4.64,24.25,7.23,11.65,3.77,22.11,1.28,32.31-3.78,9.01-4.48,17.67-9.65,26.48-14.51Z" fill="#f68a7c"/><path d="M184.23,112.3c-2.78-3.19-5.55-6.39-8.33-9.58,10.61,0,21.22,0,31.83.01,2.07,3.99-1.58,5.54-3.43,7.75-1.58,1.89-3.74,3.2-5.79,4.59-7.63,4.07-10.24,3.56-14.29-2.78Z" fill="#fa997f"/><path d="M197.99,113.66c3.62-3.31,8.48-5.51,9.74-10.92,3.88-7.95-1.23-14.09-4.16-20.66-1.12-1.89-1.73-3.79.04-5.66,5.41,7.28,7.51,16,10.62,24.28.58,1.55.81,3.4-.41,4.56-5.36,5.12-9.14,12.18-17.11,14.13-1.32-2.3,1.54-3.67,1.28-5.73Z" fill="#f48181"/><path d="M173.24,126.24c4.32-.33,8.28.35,11.22,3.92.88,1.06.88,2.22-.32,2.92-3.87,2.24-7.89,1.89-11.93.43-2.96-1.07-7.8-1.71-7.32-4.92.51-3.42,5.32-2.04,8.35-2.35Z" fill="#febda9"/><path d="M203.61,76.41c-.01,1.89-.03,3.77-.04,5.66-5.93-6.28-11.17,1.16-18.61,1.07,6.52-5.12,11.82-9.27,17.18-13.47,2.33,2.23.86,4.68,1.47,6.74Z" fill="#d05c71"/><path d="M197.99,113.66c2.96,2.67-1.19,3.74-1.28,5.73-3.29,3.86-6.9,5-11.07,1.29.47-2.95-4.15-5.04-1.41-8.37,4.24,3.95,8.73,5.48,13.77,1.35Z" fill="#d05b71"/><path d="M204.94,223.19c1.33,5.14-1.27,6.96-7.73,5.34-1.61-.4-3.2-3.45-4.74.06l-.03.05c-1.38,0-2.79.17-4.15,0-5.36-.68-11.85,2.51-15.94-1.86-6.5-6.95-13.18-14.22-14.48-24.44.65-4.7.79-9.72,6.95-10.9,1.6-3.59,4.6-4.69,8.24-4.65,2.75,3.11,3.33,7.51,6.29,10.5,2.41,3.09,3.98,6.81,7.18,9.29,2.23,1.72,4.42,3.47,5.41,6.26,2.27,6.03,9.29,6.11,12.98,10.35Z" fill="#f47a71"/><path d="M172.76,187.21c-2.64,1.41-5.28,2.82-7.92,4.23-2.54-1.94-.16-3.2.75-4.46,9.91-13.73,23.67-21.36,39.98-24.71,7.6-1.56,15.27-2.75,22.91-4.11,2.93.23,5.92,0,8.68,1.33-.84,3.79-4.23,3.02-6.69,3.5-12.01,2.34-23.71,5.62-35.18,9.96-8.56,3.24-15.28,9.1-22.52,14.27Z" fill="#4f3153"/><path d="M145.24,216.33c-.76-5.38-3.29-10.13-5.41-15.01,3.72.38,7.44.75,11.16,1.13,3.54,6.59,7.14,13.14,10.59,19.77,1,1.93,2.83,4.05.93,6.28-2.09,2.44-4.99,1.49-7.68,1.26-2.25-.19-3.99-3.72-6.67-1.02-.97-4.14-1.94-8.27-2.91-12.41Z" fill="#f47a71"/><path d="M204.94,223.19c-4.84-.84-8.95-3.16-12.5-6.44-.89-.82-3.3-1.76-.88-3.59,2.69-1.19,4.48.62,6.43,1.92,10.01,5.32,21.01,3.49,30.39-4.62,3.82-3.3,6.02-8.03,10.29-10.84,2.08,2.47-.68,4.57-.51,6.9-3.33,3.4-4.82,8.01-8.49,11.39-7.42,6.82-16.21,4.9-24.72,5.29Z" fill="#cf5b72"/><path d="M243.67,214.84c-.46-6.39,1.38-11.2,8.4-12.71,1.96-.42,4.04-2.01,5.79-.46,1.95,1.74,1.01,4.16.37,6.37-.37,1.29-.48,2.66-.71,3.99-5.51,6.97-8.37,7.55-13.84,2.8Z" fill="#f8a098"/><path d="M192.48,228.6c3.31,4.17-1.52,7.36-1.34,11.15,0,1.15-.44,2.05-1.51,2.57-4.95,4.87-10.53,8.15-18.93,6.91,9.08-5.68,17.91-10.64,21.75-20.57,0,0,.03-.05.03-.05Z" fill="#901c4a"/><path d="M189.63,242.31c.5-.86,1.01-1.71,1.51-2.57,1.68-.24,3.23-3.98,4.94-.7,1.69,3.25-1.31,5.27-3.5,6.47-3.75,2.05-2.37-1.71-2.95-3.2Z" fill="#f49390"/><path d="M274.33,249.72c-1.74-2.75-5.41-.52-7.32-2.82,2.3-2.53,5.23-3.83,8.54-4.4-.16,2.31-.32,4.61-.48,6.92-.25.1-.49.21-.74.31Z" fill="#b54362"/><path d="M310.94,102.81c1.88.65,6.19-1.74,6.65,1.47.45,3.1-3.52,5.08-6.59,6.17-1.67.59-3.63.63-5.44.54-3.48-.18-9.16,1.27-9.41-2.77-.22-3.55,5.61-4.48,9.36-5.35,1.53-.36,3.21-.06,5.44-.06Z" fill="#febfaa"/><path d="M300.54,201.17c-.39-.79-.76-2.27-1.19-2.28-9.3-.34-9.38-8.43-11.15-14.18-5.1-16.57-3.76-33.38-.16-50.09,1.83-.02,3.66-.03,5.49-.05-7.13,10.5-7.2,29.52-.14,38.73,1.48,1.04,1.94,2.68,1.8,4.25-.48,5.34,2.39,8.54,6.59,11.02-.06,4.12-.12,8.23-.18,12.35-.37.05-.72.13-1.07.25Z" fill="#ee6f6e"/><path d="M301.78,188.56c-6.43.76-8.48-2.72-8.28-8.48.08-2.26-.07-4.52-.11-6.79,1.38-5.54,2.31-11.23,5.43-16.19,2.3-3.66,4.95-6.72,9.94-5.64-8.87,11.14-6.57,24.37-6.98,37.1Z" fill="#1d0a1e"/><path d="M297.69,131.8c4.99-4.41,11.32-5.52,17.49-6.44,5.38-.81,6.31,3.9,7.44,7.82-1.1,4.89-5.57,2.99-8.04,3.07-5.86.18-12.49,1.54-16.89-4.45Z" fill="#fe9e88"/><path d="M182.68,195.5c-.08,4.53,1.54,8.57,3.67,12.45-4.13-2.01-5.8-6.03-7.92-9.68,1.42-.92,2.84-1.85,4.26-2.77Z" fill="#f5dee2"/><path d="M305.93,361.39c-3.38-5.63-6.74-11.31-12.41-15.06-12.62-.34-13.32-1.04-9.65-9.69-1.37-7.59-7.25-12.34-11.43-18.16l-1.63,34.33c0,.95-.03,1.89-.13,2.84l-.61,12.94h0c11.63,3.44,23.26,2.78,34.9.05,2.82-2.09,2.46-4.73.96-7.24Z" fill="#feb298"/><path d="M290.89,328.16c-.98-12.86-1.96-25.73-1.65-38.65-2.99-2.21-6.39-1.19-8.95.09-2.87,1.43-4.66.72-6.45-.79l-1.51,31.99c3.33,5.7,8.28,10.34,11.45,16.13,4.75-1,8.23-3.02,7.11-8.77Z" fill="#fdc4a3"/><path d="M305.99,366.95c7.77-.22,15.44-2.06,23.26-1.35.56,3.97-2.66,3.71-4.92,4.12-16.56,2.99-33.31,3.67-50.08,4.34-4.62.19-4.88-2.06-4.18-5.48,11.98-.37,24.03.72,35.93-1.64Z" fill="#8a1c4c"/><path d="M108.25,227.5s11.11,24.03,27.78,24.03,16.67-23.14,12.5-38.71l-6.02-12.9s-23.61,12.01-34.26,27.59Z" fill="#f9eff0"/><path d="M172.49,187.15s9.96,37.47,44.62,32.05c34.66-5.41,23.39-59.11,23.39-59.11,0,0-55.88,6.24-68.01,27.06Z" fill="#f9eff0"/><path d="M138.08,244.79c-3.91,3.76-11.79,2.3-17.59-3.28-5.8-5.57-7.32-13.14-3.41-16.9s11.79-2.3,17.59,3.28c5.8,5.57,7.32,13.14,3.41,16.9Z" fill="#391b40"/><ellipse cx="136.26" cy="230.12" rx="2.26" ry="2.59" transform="translate(-112.56 132.07) rotate(-37.86)" fill="#fff"/><path d="M212.48,210.11c-5.99,5.76-16.72,4.77-23.97-2.19-7.25-6.97-8.27-17.28-2.28-23.03s16.72-4.77,23.97,2.19c7.25,6.97,8.27,17.28,2.28,23.03Z" fill="#391b40"/><path d="M112.44,238.69s13.78-20.67,37.41-22.64c0,0-2.3-6.17-7.55-17,0,0-24.28,8.79-35.44,29.14l5.58,10.5Z" fill="#311e3b" opacity=".2"/><path d="M172.05,185.94s1.43,7.45,6.3,12.9c0,0,25.5-28.37,64.19-24.93,0,0,0-9.46-2.58-16.91,0,0-50.72,4.3-67.91,28.94Z" fill="#311e3b" opacity=".2"/><ellipse cx="213.35" cy="188.54" rx="3.77" ry="4.33" transform="translate(-70.8 170.63) rotate(-37.86)" fill="#fff"/></g></svg>
