<?xml version="1.0" encoding="UTF-8"?>
<!DOCTYPE svg PUBLIC "-//W3C//DTD SVG 1.1//EN" "http://www.w3.org/Graphics/SVG/1.1/DTD/svg11.dtd">
<svg xmlns="http://www.w3.org/2000/svg" version="1.1" width="260px" height="260px" style="shape-rendering:geometricPrecision; text-rendering:geometricPrecision; image-rendering:optimizeQuality; fill-rule:evenodd; clip-rule:evenodd" xmlns:xlink="http://www.w3.org/1999/xlink">
<g><path style="opacity:0.289" fill="#51392a" d="M 152.5,0.5 C 147.71,1.7249 142.71,2.39156 137.5,2.5C 137.167,2.5 136.833,2.5 136.5,2.5C 141.598,1.04269 146.931,0.376027 152.5,0.5 Z"/></g>
<g><path style="opacity:0.392" fill="#8e644d" d="M 215.5,2.5 C 218.495,2.29379 221.162,2.96046 223.5,4.5C 220.572,4.43487 217.905,3.7682 215.5,2.5 Z"/></g>
<g><path style="opacity:1" fill="#ef827e" d="M 136.5,2.5 C 136.833,2.5 137.167,2.5 137.5,2.5C 137.586,3.4959 137.252,4.32924 136.5,5C 126.097,13.1862 115.764,21.3529 105.5,29.5C 102.883,30.7859 100.55,32.4525 98.5,34.5C 97.0783,34.7086 95.745,35.2086 94.5,36C 89.6268,40.3781 84.6268,44.5448 79.5,48.5C 80.3891,46.264 81.7224,44.264 83.5,42.5C 83.0431,41.7025 82.3764,41.3691 81.5,41.5C 98.906,31.7708 114.573,19.6042 128.5,5C 126.249,5.20681 123.915,5.37348 121.5,5.5C 126.23,3.76321 131.23,2.76321 136.5,2.5 Z"/></g>
<g><path style="opacity:0.985" fill="#fbac87" d="M 81.5,41.5 C 80.4168,41.5394 79.4168,41.8728 78.5,42.5C 77.4173,41.635 77.2506,40.635 78,39.5C 80.4707,34.1816 83.6374,29.5149 87.5,25.5C 86.7659,26.7079 86.4326,28.0413 86.5,29.5C 96.8419,26.4988 104.509,20.1655 109.5,10.5C 109.376,9.89333 109.043,9.55999 108.5,9.5C 108.5,9.16667 108.5,8.83333 108.5,8.5C 112.564,6.86162 116.897,5.86162 121.5,5.5C 123.915,5.37348 126.249,5.20681 128.5,5C 114.573,19.6042 98.906,31.7708 81.5,41.5 Z"/></g>
<g><path style="opacity:0.078" fill="#35271d" d="M 231.5,6.5 C 234.089,6.46095 236.089,7.46095 237.5,9.5C 235.181,9.00751 233.181,8.00751 231.5,6.5 Z"/></g>
<g><path style="opacity:1" fill="#fff8f4" d="M 108.5,9.5 C 109.043,9.55999 109.376,9.89333 109.5,10.5C 104.509,20.1655 96.8419,26.4988 86.5,29.5C 86.4326,28.0413 86.7659,26.7079 87.5,25.5C 88.7007,23.0905 90.3674,21.0905 92.5,19.5C 97.5879,15.7397 102.921,12.4063 108.5,9.5 Z"/></g>
<g><path style="opacity:0.999" fill="#eb7d7c" d="M 237.5,9.5 C 243.036,11.0399 247.036,14.3732 249.5,19.5C 247.22,25.6261 243.22,30.4595 237.5,34C 223.805,39.0896 209.805,42.9229 195.5,45.5C 191.167,44.8333 186.833,44.1667 182.5,43.5C 199.403,43.8539 215.403,40.5205 230.5,33.5C 242.162,28.0894 244.496,20.0894 237.5,9.5 Z"/></g>
<g><path style="opacity:1" fill="#fbaa86" d="M 152.5,-0.5 C 169.5,-0.5 186.5,-0.5 203.5,-0.5C 207.539,0.315794 211.539,1.31579 215.5,2.5C 217.905,3.7682 220.572,4.43487 223.5,4.5C 226.221,4.96283 228.888,5.6295 231.5,6.5C 233.181,8.00751 235.181,9.00751 237.5,9.5C 244.496,20.0894 242.162,28.0894 230.5,33.5C 226.681,33.414 223.015,34.0807 219.5,35.5C 220.765,30.474 224.099,27.974 229.5,28C 232.287,25.8328 233.12,22.9994 232,19.5C 230.012,16.1618 227.679,15.8285 225,18.5C 224.794,21.6229 224.127,24.6229 223,27.5C 220,29.5 217,31.5 214,33.5C 213.833,33.8333 213.667,34.1667 213.5,34.5C 215.045,35.4519 216.712,35.7852 218.5,35.5C 206.34,36.6599 194.007,36.8265 181.5,36C 173.976,32.8961 166.309,30.3961 158.5,28.5C 154.965,24.7765 153.131,20.4431 153,15.5C 164.641,6.62993 177.808,3.12993 192.5,5C 198.931,6.08714 204.931,8.25381 210.5,11.5C 212.671,17.3921 213.004,23.3921 211.5,29.5C 201.401,30.995 191.401,30.495 181.5,28C 177.793,27.0642 174.626,25.2308 172,22.5C 170.824,18.7399 171.99,15.9066 175.5,14C 183.282,13.3555 190.948,13.8555 198.5,15.5C 199.748,17.6491 201.248,19.6491 203,21.5C 203.026,17.8917 203.859,14.5583 205.5,11.5C 205.167,11.1667 204.833,10.8333 204.5,10.5C 203.378,11.6302 202.044,12.2969 200.5,12.5C 191.183,11.5564 181.849,11.3897 172.5,12C 168.462,17.1327 168.795,22.1327 173.5,27C 185.21,32.4523 197.543,34.7857 210.5,34C 212.333,33.5 213.5,32.3333 214,30.5C 215.517,24.9198 215.851,19.2531 215,13.5C 211.72,9.26463 207.553,6.09796 202.5,4C 182.671,-1.04851 164.838,2.78483 149,15.5C 148.926,20.7052 150.593,25.3719 154,29.5C 158.574,36.0271 164.407,41.0271 171.5,44.5C 168.647,45.9544 165.647,46.9544 162.5,47.5C 158.388,43.7379 153.722,40.7379 148.5,38.5C 148.167,38.8333 147.833,39.1667 147.5,39.5C 149.785,43.7353 151.785,48.0686 153.5,52.5C 158.585,61.729 157.252,69.729 149.5,76.5C 149.629,74.7839 149.962,73.1172 150.5,71.5C 152.384,68.0993 152.884,64.4326 152,60.5C 149.067,48.2634 142.9,38.0967 133.5,30C 120.487,32.1694 110.153,38.6694 102.5,49.5C 103.246,50.7362 103.579,52.0695 103.5,53.5C 100.492,53.7009 97.4922,54.0343 94.5,54.5C 92.6672,54.5854 91.3339,55.2521 90.5,56.5C 89.1701,53.5603 89.3367,50.5603 91,47.5C 93.9011,43.975 97.4011,41.3083 101.5,39.5C 104.216,39.3215 106.883,38.8215 109.5,38C 114.167,34 118.833,30 123.5,26C 121.115,25.4436 118.782,25.6103 116.5,26.5C 112.777,27.2967 109.11,28.2967 105.5,29.5C 115.764,21.3529 126.097,13.1862 136.5,5C 137.252,4.32924 137.586,3.4959 137.5,2.5C 142.71,2.39156 147.71,1.7249 152.5,0.5C 152.5,0.166667 152.5,-0.166667 152.5,-0.5 Z"/></g>
<g><path style="opacity:1" fill="#ffc6a6" d="M 146.5,2.5 C 159.294,1.38768 160.294,3.55435 149.5,9C 144.488,8.83754 140.821,11.0042 138.5,15.5C 137.276,13.1022 137.442,10.7689 139,8.5C 141.478,6.36056 143.978,4.36056 146.5,2.5 Z"/></g>
<g><path style="opacity:1" fill="#ffc3a7" d="M 219.5,35.5 C 219.167,35.5 218.833,35.5 218.5,35.5C 216.712,35.7852 215.045,35.4519 213.5,34.5C 213.667,34.1667 213.833,33.8333 214,33.5C 217,31.5 220,29.5 223,27.5C 224.127,24.6229 224.794,21.6229 225,18.5C 227.679,15.8285 230.012,16.1618 232,19.5C 233.12,22.9994 232.287,25.8328 229.5,28C 224.099,27.974 220.765,30.474 219.5,35.5 Z"/></g>
<g><path style="opacity:0.278" fill="#52362c" d="M 83.5,21.5 C 83.0269,22.9063 82.0269,23.573 80.5,23.5C 80.9731,22.0937 81.9731,21.427 83.5,21.5 Z"/></g>
<g><path style="opacity:1" fill="#f58581" d="M 200.5,12.5 C 199.833,13.5 199.167,14.5 198.5,15.5C 190.948,13.8555 183.282,13.3555 175.5,14C 171.99,15.9066 170.824,18.7399 172,22.5C 174.626,25.2308 177.793,27.0642 181.5,28C 191.401,30.495 201.401,30.995 211.5,29.5C 213.004,23.3921 212.671,17.3921 210.5,11.5C 204.931,8.25381 198.931,6.08714 192.5,5C 177.808,3.12993 164.641,6.62993 153,15.5C 153.131,20.4431 154.965,24.7765 158.5,28.5C 160.167,30.5 161.833,32.5 163.5,34.5C 163.281,35.675 163.614,36.675 164.5,37.5C 167.239,39.8508 169.905,42.1841 172.5,44.5C 172.167,44.5 171.833,44.5 171.5,44.5C 164.407,41.0271 158.574,36.0271 154,29.5C 150.593,25.3719 148.926,20.7052 149,15.5C 164.838,2.78483 182.671,-1.04851 202.5,4C 207.553,6.09796 211.72,9.26463 215,13.5C 215.851,19.2531 215.517,24.9198 214,30.5C 213.5,32.3333 212.333,33.5 210.5,34C 197.543,34.7857 185.21,32.4523 173.5,27C 168.795,22.1327 168.462,17.1327 172.5,12C 181.849,11.3897 191.183,11.5564 200.5,12.5 Z"/></g>
<g><path style="opacity:1" fill="#fff5f0" d="M 182.5,16.5 C 186.182,16.3347 189.848,16.5014 193.5,17C 197.822,18.1915 198.155,19.5248 194.5,21C 189.196,22.0662 184.196,21.3995 179.5,19C 180.571,18.1482 181.571,17.3149 182.5,16.5 Z"/></g>
<g><path style="opacity:1" fill="#d66574" d="M 198.5,15.5 C 199.167,14.5 199.833,13.5 200.5,12.5C 202.044,12.2969 203.378,11.6302 204.5,10.5C 204.833,10.8333 205.167,11.1667 205.5,11.5C 203.859,14.5583 203.026,17.8917 203,21.5C 201.248,19.6491 199.748,17.6491 198.5,15.5 Z"/></g>
<g><path style="opacity:1" fill="#fff9f6" d="M 116.5,26.5 C 113.023,32.6469 108.023,36.9803 101.5,39.5C 99.2646,39.7947 97.2646,39.4614 95.5,38.5C 96.5,37.1667 97.5,35.8333 98.5,34.5C 100.55,32.4525 102.883,30.7859 105.5,29.5C 109.11,28.2967 112.777,27.2967 116.5,26.5 Z"/></g>
<g><path style="opacity:1" fill="#f28080" d="M 150.5,71.5 C 143.041,82.7358 133.041,90.9025 120.5,96C 116.775,95.9895 113.108,95.3228 109.5,94C 103.096,91.3717 96.7623,88.8717 90.5,86.5C 91.525,86.1034 91.6917,85.4368 91,84.5C 88.2386,81.286 85.7386,77.9527 83.5,74.5C 85.8333,76.5 88.1667,78.5 90.5,80.5C 97.363,85.8675 105.03,90.0342 113.5,93C 128.432,91.6907 139.098,84.1907 145.5,70.5C 147.854,56.1434 143.52,43.9768 132.5,34C 122.292,34.52 113.792,38.6866 107,46.5C 106.679,57.3621 110.846,66.1954 119.5,73C 125.306,73.0103 129.806,70.5103 133,65.5C 133.969,59.9287 132.469,55.0954 128.5,51C 125.407,50.9303 122.407,51.2636 119.5,52C 122.98,49.3542 126.314,46.5209 129.5,43.5C 131.42,50.5002 133.754,57.3336 136.5,64C 135.784,67.7406 133.784,70.7406 130.5,73C 127.5,74.8333 124.5,76.6667 121.5,78.5C 112.331,72.5129 106.331,64.1796 103.5,53.5C 103.579,52.0695 103.246,50.7362 102.5,49.5C 110.153,38.6694 120.487,32.1694 133.5,30C 142.9,38.0967 149.067,48.2634 152,60.5C 152.884,64.4326 152.384,68.0993 150.5,71.5 Z"/></g>
<g><path style="opacity:1" fill="#f48481" d="M 92.5,19.5 C 90.3674,21.0905 88.7007,23.0905 87.5,25.5C 83.6374,29.5149 80.4707,34.1816 78,39.5C 77.2506,40.635 77.4173,41.635 78.5,42.5C 79.4168,41.8728 80.4168,41.5394 81.5,41.5C 79.5994,43.7957 77.2661,45.629 74.5,47C 72.9751,48.0086 71.3084,48.5086 69.5,48.5C 74.6252,36.5767 81.9585,26.2434 91.5,17.5C 92.2975,17.9569 92.6309,18.6236 92.5,19.5 Z"/></g>
<g><path style="opacity:1" fill="#ffc7ab" d="M 101.5,39.5 C 108.023,36.9803 113.023,32.6469 116.5,26.5C 118.782,25.6103 121.115,25.4436 123.5,26C 118.833,30 114.167,34 109.5,38C 106.883,38.8215 104.216,39.3215 101.5,39.5 Z"/></g>
<g><path style="opacity:1" fill="#f99b7e" d="M 158.5,28.5 C 166.309,30.3961 173.976,32.8961 181.5,36C 194.007,36.8265 206.34,36.6599 218.5,35.5C 218.833,35.5 219.167,35.5 219.5,35.5C 223.015,34.0807 226.681,33.414 230.5,33.5C 215.403,40.5205 199.403,43.8539 182.5,43.5C 175.089,42.7518 168.756,39.7518 163.5,34.5C 161.833,32.5 160.167,30.5 158.5,28.5 Z"/></g>
<g><path style="opacity:0.998" fill="#fca487" d="M 249.5,19.5 C 250.79,20.0577 251.623,21.0577 252,22.5C 253.759,26.0087 254.926,29.6754 255.5,33.5C 255.41,36.1522 256.076,38.4855 257.5,40.5C 258.461,42.2646 258.795,44.2646 258.5,46.5C 258.649,47.552 258.483,48.552 258,49.5C 250.957,47.779 243.791,47.279 236.5,48C 235.069,48.4652 233.903,49.2986 233,50.5C 231.703,59.1144 231.203,67.7811 231.5,76.5C 231.082,77.2216 230.416,77.7216 229.5,78C 226.854,78.4974 224.187,78.6641 221.5,78.5C 221.737,77.209 221.404,76.209 220.5,75.5C 220.487,70.7405 219.82,66.0738 218.5,61.5C 208.706,57.5146 198.706,56.5146 188.5,58.5C 183.574,58.8057 179.241,60.4724 175.5,63.5C 172.484,66.5203 169.817,69.8536 167.5,73.5C 164.167,73.5 160.833,73.5 157.5,73.5C 157.209,68.0443 158.542,63.0443 161.5,58.5C 163.607,55.0612 163.941,51.3946 162.5,47.5C 165.647,46.9544 168.647,45.9544 171.5,44.5C 171.833,44.5 172.167,44.5 172.5,44.5C 179.985,46.7852 187.652,47.1185 195.5,45.5C 209.805,42.9229 223.805,39.0896 237.5,34C 243.22,30.4595 247.22,25.6261 249.5,19.5 Z"/></g>
<g><path style="opacity:1" fill="#ffbfa5" d="M 235.5,41.5 C 234.432,40.5655 233.099,40.2322 231.5,40.5C 236.495,39.989 241.495,38.989 246.5,37.5C 248.48,35.2052 249.647,32.5385 250,29.5C 255.445,43.052 251.445,46.7186 238,40.5C 237.098,40.7432 236.265,41.0766 235.5,41.5 Z"/></g>
<g><path style="opacity:0.986" fill="#eca081" d="M 108.5,8.5 C 108.5,8.83333 108.5,9.16667 108.5,9.5C 102.921,12.4063 97.5879,15.7397 92.5,19.5C 92.6309,18.6236 92.2975,17.9569 91.5,17.5C 81.9585,26.2434 74.6252,36.5767 69.5,48.5C 62.5679,52.3962 58.9012,50.3962 58.5,42.5C 65.2179,35.4484 72.5513,29.115 80.5,23.5C 82.0269,23.573 83.0269,22.9063 83.5,21.5C 90.8576,15.4778 99.191,11.1445 108.5,8.5 Z"/></g>
<g><path style="opacity:1" fill="#fff4f0" d="M 74.5,30.5 C 75.0967,30.7352 75.4301,31.2352 75.5,32C 73,37.1667 69.1667,41 64,43.5C 63.5,43.1667 63,42.8333 62.5,42.5C 66.2665,38.0668 70.2665,34.0668 74.5,30.5 Z"/></g>
<g><path style="opacity:1" fill="#fffaf9" d="M 162.5,47.5 C 163.941,51.3946 163.607,55.0612 161.5,58.5C 158.569,56.9092 155.902,54.9092 153.5,52.5C 151.785,48.0686 149.785,43.7353 147.5,39.5C 147.833,39.1667 148.167,38.8333 148.5,38.5C 153.722,40.7379 158.388,43.7379 162.5,47.5 Z"/></g>
<g><path style="opacity:0.278" fill="#5f4031" d="M 255.5,33.5 C 256.924,35.5145 257.59,37.8478 257.5,40.5C 256.076,38.4855 255.41,36.1522 255.5,33.5 Z"/></g>
<g><path style="opacity:1" fill="#fff7f4" d="M 231.5,40.5 C 233.099,40.2322 234.432,40.5655 235.5,41.5C 231.81,50.5923 225.476,52.9256 216.5,48.5C 220.554,44.1244 225.554,41.4578 231.5,40.5 Z"/></g>
<g><path style="opacity:1" fill="#d35e72" d="M 163.5,34.5 C 168.756,39.7518 175.089,42.7518 182.5,43.5C 186.833,44.1667 191.167,44.8333 195.5,45.5C 187.652,47.1185 179.985,46.7852 172.5,44.5C 169.905,42.1841 167.239,39.8508 164.5,37.5C 163.614,36.675 163.281,35.675 163.5,34.5 Z"/></g>
<g><path style="opacity:1" fill="#d56473" d="M 81.5,41.5 C 82.3764,41.3691 83.0431,41.7025 83.5,42.5C 81.7224,44.264 80.3891,46.264 79.5,48.5C 78.5,50.1667 77.1667,51.5 75.5,52.5C 74.4062,53.5817 73.0729,54.2483 71.5,54.5C 68.3462,52.9741 65.0128,52.3075 61.5,52.5C 58.9438,51.4566 56.7772,49.7899 55,47.5C 54.3292,48.2524 53.4959,48.5858 52.5,48.5C 54.1667,46.1667 56.1667,44.1667 58.5,42.5C 58.9012,50.3962 62.5679,52.3962 69.5,48.5C 71.3084,48.5086 72.9751,48.0086 74.5,47C 77.2661,45.629 79.5994,43.7957 81.5,41.5 Z"/></g>
<g><path style="opacity:1" fill="#e67d7a" d="M 258.5,46.5 C 258.833,46.5 259.167,46.5 259.5,46.5C 259.5,49.1667 259.5,51.8333 259.5,54.5C 253.048,50.6383 246.048,49.1383 238.5,50C 235.312,51.9344 233.812,54.7677 234,58.5C 233.501,64.1569 233.334,69.8236 233.5,75.5C 232.833,75.5 232.5,75.8333 232.5,76.5C 232.167,76.5 231.833,76.5 231.5,76.5C 231.203,67.7811 231.703,59.1144 233,50.5C 233.903,49.2986 235.069,48.4652 236.5,48C 243.791,47.279 250.957,47.779 258,49.5C 258.483,48.552 258.649,47.552 258.5,46.5 Z"/></g>
<g><path style="opacity:0.99" fill="#fea187" d="M 259.5,54.5 C 259.5,63.1667 259.5,71.8333 259.5,80.5C 258.837,78.9581 258.17,77.2914 257.5,75.5C 254.009,77.0942 250.342,77.7609 246.5,77.5C 246.392,73.753 246.892,70.0863 248,66.5C 252.662,65.1633 255.995,66.83 258,71.5C 259.282,66.6997 257.449,63.8664 252.5,63C 250.833,62.3333 249.167,62.3333 247.5,63C 245.812,67.3012 244.812,71.8012 244.5,76.5C 241.167,76.1667 237.833,75.8333 234.5,75.5C 234.167,75.5 233.833,75.5 233.5,75.5C 233.334,69.8236 233.501,64.1569 234,58.5C 233.812,54.7677 235.312,51.9344 238.5,50C 246.048,49.1383 253.048,50.6383 259.5,54.5 Z"/></g>
<g><path style="opacity:1" fill="#ffbea7" d="M 183.5,49.5 C 187.048,49.0949 190.381,49.5949 193.5,51C 188.631,55.9824 183.298,56.649 177.5,53C 179.432,51.5415 181.432,50.3748 183.5,49.5 Z"/></g>
<g><path style="opacity:1" fill="#fea487" d="M 145.5,70.5 C 141.709,73.1181 138.043,75.9514 134.5,79C 130.147,81.3667 125.813,83.7001 121.5,86C 116.833,86.6667 112.167,86.6667 107.5,86C 101.981,83.66 96.3139,81.8267 90.5,80.5C 88.1667,78.5 85.8333,76.5 83.5,74.5C 82.2003,71.5677 80.2003,69.2344 77.5,67.5C 76.0974,62.6133 75.4307,57.6133 75.5,52.5C 77.1667,51.5 78.5,50.1667 79.5,48.5C 84.6268,44.5448 89.6268,40.3781 94.5,36C 95.745,35.2086 97.0783,34.7086 98.5,34.5C 97.5,35.8333 96.5,37.1667 95.5,38.5C 92.264,43.2775 88.764,47.9441 85,52.5C 81.1745,58.7058 82.0078,64.2058 87.5,69C 90.6422,71.9044 94.3089,73.7378 98.5,74.5C 98.6621,72.4727 98.4955,70.4727 98,68.5C 96.0401,64.0658 93.5401,60.0658 90.5,56.5C 91.3339,55.2521 92.6672,54.5854 94.5,54.5C 97.4922,54.0343 100.492,53.7009 103.5,53.5C 106.331,64.1796 112.331,72.5129 121.5,78.5C 124.5,76.6667 127.5,74.8333 130.5,73C 133.784,70.7406 135.784,67.7406 136.5,64C 133.754,57.3336 131.42,50.5002 129.5,43.5C 126.314,46.5209 122.98,49.3542 119.5,52C 122.407,51.2636 125.407,50.9303 128.5,51C 132.469,55.0954 133.969,59.9287 133,65.5C 129.806,70.5103 125.306,73.0103 119.5,73C 110.846,66.1954 106.679,57.3621 107,46.5C 113.792,38.6866 122.292,34.52 132.5,34C 143.52,43.9768 147.854,56.1434 145.5,70.5 Z"/></g>
<g><path style="opacity:1" fill="#ffc0a8" d="M 95.5,38.5 C 97.2646,39.4614 99.2646,39.7947 101.5,39.5C 97.4011,41.3083 93.9011,43.975 91,47.5C 89.3367,50.5603 89.1701,53.5603 90.5,56.5C 93.5401,60.0658 96.0401,64.0658 98,68.5C 98.4955,70.4727 98.6621,72.4727 98.5,74.5C 94.3089,73.7378 90.6422,71.9044 87.5,69C 82.0078,64.2058 81.1745,58.7058 85,52.5C 88.764,47.9441 92.264,43.2775 95.5,38.5 Z"/></g>
<g><path style="opacity:0.988" fill="#fca587" d="M 61.5,52.5 C 63.949,53.7908 66.6156,54.7908 69.5,55.5C 70.7821,64.4739 71.7821,73.4739 72.5,82.5C 71.791,83.404 70.791,83.7373 69.5,83.5C 68.1817,77.042 66.3483,70.7087 64,64.5C 60.8584,62.0522 57.6917,62.2189 54.5,65C 48.1521,69.489 45.4855,75.6557 46.5,83.5C 45.7924,85.3779 44.6257,87.0445 43,88.5C 42.8019,86.6183 42.3019,84.9516 41.5,83.5C 41.0617,75.3719 41.7284,67.3719 43.5,59.5C 46.1518,55.5181 49.1518,51.8514 52.5,48.5C 53.4959,48.5858 54.3292,48.2524 55,47.5C 56.7772,49.7899 58.9438,51.4566 61.5,52.5 Z"/></g>
<g><path style="opacity:1" fill="#fff7f4" d="M 54.5,55.5 C 55.8734,55.3433 57.2068,55.51 58.5,56C 55.915,61.1218 51.915,63.2885 46.5,62.5C 48.6184,59.3711 51.2851,57.0378 54.5,55.5 Z"/></g>
<g><path style="opacity:1" fill="#d35f72" d="M 188.5,58.5 C 194.842,58.3338 201.175,58.5005 207.5,59C 204.621,59.546 201.954,60.3794 199.5,61.5C 192.401,62.3585 185.401,63.6918 178.5,65.5C 176.821,65.7148 175.821,65.0481 175.5,63.5C 179.241,60.4724 183.574,58.8057 188.5,58.5 Z"/></g>
<g><path style="opacity:1" fill="#f28180" d="M 61.5,52.5 C 65.0128,52.3075 68.3462,52.9741 71.5,54.5C 73.0729,54.2483 74.4062,53.5817 75.5,52.5C 75.4307,57.6133 76.0974,62.6133 77.5,67.5C 76.5416,67.0472 75.7083,66.3805 75,65.5C 74.8333,69.1667 74.6667,72.8333 74.5,76.5C 74.5112,80.5652 75.1778,84.2319 76.5,87.5C 76.992,98.5114 74.492,108.845 69,118.5C 65.5288,122.324 62.1955,121.991 59,117.5C 54.1727,111.337 50.1727,104.671 47,97.5C 46.5008,92.8452 46.3342,88.1785 46.5,83.5C 45.4855,75.6557 48.1521,69.489 54.5,65C 57.6917,62.2189 60.8584,62.0522 64,64.5C 66.3483,70.7087 68.1817,77.042 69.5,83.5C 71.7332,91.7469 68.7332,95.5802 60.5,95C 58.3375,91.6715 55.6709,88.8381 52.5,86.5C 55.458,84.0443 58.2913,81.3777 61,78.5C 60.5203,81.1645 59.687,83.8312 58.5,86.5C 58.7557,93.9239 61.5891,95.2573 67,90.5C 67.7598,81.9371 65.9264,73.9371 61.5,66.5C 59.9255,65.3691 58.2588,65.2025 56.5,66C 53.598,68.2398 51.4313,71.0731 50,74.5C 46.6668,89.7009 49.8335,103.201 59.5,115C 61.9141,116.885 64.5808,117.552 67.5,117C 72.0092,108.975 74.0092,100.308 73.5,91C 73.4978,87.9792 73.1644,85.1459 72.5,82.5C 71.7821,73.4739 70.7821,64.4739 69.5,55.5C 66.6156,54.7908 63.949,53.7908 61.5,52.5 Z"/></g>
<g><path style="opacity:1" fill="#ee7b7d" d="M 246.5,77.5 C 246.253,80.505 247.253,83.005 249.5,85C 247.866,85.4935 246.199,85.6602 244.5,85.5C 244.5,82.5 244.5,79.5 244.5,76.5C 244.812,71.8012 245.812,67.3012 247.5,63C 249.167,62.3333 250.833,62.3333 252.5,63C 257.449,63.8664 259.282,66.6997 258,71.5C 255.995,66.83 252.662,65.1633 248,66.5C 246.892,70.0863 246.392,73.753 246.5,77.5 Z"/></g>
<g><path style="opacity:1" fill="#d15c71" d="M 77.5,67.5 C 80.2003,69.2344 82.2003,71.5677 83.5,74.5C 85.7386,77.9527 88.2386,81.286 91,84.5C 91.6917,85.4368 91.525,86.1034 90.5,86.5C 88.597,86.2041 86.9303,85.5375 85.5,84.5C 83.1098,82.9802 80.4432,81.9802 77.5,81.5C 77.3713,83.2161 77.038,84.8828 76.5,86.5C 76.5,86.8333 76.5,87.1667 76.5,87.5C 75.1778,84.2319 74.5112,80.5652 74.5,76.5C 74.6667,72.8333 74.8333,69.1667 75,65.5C 75.7083,66.3805 76.5416,67.0472 77.5,67.5 Z"/></g>
<g><path style="opacity:1" fill="#fea088" d="M 199.5,61.5 C 203.877,61.5775 208.21,62.0775 212.5,63C 216.289,68.6091 217.789,74.7758 217,81.5C 214.31,82.9292 211.477,83.9292 208.5,84.5C 208.664,81.8127 208.497,79.146 208,76.5C 206.991,75.3418 205.658,74.6752 204,74.5C 195.532,75.4785 188.699,79.1451 183.5,85.5C 177.984,84.742 173.317,82.4086 169.5,78.5C 172.11,73.8911 175.11,69.5578 178.5,65.5C 185.401,63.6918 192.401,62.3585 199.5,61.5 Z"/></g>
<g><path style="opacity:1" fill="#ffbca6" d="M 193.5,64.5 C 196.833,64.5 200.167,64.5 203.5,64.5C 202.007,68.8448 198.84,70.8448 194,70.5C 186.991,69.4516 186.824,67.4516 193.5,64.5 Z"/></g>
<g><path style="opacity:1" fill="#ffbca8" d="M 153.5,52.5 C 155.902,54.9092 158.569,56.9092 161.5,58.5C 158.542,63.0443 157.209,68.0443 157.5,73.5C 157.139,78.2225 155.639,82.5558 153,86.5C 150.815,88.5402 148.315,89.8736 145.5,90.5C 145.337,88.1432 145.503,85.8098 146,83.5C 147.705,81.4234 148.872,79.09 149.5,76.5C 157.252,69.729 158.585,61.729 153.5,52.5 Z"/></g>
<g><path style="opacity:1" fill="#fe9d88" d="M 150.5,71.5 C 149.962,73.1172 149.629,74.7839 149.5,76.5C 148.872,79.09 147.705,81.4234 146,83.5C 145.503,85.8098 145.337,88.1432 145.5,90.5C 148.315,89.8736 150.815,88.5402 153,86.5C 155.639,82.5558 157.139,78.2225 157.5,73.5C 160.833,73.5 164.167,73.5 167.5,73.5C 163.371,80.9253 159.371,88.4253 155.5,96C 148.575,96.0066 141.908,96.8399 135.5,98.5C 117.397,95.7267 104.397,102.393 96.5,118.5C 92.2661,112.018 88.7661,105.018 86,97.5C 84.3616,93.2785 83.1949,88.9451 82.5,84.5C 83.5,84.5 84.5,84.5 85.5,84.5C 86.9303,85.5375 88.597,86.2041 90.5,86.5C 96.7623,88.8717 103.096,91.3717 109.5,94C 113.108,95.3228 116.775,95.9895 120.5,96C 133.041,90.9025 143.041,82.7358 150.5,71.5 Z"/></g>
<g><path style="opacity:0.145" fill="#996151" d="M 43.5,59.5 C 41.7284,67.3719 41.0617,75.3719 41.5,83.5C 40.3467,77.3471 40.18,71.0137 41,64.5C 41.0995,62.3474 41.9328,60.6808 43.5,59.5 Z"/></g>
<g><path style="opacity:1" fill="#f78975" d="M 234.5,75.5 C 237.833,75.8333 241.167,76.1667 244.5,76.5C 244.5,79.5 244.5,82.5 244.5,85.5C 246.199,85.6602 247.866,85.4935 249.5,85C 247.253,83.005 246.253,80.505 246.5,77.5C 250.342,77.7609 254.009,77.0942 257.5,75.5C 258.17,77.2914 258.837,78.9581 259.5,80.5C 259.5,83.8333 259.5,87.1667 259.5,90.5C 259.167,90.5 258.833,90.5 258.5,90.5C 255.519,94.8393 251.519,98.006 246.5,100C 244.5,100.667 242.5,100.667 240.5,100C 235.453,92.6445 233.453,84.4778 234.5,75.5 Z"/></g>
<g><path style="opacity:1" fill="#ffbba6" d="M 105.5,79.5 C 110.692,78.5342 115.026,79.8675 118.5,83.5C 118.291,84.086 117.957,84.586 117.5,85C 112.447,86.3322 108.114,85.1655 104.5,81.5C 104.863,80.8165 105.196,80.1499 105.5,79.5 Z"/></g>
<g><path style="opacity:1" fill="#f48081" d="M 85.5,84.5 C 84.5,84.5 83.5,84.5 82.5,84.5C 83.1949,88.9451 84.3616,93.2785 86,97.5C 88.7661,105.018 92.2661,112.018 96.5,118.5C 95.5637,119.974 94.2303,120.974 92.5,121.5C 87.4198,109.676 82.0865,98.0092 76.5,86.5C 77.038,84.8828 77.3713,83.2161 77.5,81.5C 80.4432,81.9802 83.1098,82.9802 85.5,84.5 Z"/></g>
<g><path style="opacity:1" fill="#fd9d86" d="M 69.5,83.5 C 70.791,83.7373 71.791,83.404 72.5,82.5C 73.1644,85.1459 73.4978,87.9792 73.5,91C 74.0092,100.308 72.0092,108.975 67.5,117C 64.5808,117.552 61.9141,116.885 59.5,115C 49.8335,103.201 46.6668,89.7009 50,74.5C 51.4313,71.0731 53.598,68.2398 56.5,66C 58.2588,65.2025 59.9255,65.3691 61.5,66.5C 65.9264,73.9371 67.7598,81.9371 67,90.5C 61.5891,95.2573 58.7557,93.9239 58.5,86.5C 59.687,83.8312 60.5203,81.1645 61,78.5C 58.2913,81.3777 55.458,84.0443 52.5,86.5C 55.6709,88.8381 58.3375,91.6715 60.5,95C 68.7332,95.5802 71.7332,91.7469 69.5,83.5 Z"/></g>
<g><path style="opacity:1" fill="#f8917c" d="M 145.5,70.5 C 139.098,84.1907 128.432,91.6907 113.5,93C 105.03,90.0342 97.363,85.8675 90.5,80.5C 96.3139,81.8267 101.981,83.66 107.5,86C 112.167,86.6667 116.833,86.6667 121.5,86C 125.813,83.7001 130.147,81.3667 134.5,79C 138.043,75.9514 141.709,73.1181 145.5,70.5 Z"/></g>
<g><path style="opacity:1" fill="#e86e6c" d="M 233.5,75.5 C 233.833,75.5 234.167,75.5 234.5,75.5C 233.453,84.4778 235.453,92.6445 240.5,100C 242.5,100.667 244.5,100.667 246.5,100C 251.519,98.006 255.519,94.8393 258.5,90.5C 258.802,93.0593 258.468,95.3926 257.5,97.5C 256.596,98.209 256.263,99.209 256.5,100.5C 252.268,101.266 248.102,102.266 244,103.5C 241.747,103.369 239.581,102.869 237.5,102C 233.221,94.0443 231.554,85.5443 232.5,76.5C 232.5,75.8333 232.833,75.5 233.5,75.5 Z"/></g>
<g><path style="opacity:1" fill="#fa8876" d="M 169.5,78.5 C 173.317,82.4086 177.984,84.742 183.5,85.5C 181.664,94.0259 180.997,102.693 181.5,111.5C 172.862,112.34 164.195,112.673 155.5,112.5C 155.802,115.059 155.468,117.393 154.5,119.5C 154.5,116.833 154.5,114.167 154.5,111.5C 154.326,109.139 153.993,106.806 153.5,104.5C 155.144,104.714 156.644,104.38 158,103.5C 160.799,94.5769 164.632,86.2436 169.5,78.5 Z"/></g>
<g><path style="opacity:1" fill="#ffb9a9" d="M 96.5,95.5 C 109.104,96.3252 109.437,99.3252 97.5,104.5C 95.1667,104.167 93.8333,102.833 93.5,100.5C 94.0924,98.5775 95.0924,96.9108 96.5,95.5 Z"/></g>
<g><path style="opacity:1" fill="#f17676" d="M 175.5,63.5 C 175.821,65.0481 176.821,65.7148 178.5,65.5C 175.11,69.5578 172.11,73.8911 169.5,78.5C 164.632,86.2436 160.799,94.5769 158,103.5C 156.644,104.38 155.144,104.714 153.5,104.5C 153.833,101.5 152.5,100.167 149.5,100.5C 148.833,100.5 148.167,100.5 147.5,100.5C 143.705,99.3833 139.705,98.7167 135.5,98.5C 141.908,96.8399 148.575,96.0066 155.5,96C 159.371,88.4253 163.371,80.9253 167.5,73.5C 169.817,69.8536 172.484,66.5203 175.5,63.5 Z"/></g>
<g><path style="opacity:1" fill="#fa8776" d="M 220.5,75.5 C 221.404,76.209 221.737,77.209 221.5,78.5C 224.187,78.6641 226.854,78.4974 229.5,78C 230.416,77.7216 231.082,77.2216 231.5,76.5C 231.833,76.5 232.167,76.5 232.5,76.5C 231.554,85.5443 233.221,94.0443 237.5,102C 239.581,102.869 241.747,103.369 244,103.5C 248.102,102.266 252.268,101.266 256.5,100.5C 255.781,102.764 255.448,105.097 255.5,107.5C 254.732,108.263 254.232,109.263 254,110.5C 243.423,108.537 232.59,107.87 221.5,108.5C 221.713,97.4733 221.38,86.4733 220.5,75.5 Z"/></g>
<g><path style="opacity:1" fill="#ce5a70" d="M 135.5,98.5 C 139.705,98.7167 143.705,99.3833 147.5,100.5C 131.566,99.8906 118.066,105.224 107,116.5C 105.906,118.078 105.072,119.745 104.5,121.5C 103.784,121.783 102.951,122.116 102,122.5C 101.187,124.436 100.687,126.436 100.5,128.5C 97.1667,128.5 93.8333,128.5 90.5,128.5C 89.609,127.89 88.609,127.557 87.5,127.5C 78.7091,128.634 72.0425,132.967 67.5,140.5C 67.5,139.167 67.5,137.833 67.5,136.5C 69.129,129.365 73.4623,124.531 80.5,122C 84.4862,121.501 88.4862,121.334 92.5,121.5C 94.2303,120.974 95.5637,119.974 96.5,118.5C 104.397,102.393 117.397,95.7267 135.5,98.5 Z"/></g>
<g><path style="opacity:1" fill="#5a3656" d="M 147.5,100.5 C 148.167,100.5 148.833,100.5 149.5,100.5C 141.244,102.82 132.91,105.32 124.5,108C 118.87,110.305 114.203,113.805 110.5,118.5C 108.517,119.471 106.517,120.471 104.5,121.5C 105.072,119.745 105.906,118.078 107,116.5C 118.066,105.224 131.566,99.8906 147.5,100.5 Z"/></g>
<g><path style="opacity:1" fill="#f57d73" d="M 188.5,58.5 C 198.706,56.5146 208.706,57.5146 218.5,61.5C 219.82,66.0738 220.487,70.7405 220.5,75.5C 221.38,86.4733 221.713,97.4733 221.5,108.5C 232.59,107.87 243.423,108.537 254,110.5C 254.232,109.263 254.732,108.263 255.5,107.5C 254.613,112.722 253.279,117.722 251.5,122.5C 250.069,123.78 249.402,125.447 249.5,127.5C 248.99,130.674 247.323,133.008 244.5,134.5C 243.85,134.196 243.183,133.863 242.5,133.5C 228.162,140.836 213.162,144.503 197.5,144.5C 199.04,138.546 200.373,132.546 201.5,126.5C 202.249,125.469 202.915,124.302 203.5,123C 208.788,121.358 213.455,118.691 217.5,115C 220.312,108.81 221.146,102.31 220,95.5C 220.367,107.958 214.534,115.624 202.5,118.5C 202.821,112.974 202.488,107.64 201.5,102.5C 201.155,99.8021 199.822,97.8021 197.5,96.5C 197.5,96.1667 197.5,95.8333 197.5,95.5C 200.833,95.5 204.167,95.5 207.5,95.5C 208.109,89.7666 206.776,84.6 203.5,80C 196.108,78.8093 190.274,81.3093 186,87.5C 184.684,90.6883 184.184,94.0217 184.5,97.5C 186.833,97.5 189.167,97.5 191.5,97.5C 189.774,101.009 188.441,104.675 187.5,108.5C 186.883,108.611 186.383,108.944 186,109.5C 184.615,104.239 183.615,98.9059 183,93.5C 182.333,100.5 182.333,107.5 183,114.5C 183.942,117.993 185.275,121.326 187,124.5C 188.356,125.38 189.856,125.714 191.5,125.5C 191.5,126.5 191.5,127.5 191.5,128.5C 182.833,128.5 174.167,128.5 165.5,128.5C 165.083,127.876 164.416,127.543 163.5,127.5C 161.149,128.173 158.816,128.84 156.5,129.5C 155.791,128.596 154.791,128.263 153.5,128.5C 153.704,125.482 154.037,122.482 154.5,119.5C 155.468,117.393 155.802,115.059 155.5,112.5C 164.195,112.673 172.862,112.34 181.5,111.5C 180.997,102.693 181.664,94.0259 183.5,85.5C 188.699,79.1451 195.532,75.4785 204,74.5C 205.658,74.6752 206.991,75.3418 208,76.5C 208.497,79.146 208.664,81.8127 208.5,84.5C 211.477,83.9292 214.31,82.9292 217,81.5C 217.789,74.7758 216.289,68.6091 212.5,63C 208.21,62.0775 203.877,61.5775 199.5,61.5C 201.954,60.3794 204.621,59.546 207.5,59C 201.175,58.5005 194.842,58.3338 188.5,58.5 Z"/></g>
<g><path style="opacity:1" fill="#220e20" d="M 197.5,95.5 C 197.5,95.8333 197.5,96.1667 197.5,96.5C 195.03,98.0817 193.53,100.415 193,103.5C 192.501,108.823 192.334,114.156 192.5,119.5C 190.61,119.703 189.11,119.037 188,117.5C 187.502,114.518 187.335,111.518 187.5,108.5C 188.441,104.675 189.774,101.009 191.5,97.5C 193.142,95.9192 195.142,95.2525 197.5,95.5 Z"/></g>
<g><path style="opacity:1" fill="#fc8f7b" d="M 197.5,95.5 C 195.142,95.2525 193.142,95.9192 191.5,97.5C 189.167,97.5 186.833,97.5 184.5,97.5C 184.184,94.0217 184.684,90.6883 186,87.5C 190.274,81.3093 196.108,78.8093 203.5,80C 206.776,84.6 208.109,89.7666 207.5,95.5C 204.167,95.5 200.833,95.5 197.5,95.5 Z"/></g>
<g><path style="opacity:0.18" fill="#623a36" d="M 257.5,97.5 C 257.678,101.122 257.011,104.456 255.5,107.5C 255.448,105.097 255.781,102.764 256.5,100.5C 256.263,99.209 256.596,98.209 257.5,97.5 Z"/></g>
<g><path style="opacity:1" fill="#fd9987" d="M 41.5,83.5 C 42.3019,84.9516 42.8019,86.6183 43,88.5C 44.6257,87.0445 45.7924,85.3779 46.5,83.5C 46.3342,88.1785 46.5008,92.8452 47,97.5C 50.1727,104.671 54.1727,111.337 59,117.5C 62.1955,121.991 65.5288,122.324 69,118.5C 74.492,108.845 76.992,98.5114 76.5,87.5C 76.5,87.1667 76.5,86.8333 76.5,86.5C 82.0865,98.0092 87.4198,109.676 92.5,121.5C 88.4862,121.334 84.4862,121.501 80.5,122C 73.4623,124.531 69.129,129.365 67.5,136.5C 63.4975,136.029 60.3308,134.029 58,130.5C 54.3037,124.656 50.4703,118.989 46.5,113.5C 46.5905,110.848 45.9238,108.515 44.5,106.5C 42.7398,98.9376 41.7398,91.271 41.5,83.5 Z"/></g>
<g><path style="opacity:1" fill="#ffb9a8" d="M 55.5,94.5 C 58.4123,96.0663 61.079,98.0663 63.5,100.5C 64.5,99.1667 65.5,97.8333 66.5,96.5C 68.137,109.265 64.9704,110.598 57,100.5C 55.872,98.6547 55.372,96.6547 55.5,94.5 Z"/></g>
<g><path style="opacity:1" fill="#d3a7b6" d="M 149.5,100.5 C 152.5,100.167 153.833,101.5 153.5,104.5C 153.993,106.806 154.326,109.139 154.5,111.5C 146.787,110.203 139.287,111.203 132,114.5C 130.97,114.836 130.47,115.503 130.5,116.5C 122.827,114.001 118.16,116.668 116.5,124.5C 116.886,126.932 117.553,129.266 118.5,131.5C 114.583,128.012 111.917,123.679 110.5,118.5C 114.203,113.805 118.87,110.305 124.5,108C 132.91,105.32 141.244,102.82 149.5,100.5 Z"/></g>
<g><path style="opacity:0.188" fill="#3a211b" d="M 44.5,106.5 C 45.9238,108.515 46.5905,110.848 46.5,113.5C 45.0762,111.485 44.4095,109.152 44.5,106.5 Z"/></g>
<g><path style="opacity:1" fill="#4c2b60" d="M 197.5,96.5 C 199.822,97.8021 201.155,99.8021 201.5,102.5C 201.374,111.509 201.041,120.509 200.5,129.5C 197.833,129.5 195.167,129.5 192.5,129.5C 192.5,128.167 192.5,126.833 192.5,125.5C 192.5,123.5 192.5,121.5 192.5,119.5C 192.334,114.156 192.501,108.823 193,103.5C 193.53,100.415 195.03,98.0817 197.5,96.5 Z"/></g>
<g><path style="opacity:1" fill="#3b1d41" d="M 130.5,116.5 C 133.552,117.777 134.885,120.11 134.5,123.5C 135.833,123.5 137.167,123.5 138.5,123.5C 139.905,129.611 137.905,133.945 132.5,136.5C 129.119,136.54 125.786,136.207 122.5,135.5C 121.5,133.833 120.167,132.5 118.5,131.5C 117.553,129.266 116.886,126.932 116.5,124.5C 118.16,116.668 122.827,114.001 130.5,116.5 Z"/></g>
<g><path style="opacity:1" fill="#e2666e" d="M 201.5,126.5 C 201.575,123.794 201.908,121.127 202.5,118.5C 214.534,115.624 220.367,107.958 220,95.5C 221.146,102.31 220.312,108.81 217.5,115C 213.455,118.691 208.788,121.358 203.5,123C 202.915,124.302 202.249,125.469 201.5,126.5 Z"/></g>
<g><path style="opacity:1" fill="#e76a6b" d="M 187.5,108.5 C 187.335,111.518 187.502,114.518 188,117.5C 189.11,119.037 190.61,119.703 192.5,119.5C 192.5,121.5 192.5,123.5 192.5,125.5C 192.167,125.5 191.833,125.5 191.5,125.5C 189.856,125.714 188.356,125.38 187,124.5C 185.275,121.326 183.942,117.993 183,114.5C 182.333,107.5 182.333,100.5 183,93.5C 183.615,98.9059 184.615,104.239 186,109.5C 186.383,108.944 186.883,108.611 187.5,108.5 Z"/></g>
<g><path style="opacity:1" fill="#f8e3e6" d="M 154.5,111.5 C 154.5,114.167 154.5,116.833 154.5,119.5C 153.076,121.515 152.41,123.848 152.5,126.5C 146.971,136.237 138.638,140.237 127.5,138.5C 129.167,137.833 130.833,137.167 132.5,136.5C 137.905,133.945 139.905,129.611 138.5,123.5C 137.167,123.5 135.833,123.5 134.5,123.5C 134.885,120.11 133.552,117.777 130.5,116.5C 130.47,115.503 130.97,114.836 132,114.5C 139.287,111.203 146.787,110.203 154.5,111.5 Z"/></g>
<g><path style="opacity:0.173" fill="#422823" d="M 251.5,122.5 C 251.598,124.553 250.931,126.22 249.5,127.5C 249.402,125.447 250.069,123.78 251.5,122.5 Z"/></g>
<g><path style="opacity:1" fill="#f89e96" d="M 165.5,128.5 C 165.607,133.641 163.274,136.974 158.5,138.5C 157.353,138.182 156.519,137.516 156,136.5C 155.444,134.115 155.61,131.782 156.5,129.5C 158.816,128.84 161.149,128.173 163.5,127.5C 164.416,127.543 165.083,127.876 165.5,128.5 Z"/></g>
<g><path style="opacity:1" fill="#5f3967" d="M 201.5,102.5 C 202.488,107.64 202.821,112.974 202.5,118.5C 201.908,121.127 201.575,123.794 201.5,126.5C 200.373,132.546 199.04,138.546 197.5,144.5C 196.5,146.5 195.5,148.5 194.5,150.5C 192.087,148.949 189.421,148.283 186.5,148.5C 189.104,142.082 190.771,135.415 191.5,128.5C 191.5,127.5 191.5,126.5 191.5,125.5C 191.833,125.5 192.167,125.5 192.5,125.5C 192.5,126.833 192.5,128.167 192.5,129.5C 195.167,129.5 197.833,129.5 200.5,129.5C 201.041,120.509 201.374,111.509 201.5,102.5 Z"/></g>
<g><path style="opacity:1" fill="#573656" d="M 87.5,127.5 C 80.7478,131.894 74.7478,137.227 69.5,143.5C 68.448,143.649 67.448,143.483 66.5,143C 67.2524,142.329 67.5858,141.496 67.5,140.5C 72.0425,132.967 78.7091,128.634 87.5,127.5 Z"/></g>
<g><path style="opacity:0.188" fill="#452525" d="M 52.5,129.5 C 53.9063,129.973 54.573,130.973 54.5,132.5C 53.0937,132.027 52.427,131.027 52.5,129.5 Z"/></g>
<g><path style="opacity:1" fill="#e36e6c" d="M 46.5,113.5 C 50.4703,118.989 54.3037,124.656 58,130.5C 60.3308,134.029 63.4975,136.029 67.5,136.5C 67.5,137.833 67.5,139.167 67.5,140.5C 67.5858,141.496 67.2524,142.329 66.5,143C 67.448,143.483 68.448,143.649 69.5,143.5C 70.325,145.81 71.6583,147.81 73.5,149.5C 75.137,151.475 76.8036,153.475 78.5,155.5C 78.6107,156.117 78.944,156.617 79.5,157C 76.854,157.497 74.1873,157.664 71.5,157.5C 71.6716,156.508 71.3382,155.842 70.5,155.5C 69.5,155.167 68.8333,154.5 68.5,153.5C 68.1667,152.5 67.5,151.833 66.5,151.5C 65.8333,150.167 64.8333,149.167 63.5,148.5C 62.3854,144.053 60.0521,140.387 56.5,137.5C 55.5592,135.95 54.8925,134.284 54.5,132.5C 54.573,130.973 53.9063,129.973 52.5,129.5C 50.3253,124.319 48.3253,118.985 46.5,113.5 Z"/></g>
<g><path style="opacity:1" fill="#cfa7b6" d="M 87.5,127.5 C 88.609,127.557 89.609,127.89 90.5,128.5C 91.7496,131.006 92.4162,133.673 92.5,136.5C 88.8945,136.799 85.5612,137.965 82.5,140C 81.4019,140.77 81.4019,141.603 82.5,142.5C 75.7167,139.949 72.7167,142.282 73.5,149.5C 71.6583,147.81 70.325,145.81 69.5,143.5C 74.7478,137.227 80.7478,131.894 87.5,127.5 Z"/></g>
<g><path style="opacity:1" fill="#f0cdd3" d="M 92.5,136.5 C 93.973,139.017 94.6397,141.85 94.5,145C 94.4944,147.033 94.1611,148.866 93.5,150.5C 93.5,147.5 93.5,144.5 93.5,141.5C 90.1501,141.335 86.8168,141.502 83.5,142C 84.4061,143.699 84.7394,145.533 84.5,147.5C 83.6908,145.972 83.0241,144.306 82.5,142.5C 81.4019,141.603 81.4019,140.77 82.5,140C 85.5612,137.965 88.8945,136.799 92.5,136.5 Z"/></g>
<g><path style="opacity:1" fill="#c34554" d="M 244.5,134.5 C 244.631,135.239 244.464,135.906 244,136.5C 237.733,143.381 230.233,148.381 221.5,151.5C 219.847,151.66 218.514,152.326 217.5,153.5C 210.822,156.277 203.822,158.277 196.5,159.5C 194.833,159.5 193.167,159.5 191.5,159.5C 192.787,156.594 193.787,153.594 194.5,150.5C 195.5,148.5 196.5,146.5 197.5,144.5C 213.162,144.503 228.162,140.836 242.5,133.5C 243.183,133.863 243.85,134.196 244.5,134.5 Z"/></g>
<g><path style="opacity:1" fill="#3b1e41" d="M 82.5,142.5 C 83.0241,144.306 83.6908,145.972 84.5,147.5C 85.8221,147.33 86.9887,147.663 88,148.5C 89.0941,156.221 85.9274,158.554 78.5,155.5C 76.8036,153.475 75.137,151.475 73.5,149.5C 72.7167,142.282 75.7167,139.949 82.5,142.5 Z"/></g>
<g><path style="opacity:1" fill="#f0746f" d="M 110.5,118.5 C 111.917,123.679 114.583,128.012 118.5,131.5C 120.445,136.498 124.111,139.665 129.5,141C 142.138,143.696 149.804,138.862 152.5,126.5C 152.41,123.848 153.076,121.515 154.5,119.5C 154.037,122.482 153.704,125.482 153.5,128.5C 154.791,128.263 155.791,128.596 156.5,129.5C 155.61,131.782 155.444,134.115 156,136.5C 156.519,137.516 157.353,138.182 158.5,138.5C 163.274,136.974 165.607,133.641 165.5,128.5C 174.167,128.5 182.833,128.5 191.5,128.5C 190.771,135.415 189.104,142.082 186.5,148.5C 185.833,149.167 185.167,149.833 184.5,150.5C 179.337,150.401 176.004,152.734 174.5,157.5C 170.911,155.883 167.911,156.55 165.5,159.5C 165.167,159.5 164.833,159.5 164.5,159.5C 162.433,159.468 161.1,158.468 160.5,156.5C 161.651,153.535 163.318,150.869 165.5,148.5C 165.291,147.914 164.957,147.414 164.5,147C 161.833,146.333 159.167,146.333 156.5,147C 154.859,148.129 153.859,149.629 153.5,151.5C 152.12,151.962 151.453,152.962 151.5,154.5C 153.123,157.409 154.457,160.409 155.5,163.5C 155.167,163.5 154.833,163.5 154.5,163.5C 152.214,163.595 150.214,164.262 148.5,165.5C 140.904,166.147 133.737,164.813 127,161.5C 123.035,163.167 121.535,166.167 122.5,170.5C 119.39,171.088 116.39,171.755 113.5,172.5C 113.167,172.5 112.833,172.5 112.5,172.5C 107.537,173.254 102.537,173.587 97.5,173.5C 95.5415,168.673 94.0415,163.673 93,158.5C 92.2496,157.874 91.4162,157.374 90.5,157C 92.4506,155.266 93.4506,153.099 93.5,150.5C 94.1611,148.866 94.4944,147.033 94.5,145C 94.6397,141.85 93.973,139.017 92.5,136.5C 92.4162,133.673 91.7496,131.006 90.5,128.5C 93.8333,128.5 97.1667,128.5 100.5,128.5C 100.687,126.436 101.187,124.436 102,122.5C 102.951,122.116 103.784,121.783 104.5,121.5C 106.517,120.471 108.517,119.471 110.5,118.5 Z"/></g>
<g><path style="opacity:1" fill="#d36477" d="M 152.5,126.5 C 149.804,138.862 142.138,143.696 129.5,141C 124.111,139.665 120.445,136.498 118.5,131.5C 120.167,132.5 121.5,133.833 122.5,135.5C 123.965,136.737 125.632,137.737 127.5,138.5C 138.638,140.237 146.971,136.237 152.5,126.5 Z"/></g>
<g><path style="opacity:1" fill="#8f7289" d="M 122.5,135.5 C 125.786,136.207 129.119,136.54 132.5,136.5C 130.833,137.167 129.167,137.833 127.5,138.5C 125.632,137.737 123.965,136.737 122.5,135.5 Z"/></g>
<g><path style="opacity:1" fill="#f6ba9c" d="M 164.5,159.5 C 163.927,162.617 165.094,164.617 168,165.5C 169.376,165.316 170.209,164.649 170.5,163.5C 171.211,161.799 172.545,160.799 174.5,160.5C 178.833,158.167 182.167,154.833 184.5,150.5C 185.167,149.833 185.833,149.167 186.5,148.5C 189.421,148.283 192.087,148.949 194.5,150.5C 193.787,153.594 192.787,156.594 191.5,159.5C 190.662,159.842 190.328,160.508 190.5,161.5C 189.559,163.772 188.226,165.772 186.5,167.5C 182.161,170.84 177.828,174.174 173.5,177.5C 172.71,178.401 171.71,179.068 170.5,179.5C 165.761,171.036 160.261,163.036 154,155.5C 153.51,154.207 153.343,152.873 153.5,151.5C 153.859,149.629 154.859,148.129 156.5,147C 159.167,146.333 161.833,146.333 164.5,147C 164.957,147.414 165.291,147.914 165.5,148.5C 163.318,150.869 161.651,153.535 160.5,156.5C 161.1,158.468 162.433,159.468 164.5,159.5 Z M 174.5,160.5 C 172.545,160.799 171.211,161.799 170.5,163.5C 167.188,164.804 165.521,163.471 165.5,159.5C 167.366,158.986 169.2,158.32 171,157.5C 172.95,157.707 174.116,158.707 174.5,160.5 Z"/></g>
<g><path style="opacity:0.973" fill="#4e305e" d="M 56.5,137.5 C 60.0521,140.387 62.3854,144.053 63.5,148.5C 59.8333,151.5 56.1667,154.5 52.5,157.5C 49.7939,154.479 46.4605,152.479 42.5,151.5C 47.5481,147.119 52.2148,142.452 56.5,137.5 Z"/></g>
<g><path style="opacity:0.031" fill="#353432" d="M 15.5,149.5 C 12.7342,148.768 10.0675,148.768 7.5,149.5C 7.79106,148.351 8.62439,147.684 10,147.5C 12.1114,147.701 13.9448,148.367 15.5,149.5 Z"/></g>
<g><path style="opacity:1" fill="#381a2b" d="M 184.5,150.5 C 182.167,154.833 178.833,158.167 174.5,160.5C 174.116,158.707 172.95,157.707 171,157.5C 169.2,158.32 167.366,158.986 165.5,159.5C 167.911,156.55 170.911,155.883 174.5,157.5C 176.004,152.734 179.337,150.401 184.5,150.5 Z"/></g>
<g><path style="opacity:0.094" fill="#2e1819" d="M 221.5,151.5 C 220.713,153.104 219.38,153.771 217.5,153.5C 218.514,152.326 219.847,151.66 221.5,151.5 Z"/></g>
<g><path style="opacity:1" fill="#9a244c" d="M 122.5,145.5 C 123.094,153.737 119.094,157.57 110.5,157C 115.662,154.337 119.662,150.504 122.5,145.5 Z"/></g>
<g><path style="opacity:0.984" fill="#ebdad5" d="M 93.5,150.5 C 93.4506,153.099 92.4506,155.266 90.5,157C 91.4162,157.374 92.2496,157.874 93,158.5C 94.0415,163.673 95.5415,168.673 97.5,173.5C 97.5,174.167 97.8333,174.5 98.5,174.5C 98.5,175.167 98.5,175.833 98.5,176.5C 98.5,177.833 98.5,179.167 98.5,180.5C 96.2588,175.1 94.5922,169.433 93.5,163.5C 79.2947,164.188 65.2947,165.521 51.5,167.5C 48.1501,167.335 44.8168,167.502 41.5,168C 36.8033,170.643 31.8033,171.143 26.5,169.5C 27.5896,168.391 27.5896,167.391 26.5,166.5C 20.0706,164.635 13.7372,162.468 7.5,160C 5.5743,159.578 4.5743,158.411 4.5,156.5C 5.68762,154.278 6.68762,151.945 7.5,149.5C 10.0675,148.768 12.7342,148.768 15.5,149.5C 19.75,151.104 23.75,153.104 27.5,155.5C 27.427,157.027 28.0937,158.027 29.5,158.5C 30.8333,159.5 32.1667,160.5 33.5,161.5C 33.585,163.929 34.585,165.929 36.5,167.5C 39.7825,165.963 43.1158,164.63 46.5,163.5C 47.791,163.737 48.791,163.404 49.5,162.5C 49.5,162.167 49.5,161.833 49.5,161.5C 53.913,161.313 58.2464,160.646 62.5,159.5C 65.8291,159.785 68.8291,159.118 71.5,157.5C 74.1873,157.664 76.854,157.497 79.5,157C 78.944,156.617 78.6107,156.117 78.5,155.5C 85.9274,158.554 89.0941,156.221 88,148.5C 86.9887,147.663 85.8221,147.33 84.5,147.5C 84.7394,145.533 84.4061,143.699 83.5,142C 86.8168,141.502 90.1501,141.335 93.5,141.5C 93.5,144.5 93.5,147.5 93.5,150.5 Z M 63.5,148.5 C 64.8333,149.167 65.8333,150.167 66.5,151.5C 66.5,152.833 67.1667,153.5 68.5,153.5C 68.8333,154.5 69.5,155.167 70.5,155.5C 70.5299,156.497 70.0299,157.164 69,157.5C 66.6539,157.99 64.4872,158.657 62.5,159.5C 58.2464,160.646 53.913,161.313 49.5,161.5C 49.5,161.167 49.5,160.833 49.5,160.5C 50.8333,160.5 51.5,159.833 51.5,158.5C 52.1667,158.5 52.5,158.167 52.5,157.5C 56.1667,154.5 59.8333,151.5 63.5,148.5 Z"/></g>
<g><path style="opacity:0.216" fill="#4c4744" d="M 27.5,155.5 C 28.9063,155.973 29.573,156.973 29.5,158.5C 28.0937,158.027 27.427,157.027 27.5,155.5 Z"/></g>
<g><path style="opacity:0.004" fill="#2e1c1a" d="M 66.5,151.5 C 67.5,151.833 68.1667,152.5 68.5,153.5C 67.1667,153.5 66.5,152.833 66.5,151.5 Z"/></g>
<g><path style="opacity:0.996" fill="#5d2d44" d="M 4.5,156.5 C 4.5743,158.411 5.5743,159.578 7.5,160C 13.7372,162.468 20.0706,164.635 26.5,166.5C 27.5896,167.391 27.5896,168.391 26.5,169.5C 31.8033,171.143 36.8033,170.643 41.5,168C 44.8168,167.502 48.1501,167.335 51.5,167.5C 47.7609,167.999 44.0942,168.999 40.5,170.5C 35.8804,171.493 31.2137,171.827 26.5,171.5C 26.1667,171.5 25.8333,171.5 25.5,171.5C 25.7135,169.856 25.3802,168.356 24.5,167C 16.7927,165.226 9.12606,163.393 1.5,161.5C 1.5,162.833 1.5,164.167 1.5,165.5C 0.833333,164.833 0.166667,164.167 -0.5,163.5C -0.5,161.5 -0.5,159.5 -0.5,157.5C 1.04181,156.699 2.70848,156.366 4.5,156.5 Z"/></g>
<g><path style="opacity:1" fill="#f1b89c" d="M 42.5,151.5 C 46.4605,152.479 49.7939,154.479 52.5,157.5C 52.5,158.167 52.1667,158.5 51.5,158.5C 50.5,158.833 49.8333,159.5 49.5,160.5C 49.5,160.833 49.5,161.167 49.5,161.5C 49.1667,161.5 48.8333,161.5 48.5,161.5C 47.5,161.833 46.8333,162.5 46.5,163.5C 43.1158,164.63 39.7825,165.963 36.5,167.5C 34.585,165.929 33.585,163.929 33.5,161.5C 35.5828,157.33 38.5828,153.996 42.5,151.5 Z"/></g>
<g><path style="opacity:0.458" fill="#938783" d="M 70.5,155.5 C 71.3382,155.842 71.6716,156.508 71.5,157.5C 68.8291,159.118 65.8291,159.785 62.5,159.5C 64.4872,158.657 66.6539,157.99 69,157.5C 70.0299,157.164 70.5299,156.497 70.5,155.5 Z"/></g>
<g><path style="opacity:0.004" fill="#211a1a" d="M 51.5,158.5 C 51.5,159.833 50.8333,160.5 49.5,160.5C 49.8333,159.5 50.5,158.833 51.5,158.5 Z"/></g>
<g><path style="opacity:0.082" fill="#211515" d="M 191.5,159.5 C 193.167,159.5 194.833,159.5 196.5,159.5C 194.626,160.285 192.626,160.952 190.5,161.5C 190.328,160.508 190.662,159.842 191.5,159.5 Z"/></g>
<g><path style="opacity:0.145" fill="#544a43" d="M 48.5,161.5 C 48.5,162.167 48.8333,162.5 49.5,162.5C 48.791,163.404 47.791,163.737 46.5,163.5C 46.8333,162.5 47.5,161.833 48.5,161.5 Z"/></g>
<g><path style="opacity:1" fill="#f9ae95" d="M 153.5,151.5 C 153.343,152.873 153.51,154.207 154,155.5C 160.261,163.036 165.761,171.036 170.5,179.5C 168.168,186.168 163.502,189.834 156.5,190.5C 153.848,190.41 151.515,191.076 149.5,192.5C 148.325,192.719 147.325,192.386 146.5,191.5C 145.974,189.77 144.974,188.436 143.5,187.5C 143.001,184.783 141.835,182.449 140,180.5C 139.667,178.167 139.333,175.833 139,173.5C 138.617,172.944 138.117,172.611 137.5,172.5C 135.883,171.962 134.216,171.629 132.5,171.5C 129.375,170.521 126.042,170.187 122.5,170.5C 121.535,166.167 123.035,163.167 127,161.5C 133.737,164.813 140.904,166.147 148.5,165.5C 151.059,165.802 153.393,165.468 155.5,164.5C 155.5,164.167 155.5,163.833 155.5,163.5C 154.457,160.409 153.123,157.409 151.5,154.5C 151.453,152.962 152.12,151.962 153.5,151.5 Z"/></g>
<g><path style="opacity:0.38" fill="#613c3c" d="M 154.5,163.5 C 154.5,164.167 154.833,164.5 155.5,164.5C 153.393,165.468 151.059,165.802 148.5,165.5C 150.214,164.262 152.214,163.595 154.5,163.5 Z"/></g>
<g><path style="opacity:0.49" fill="#83615a" d="M 164.5,159.5 C 164.833,159.5 165.167,159.5 165.5,159.5C 165.521,163.471 167.188,164.804 170.5,163.5C 170.209,164.649 169.376,165.316 168,165.5C 165.094,164.617 163.927,162.617 164.5,159.5 Z"/></g>
<g><path style="opacity:1" fill="#931b45" d="M 25.5,171.5 C 24.9569,171.56 24.6236,171.893 24.5,172.5C 26.5749,176.408 28.2416,180.408 29.5,184.5C 27.5,184.5 25.5,184.5 23.5,184.5C 23.6427,182.738 23.3094,181.071 22.5,179.5C 17.952,178.808 13.452,178.141 9,177.5C 8.61742,178.056 8.11742,178.389 7.5,178.5C 6.2936,173.757 4.2936,169.423 1.5,165.5C 1.5,164.167 1.5,162.833 1.5,161.5C 9.12606,163.393 16.7927,165.226 24.5,167C 25.3802,168.356 25.7135,169.856 25.5,171.5 Z"/></g>
<g><path style="opacity:1" fill="#781750" d="M 106.5,212.5 C 106.5,213.833 106.5,215.167 106.5,216.5C 98.1667,216.5 89.8333,216.5 81.5,216.5C 81.5,200.167 81.5,183.833 81.5,167.5C 80.1667,167.5 78.8333,167.5 77.5,167.5C 82.154,165.522 86.9873,165.189 92,166.5C 94.9957,177.489 97.9957,188.489 101,199.5C 102.566,204.056 104.399,208.39 106.5,212.5 Z"/></g>
<g><path style="opacity:0.997" fill="#81194e" d="M 60.5,167.5 C 66.1667,167.5 71.8333,167.5 77.5,167.5C 78.8333,167.5 80.1667,167.5 81.5,167.5C 81.5,183.833 81.5,200.167 81.5,216.5C 89.8333,216.5 98.1667,216.5 106.5,216.5C 96.6806,217.494 86.6806,217.827 76.5,217.5C 76.1667,217.5 75.8333,217.5 75.5,217.5C 71.1667,217.5 66.8333,217.5 62.5,217.5C 63.1296,200.595 62.4629,183.928 60.5,167.5 Z"/></g>
<g><path style="opacity:1" fill="#841849" d="M 51.5,167.5 C 54.5,167.5 57.5,167.5 60.5,167.5C 62.4629,183.928 63.1296,200.595 62.5,217.5C 61.1667,217.5 59.8333,217.5 58.5,217.5C 57.8333,217.5 57.5,217.833 57.5,218.5C 51.2727,203.832 45.6061,188.832 40.5,173.5C 35.6833,172.833 31.0166,172.166 26.5,171.5C 31.2137,171.827 35.8804,171.493 40.5,170.5C 44.0942,168.999 47.7609,167.999 51.5,167.5 Z"/></g>
<g><path style="opacity:1" fill="#261226" d="M 186.5,167.5 C 185.564,171.735 185.231,176.069 185.5,180.5C 181.498,180.036 177.831,180.702 174.5,182.5C 174.784,180.585 174.451,178.919 173.5,177.5C 177.828,174.174 182.161,170.84 186.5,167.5 Z"/></g>
<g><path style="opacity:1" fill="#6a363f" d="M 122.5,170.5 C 126.042,170.187 129.375,170.521 132.5,171.5C 130.167,171.5 127.833,171.5 125.5,171.5C 121.881,172.244 118.215,172.577 114.5,172.5C 114.167,172.5 113.833,172.5 113.5,172.5C 116.39,171.755 119.39,171.088 122.5,170.5 Z"/></g>
<g><path style="opacity:1" fill="#200f22" d="M 125.5,171.5 C 124.903,176.017 123.237,180.017 120.5,183.5C 118.5,179.833 116.5,176.167 114.5,172.5C 118.215,172.577 121.881,172.244 125.5,171.5 Z"/></g>
<g><path style="opacity:0.105" fill="#2d1718" d="M 112.5,172.5 C 112.672,173.492 112.338,174.158 111.5,174.5C 107.416,174.333 103.083,174.333 98.5,174.5C 97.8333,174.5 97.5,174.167 97.5,173.5C 102.537,173.587 107.537,173.254 112.5,172.5 Z"/></g>
<g><path style="opacity:0.498" fill="#633c3c" d="M 132.5,171.5 C 134.216,171.629 135.883,171.962 137.5,172.5C 137.113,176.444 137.78,180.111 139.5,183.5C 138.542,183.047 137.708,182.381 137,181.5C 136.818,178.774 136.318,176.107 135.5,173.5C 134.261,173.058 133.261,172.391 132.5,171.5 Z"/></g>
<g><path style="opacity:1" fill="#53335f" d="M 112.5,172.5 C 112.833,172.5 113.167,172.5 113.5,172.5C 113.833,172.5 114.167,172.5 114.5,172.5C 116.5,176.167 118.5,179.833 120.5,183.5C 120.737,184.791 120.404,185.791 119.5,186.5C 117.653,181.988 114.32,179.321 109.5,178.5C 110.167,177.167 110.833,175.833 111.5,174.5C 112.338,174.158 112.672,173.492 112.5,172.5 Z"/></g>
<g><path style="opacity:0.928" fill="#40294b" d="M 185.5,180.5 C 185.5,186.833 185.5,193.167 185.5,199.5C 184.512,194.36 184.179,189.026 184.5,183.5C 180.655,183.288 177.321,184.288 174.5,186.5C 174.167,186.5 173.833,186.5 173.5,186.5C 173.232,184.901 173.566,183.568 174.5,182.5C 177.831,180.702 181.498,180.036 185.5,180.5 Z"/></g>
<g><path style="opacity:1" fill="#d67675" d="M 137.5,172.5 C 138.117,172.611 138.617,172.944 139,173.5C 139.333,175.833 139.667,178.167 140,180.5C 141.835,182.449 143.001,184.783 143.5,187.5C 144.974,188.436 145.974,189.77 146.5,191.5C 147.325,192.386 148.325,192.719 149.5,192.5C 146.372,194.231 144.039,193.398 142.5,190C 141.552,189.517 140.552,189.351 139.5,189.5C 139.5,187.5 139.5,185.5 139.5,183.5C 137.78,180.111 137.113,176.444 137.5,172.5 Z"/></g>
<g><path style="opacity:1" fill="#ac2851" d="M 25.5,171.5 C 25.8333,171.5 26.1667,171.5 26.5,171.5C 31.0166,172.166 35.6833,172.833 40.5,173.5C 45.6061,188.832 51.2727,203.832 57.5,218.5C 53.6011,219.791 49.6011,219.791 45.5,218.5C 42.8302,209.495 38.8302,201.161 33.5,193.5C 32.8243,194.602 32.1577,195.602 31.5,196.5C 33.3781,192.026 32.7115,188.026 29.5,184.5C 28.2416,180.408 26.5749,176.408 24.5,172.5C 24.6236,171.893 24.9569,171.56 25.5,171.5 Z"/></g>
<g><path style="opacity:0.714" fill="#745a53" d="M 108.5,181.5 C 108.245,183.967 107.245,185.967 105.5,187.5C 105.461,184.911 106.461,182.911 108.5,181.5 Z"/></g>
<g><path style="opacity:1" fill="#f0ae94" d="M 29.5,184.5 C 32.7115,188.026 33.3781,192.026 31.5,196.5C 30.0269,198.084 28.3602,199.584 26.5,201C 28.13,203.428 27.7967,205.261 25.5,206.5C 21.8215,206.94 18.4882,206.273 15.5,204.5C 15.556,199.632 14.7227,194.632 13,189.5C 7.95231,187.405 6.11897,183.738 7.5,178.5C 8.11742,178.389 8.61742,178.056 9,177.5C 13.452,178.141 17.952,178.808 22.5,179.5C 23.3094,181.071 23.6427,182.738 23.5,184.5C 25.5,184.5 27.5,184.5 29.5,184.5 Z"/></g>
<g><path style="opacity:0.443" fill="#817f86" d="M 98.5,176.5 C 100.587,180.49 101.92,184.823 102.5,189.5C 101.778,189.082 101.278,188.416 101,187.5C 100.536,188.094 100.369,188.761 100.5,189.5C 99.087,186.781 98.4203,183.781 98.5,180.5C 98.5,179.167 98.5,177.833 98.5,176.5 Z"/></g>
<g><path style="opacity:1" fill="#f5bfa0" d="M 109.5,178.5 C 114.32,179.321 117.653,181.988 119.5,186.5C 119.198,189.373 118.531,192.039 117.5,194.5C 116.883,194.611 116.383,194.944 116,195.5C 115.174,198.793 114.674,202.126 114.5,205.5C 113.691,207.028 113.024,208.694 112.5,210.5C 111.167,211.5 109.833,212.5 108.5,213.5C 107.037,206.445 105.37,199.445 103.5,192.5C 104.11,191.609 104.443,190.609 104.5,189.5C 104.328,188.508 104.662,187.842 105.5,187.5C 107.245,185.967 108.245,183.967 108.5,181.5C 108.557,180.391 108.89,179.391 109.5,178.5 Z"/></g>
<g><path style="opacity:0.025" fill="#0f0d0d" d="M 102.5,189.5 C 103.167,189.5 103.833,189.5 104.5,189.5C 104.443,190.609 104.11,191.609 103.5,192.5C 102.596,191.791 102.263,190.791 102.5,189.5 Z"/></g>
<g><path style="opacity:0.522" fill="#7d5552" d="M 156.5,190.5 C 154.485,191.924 152.152,192.59 149.5,192.5C 151.515,191.076 153.848,190.41 156.5,190.5 Z"/></g>
<g><path style="opacity:0.98" fill="#871a45" d="M 45.5,218.5 C 40.1949,217.405 34.8616,216.238 29.5,215C 27.5854,212.6 25.9188,210.1 24.5,207.5C 25.1667,207.5 25.5,207.167 25.5,206.5C 27.7967,205.261 28.13,203.428 26.5,201C 28.3602,199.584 30.0269,198.084 31.5,196.5C 32.1577,195.602 32.8243,194.602 33.5,193.5C 38.8302,201.161 42.8302,209.495 45.5,218.5 Z"/></g>
<g><path style="opacity:1" fill="#f9bd9f" d="M 185.5,199.5 C 185.5,201.833 185.5,204.167 185.5,206.5C 185.5,207.5 185.5,208.5 185.5,209.5C 183.473,210.861 181.806,212.527 180.5,214.5C 180.003,210.512 178.17,207.178 175,204.5C 174.79,206.058 174.29,207.391 173.5,208.5C 173.833,201.167 174.167,193.833 174.5,186.5C 177.321,184.288 180.655,183.288 184.5,183.5C 184.179,189.026 184.512,194.36 185.5,199.5 Z"/></g>
<g><path style="opacity:0.275" fill="#57443f" d="M 117.5,194.5 C 116.945,198.397 115.945,202.063 114.5,205.5C 114.674,202.126 115.174,198.793 116,195.5C 116.383,194.944 116.883,194.611 117.5,194.5 Z"/></g>
<g><path style="opacity:1" fill="#633650" d="M 98.5,180.5 C 98.4203,183.781 99.087,186.781 100.5,189.5C 102.502,197.173 104.502,204.839 106.5,212.5C 104.399,208.39 102.566,204.056 101,199.5C 97.9957,188.489 94.9957,177.489 92,166.5C 86.9873,165.189 82.154,165.522 77.5,167.5C 71.8333,167.5 66.1667,167.5 60.5,167.5C 57.5,167.5 54.5,167.5 51.5,167.5C 65.2947,165.521 79.2947,164.188 93.5,163.5C 94.5922,169.433 96.2588,175.1 98.5,180.5 Z"/></g>
<g><path style="opacity:1" fill="#cecdd4" d="M 102.5,189.5 C 102.263,190.791 102.596,191.791 103.5,192.5C 105.37,199.445 107.037,206.445 108.5,213.5C 107.833,213.167 107.167,212.833 106.5,212.5C 104.502,204.839 102.502,197.173 100.5,189.5C 100.369,188.761 100.536,188.094 101,187.5C 101.278,188.416 101.778,189.082 102.5,189.5 Z"/></g>
<g><path style="opacity:0.439" fill="#724b43" d="M 15.5,204.5 C 18.4882,206.273 21.8215,206.94 25.5,206.5C 25.5,207.167 25.1667,207.5 24.5,207.5C 21.5,207.5 18.5,207.5 15.5,207.5C 15.5,206.5 15.5,205.5 15.5,204.5 Z"/></g>
<g><path style="opacity:1" fill="#fdd3bc" d="M 185.5,209.5 C 190.279,213.223 195.612,215.889 201.5,217.5C 202.167,217.5 202.833,217.5 203.5,217.5C 204.306,218.728 205.306,219.728 206.5,220.5C 198.113,220.42 189.78,219.753 181.5,218.5C 180.325,218.719 179.325,218.386 178.5,217.5C 179.193,216.482 179.859,215.482 180.5,214.5C 181.806,212.527 183.473,210.861 185.5,209.5 Z"/></g>
<g><path style="opacity:0.329" fill="#81615c" d="M 114.5,205.5 C 114.425,208.206 114.092,210.873 113.5,213.5C 113.167,213.5 112.833,213.5 112.5,213.5C 112.5,212.5 112.5,211.5 112.5,210.5C 113.024,208.694 113.691,207.028 114.5,205.5 Z"/></g>
<g><path style="opacity:1" fill="#fbb097" d="M 180.5,214.5 C 179.859,215.482 179.193,216.482 178.5,217.5C 179.325,218.386 180.325,218.719 181.5,218.5C 185.884,221.735 189.217,225.902 191.5,231C 194.817,231.498 198.15,231.665 201.5,231.5C 195.559,232.911 189.392,233.577 183,233.5C 179.317,233.499 175.817,233.165 172.5,232.5C 172.302,224.466 172.635,216.466 173.5,208.5C 174.29,207.391 174.79,206.058 175,204.5C 178.17,207.178 180.003,210.512 180.5,214.5 Z"/></g>
<g><path style="opacity:0.172" fill="#000000" d="M 112.5,213.5 C 112.833,213.5 113.167,213.5 113.5,213.5C 132.656,213.177 151.99,213.51 171.5,214.5C 171.5,220.5 171.5,226.5 171.5,232.5C 171.5,233.833 171.5,235.167 171.5,236.5C 184.23,236.66 196.897,235.827 209.5,234C 210.814,231.395 210.814,228.895 209.5,226.5C 209.539,223.911 208.539,221.911 206.5,220.5C 205.306,219.728 204.306,218.728 203.5,217.5C 214.409,219.414 225.076,222.247 235.5,226C 240.396,228.061 243.729,231.561 245.5,236.5C 245.226,240.157 243.56,242.99 240.5,245C 236.032,247.381 231.365,249.381 226.5,251C 211.16,254.57 195.826,257.403 180.5,259.5C 155.167,259.5 129.833,259.5 104.5,259.5C 88.8216,257.534 73.1549,254.7 57.5,251C 51.139,248.737 45.3056,245.571 40,241.5C 38.627,239.305 38.2937,236.971 39,234.5C 40.5967,231.781 42.7634,229.614 45.5,228C 55.4366,223.967 65.4366,220.467 75.5,217.5C 75.8333,217.5 76.1667,217.5 76.5,217.5C 73.9301,221.087 72.2635,225.087 71.5,229.5C 71.5,231.167 71.5,232.833 71.5,234.5C 78.1667,234.5 84.8333,234.5 91.5,234.5C 97.8333,234.5 104.167,234.5 110.5,234.5C 110.5,233.167 110.5,231.833 110.5,230.5C 110.5,230.167 110.5,229.833 110.5,229.5C 111.493,224.223 112.16,218.89 112.5,213.5 Z"/></g>
<g><path style="opacity:0.655" fill="#beaea9" d="M 185.5,206.5 C 190.796,210.154 196.129,213.821 201.5,217.5C 195.612,215.889 190.279,213.223 185.5,209.5C 185.5,208.5 185.5,207.5 185.5,206.5 Z"/></g>
<g><path style="opacity:1" fill="#fbb399" d="M 112.5,210.5 C 112.5,211.5 112.5,212.5 112.5,213.5C 112.16,218.89 111.493,224.223 110.5,229.5C 97.5,229.5 84.5,229.5 71.5,229.5C 72.2635,225.087 73.9301,221.087 76.5,217.5C 86.6806,217.827 96.6806,217.494 106.5,216.5C 106.5,215.167 106.5,213.833 106.5,212.5C 107.167,212.833 107.833,213.167 108.5,213.5C 109.833,212.5 111.167,211.5 112.5,210.5 Z"/></g>
<g><path style="opacity:0.318" fill="#3b2926" d="M 173.5,186.5 C 173.833,186.5 174.167,186.5 174.5,186.5C 174.167,193.833 173.833,201.167 173.5,208.5C 172.635,216.466 172.302,224.466 172.5,232.5C 172.167,232.5 171.833,232.5 171.5,232.5C 171.5,226.5 171.5,220.5 171.5,214.5C 172.476,205.202 173.142,195.868 173.5,186.5 Z"/></g>
<g><path style="opacity:0.42" fill="#56242f" d="M 58.5,217.5 C 58.5,218.5 58.5,219.5 58.5,220.5C 53.706,221.097 49.3727,220.43 45.5,218.5C 49.6011,219.791 53.6011,219.791 57.5,218.5C 57.5,217.833 57.8333,217.5 58.5,217.5 Z"/></g>
<g><path style="opacity:1" fill="#fdc1a1" d="M 181.5,218.5 C 189.78,219.753 198.113,220.42 206.5,220.5C 208.539,221.911 209.539,223.911 209.5,226.5C 209.762,227.978 209.429,229.311 208.5,230.5C 206.253,231.374 203.92,231.708 201.5,231.5C 198.15,231.665 194.817,231.498 191.5,231C 189.217,225.902 185.884,221.735 181.5,218.5 Z"/></g>
<g><path style="opacity:1" fill="#881e47" d="M 71.5,229.5 C 84.5,229.5 97.5,229.5 110.5,229.5C 110.5,229.833 110.5,230.167 110.5,230.5C 105.167,230.5 99.8333,230.5 94.5,230.5C 94.5,231.5 94.5,232.5 94.5,233.5C 93.209,233.263 92.209,233.596 91.5,234.5C 84.8333,234.5 78.1667,234.5 71.5,234.5C 71.5,232.833 71.5,231.167 71.5,229.5 Z"/></g>
<g><path style="opacity:1" fill="#76164c" d="M 110.5,230.5 C 110.5,231.833 110.5,233.167 110.5,234.5C 104.167,234.5 97.8333,234.5 91.5,234.5C 92.209,233.596 93.209,233.263 94.5,233.5C 94.5,232.5 94.5,231.5 94.5,230.5C 99.8333,230.5 105.167,230.5 110.5,230.5 Z"/></g>
<g><path style="opacity:0.999" fill="#881d49" d="M 209.5,226.5 C 210.814,228.895 210.814,231.395 209.5,234C 196.897,235.827 184.23,236.66 171.5,236.5C 171.5,235.167 171.5,233.833 171.5,232.5C 171.833,232.5 172.167,232.5 172.5,232.5C 175.817,233.165 179.317,233.499 183,233.5C 189.392,233.577 195.559,232.911 201.5,231.5C 203.92,231.708 206.253,231.374 208.5,230.5C 209.429,229.311 209.762,227.978 209.5,226.5 Z"/></g>
</svg>
