<?xml version="1.0" encoding="UTF-8"?><svg width="120px" height="120px" id="Layer_2" xmlns="http://www.w3.org/2000/svg" viewBox="0 0 456.37 490.84"><g id="Layer_1-2"><path d="M0,298.63c4.06-1.28,6.39-4.98,9.87-7.07,3.51,4.13,5.98,8.98,9.1,13.38,3.68,5.18,7.35,10.32,12.83,13.82.59,1.47.34,2.8-.71,3.98-5.14,7.58-9.48,15.62-13.4,23.87-1.53,3.21-3.12,5.02-7,3.23-3.62-1.67-6.1-3.63-4.57-8.03,2.24-6.4,4.52-12.78,6.78-19.17.92-1.75,1.54-4.3-.27-4.98-7.64-2.89-9.42-10.05-12.64-16.2v-2.83Z" fill="#fcab95"/><path d="M0,301.46c1.71.84,3.57,2.05,3.75,3.82.6,5.73,4.51,7.88,9.08,10.04,4.14,1.96,5.75,4.83.08,7.33-6.17-4.81-10.7-10.77-12.92-18.36v-2.83Z" fill="#f18686"/><path d="M346.23,240.84c-.82,1.92-1.64,3.83-2.45,5.75-5.19.42-4.64-3.67-4.89-6.66-.36-4.25-.68-8.43-3.15-12.09-1.32-1.95-2.79-3.1-5.16-1.18-4.97,4.03-6.97,14.83-3.63,20.38,1.02,1.16.2,3.33,2.19,4.04,2.25-1.43-.37-5.51,3.33-6.1,7.9-.16,8.76.62,8.25,7.49-3.81,8.97-9.37,16.74-16.14,23.7-1.78,1.83-4.03,3.32-4.44,6.14-.5.16-1.11.2-1.25-.14-4.15-9.67-11.62-9.09-19.84-6.57-5.17,1.58-9.83,4.15-14.58,6.63-6.17,3.21-6.43,9.82-9.25,14.98-9.27,3.9-19.25,3.71-28.97,4.76-4.88.53-9.83.55-14.7,1.37-21.29.99-42.39-1-63.4-4.19-4.74-.77-9.31-1.93-12.67-5.76-3.9-.45-7.33-2.01-10.42-4.37,6.91-5.3,7.02-6.57,1.68-20.29-.16,2.04.75,3.59,1.14,5.23,2.47,10.57-.53,13.47-10.81,10.39-7.52-5.84-14.09-12.52-18.86-20.85,1.77-3.38,3.36-6.86,5.53-10.01,1.37-.86,2.96-.04,4.39-.57,2.38.08,4.07,3.92,6.06,2.34,2.53-2.01.62-5.25-.29-7.74-2.23-6.13-5.19-11.96-8.82-17.39-3.97-5.94-7.22-5.74-10.59.45-.79,1.45-1.07,3.07-1.45,4.65-.66,2.28-1.05,4.63-1.96,6.84-1.2,1.82-2.46,3.55-5.08,2.83h0c-3.18-7.59,2.88-13.21,4.18-19.85,4.72-7.78,6.48-8.71,12.9-6.84,5.06,4.68,7.92,10.97,12.01,16.37,3.77,6.43,7.04,13.15,11.66,19.07,1.74,2.23,3.44,4.42,6.23,5.41,2.08.83,4.17,4.16,6.19-.11,6.63-3.29,13.78-1.2,20.64-2.09,6.11,1.15,6.4,7.78,10.33,10.99,3.11,3.52,6.34,6.91,10.53,9.2,15.9,7.6,31.77,9.05,47.59-.17,3.78-3.29,9.35-4.25,11.86-9.19,2.79-3.52,5.14-7.3,7.03-11.39,1.04-2.26,1.66-5.13,5.08-5.08,7.02,2.75,14.52.79,21.67,2.22,6.91,4.53,8.74-2.85,12.61-5.43,5.43-3.56,9.04-8.67,12.24-14.17,2.93-5.05,6.07-9.99,9.74-14.53,2.18-2.71,5.69-5,8.29-1.64,5.2,6.72,9.28,14.23,9.46,23.16Z" fill="#f2746f"/><path d="M134.23,235.04c-4.89-4.36-7.4-10.47-11.31-15.54,4.59-2.45,8.23,2.98,12.69,1.53,1.87-.35,3.66-.97,5.45-1.58,2.47-.53,4.65-2.48,7.43-1.58,1.31.11-1.67,4.82,2.39,2.16,1.45-.95,3.32-1.74,5.14-.36.91,1.05,1.27,2.38,1.87,3.6,3.47,3.86,7.93,3.9,12.38,2.81,9.47-2.34,18.66-1.26,27.71,1.78,17.83,5.98,35.59,4.66,53.36-.21,10.86-2.97,21.6-6.63,32.93-1.35,2.96,1.38,6.39-.35,9.48-1.64-.81-2.07-2.7-1.5-4.16-1.9-4.35-.93-8.5-2.6-12.89-3.37-5.06-2.02-11.22-.48-15.58-4.77,1.34-3.17,4.28-2.39,6.68-2.5,8.62-.38,16.8,1.85,24.75,4.88,2.55.98,3.18.64,2.64-1.97,5.12-3.29,10.19-1.52,15.25.1,7.57,4.91,7.78,4.91,15.26-1.15,4.01-3.25,7.27-7.16,10.06-11.51,1.18-1.84,1.81-4.49,4.81-4.41,1.87,1.34.96,4.1,2.81,5.53,3.31-.64,4.11-3.39,5.06-6.02,2.93-3.53,5.9-7.02,9.29-10.14,1.99-.65,3.98-1.95,5.96.01.67,6.38-1.92,12.21-3.11,18.27-2.62,9.25-5.7,18.36-8.77,27.47-.89,2.66-1.61,5.44-4.19,7.12-.46.18-.92.37-1.38.55-2.41-5.79-4.67-11.64-7.28-17.34-3.58-7.83-5.99-8.04-10.72-.98-4.03,6.01-7.7,12.27-11.84,18.2-2.49,3.58-5,7.41-9.78,8.46-2.72-4.28,2.54-8.35.3-12.76-3.1.22-4.53,4.21-7.96,3.56-3.31-2.04-6.67-2.55-10.63-1.78-4.79.93-9.74.43-14.55-.7-5.24-8.75-12.51-6.26-19.82-3.55-19.97,7.84-39.94,7.21-59.91.06-1.5-.56-2.99-1.16-4.54-1.58-7.12-1.93-8.29-1.38-11.57,5.51-.4.85-.9,1.59-1.65,2.16-7.2,2.62-15.07-.26-22.21,2.74-4.13.41-5-3.12-6.88-5.75-.55,1.36-.33,2.98-1.5,4.02-6.03,2.15-8.53-2.38-11.47-6.06Z" fill="#f88074"/><path d="M31.1,318.43c-1.34-.24-3.23,0-3.94-.81-6.97-7.87-14.19-15.61-17.28-26.05,18.57-10.16,27.88-29.27,42.14-43.58,8.08-.78,11,.66,14.29,7.04-6.06,8.85-12.83,17.22-17.72,26.86-1.4,2.76-2.05,5.09.35,7.55.63.65.97,1.59,1.37,2.44,7.85,16.56,10.48,15.1-7.44,26.44-1.56.99-3.24,1.81-4.86,2.71-1.42-1.01-3.95.42-4.7-2.13-.13-.44-1.84-.75-2.21-.46Z" fill="#febd9e"/><path d="M49.32,194.25c-3.27-6.03-4.03-12.78-5.54-19.31-.96-4.14,1.87-6.58,4.31-8.97,3.14-3.09,6.63-5.83,9.97-8.72,1.56-3.46,5.1-3.89,8.02-5.28,1.57-.71,3.1-1.49,4.66-2.22,3.14-1.12,6.18-3.08,9.7-1.22,1.88,1.77,2.12,4.13,2.05,6.45-.25,8.64,1.52,17.1,2.1,25.66-2.33,13.76-9.67,18.74-23.58,15.8-3.88-.82-7.8-1.42-11.69-2.18Z" fill="#7b6985"/><path d="M309.26,353.71c-2.31-4.43-2.16-9.46-2.33-14.1-.51-13.73-.07-27.5-.01-41.25.37-5.46,2.7-9.85,7.34-12.82,1.9-1.22,3.87-2.91,6.31-.94,3.82,11.49,2.83,23.44,3.09,35.66,7.52-2.86,11.41-10.98,19.6-11.79-.24,4.92-5.16,5.54-7.67,8.37-10.13,8.54-18.07,18.62-22.42,31.32-.74,2.15-1.61,4.4-3.91,5.55Z" fill="#fdbea0"/><path d="M402.94,165.98c2.98,6.8.75,13.23-1.39,19.67-7.77,6.59-16.48,9.29-26.45,6.08-4.59-1.48-8.36-4.05-9.47-9.23-.72-5.99.61-12.1-1.06-18.03-.41-5.7-.34-11.32,3.17-16.26,3.46-1.79,6.76-.65,10.06.56,1.91.86,3.56,2.2,5.47,3.05,2.71,1.19,5.83,1.44,8.18,3.48,4.37,2.98,9.37,5.28,11.5,10.67Z" fill="#7b6985"/><path d="M49.32,194.25c2.34-2.63,4.98-1.35,7.7-.77,3.6.75,7.04,2.34,10.88,1.96,8.69-.85,14.78-4.43,15.28-14.11,2.24,1.61,2.52,4.02,2.67,6.49-.02.71-.13,1.41-.3,2.1.1,6.12,1.28,12.09,2.35,18.08.45,2.51,1.33,5.05.23,7.63-7.48,6.89-16.81,6.71-26.06,6.85-6.1-8.57-10.04-18.13-12.75-28.23Z" fill="#6e577c"/><path d="M412.45,120.39c-1.08-1.8-2.27-3.55-3.24-5.42-5.91-11.38-5.45-14.65,4.35-22.85,3.72-3.11,6.75-6.29,7.73-11.11,3.09-2.04,5.04,1.11,7.57,1.64,7.55,3.19,8.46,7.77,2.7,13.51-1.67,1.66-3.62,2.89-5.71,3.96-5.73,2.94-6.15,5.78-1.45,10.41,3.66,3.61,8.15,5.32,13.32,5,2.97-.18,5.78-.26,6.06,3.79-3.25,6.59-7.81,11.26-15.85,10.82-6.71-.8-12.37-3.27-15.49-9.76Z" fill="#feb99c"/><path d="M320.58,284.6c-8.06,1.1-10.49,7.79-13.65,13.76.18-6.83-3.21-7.48-8.49-4.92-4.84,2.34-9.7,4.65-14.55,6.97-4.1.74-7.93,1.01-8.54-4.65-.61-5.24.72-9.62,5.14-12.97,8.46-6.41,18.05-9.89,28.47-10.79,7.04-.6,9.48,4.67,11.17,10.32.15.75.29,1.51.44,2.27Z" fill="#64466f"/><path d="M72.47,51.35c2.41-7,7.2-11.86,13.44-15.66,27.52-16.75,57.68-25.74,89.24-30.66-.78,3.9-2.91,6.89-6.11,9.19-24.62,6.26-49.01,13.17-71.68,25.02-3.97,2.07-7.87,4.22-11.25,7.2-2.49,2.02-3.83,5.39-7.32,6.23-2.28.36-4.52.55-6.33-1.32Z" fill="#7d6c86"/><path d="M169.48,12.86c1.75-2.71,2.7-6,5.67-7.82,36.36-7.25,72.63-6.54,108.81,1.23,1.98,2.36,1.98,4.77.24,7.25-3.37,2.16-6.84.8-10.25.2-14.8-2.62-29.59-5.28-44.69-5.53-17.46-.28-34.61,2.54-51.78,5.16-2.68.41-5.47,1.91-8-.48Z" fill="#6c557c"/><path d="M191.88,363.69c-11.77-.69-21.16-5.61-27.69-15.61,6.55.13,12.45-1.74,17.63-5.79,8.36,8.62,18.46,12.6,30.51,11.55.74-.06,1.55.76,2.33,1.17,3.74,6.53,4.72,13.33,2.01,20.5-7.07,4.46-12.3,3.89-16.73-1.79-.05-.21-.16-.45-.13-.67q1.3-8.14-6.77-8.65c-.45-.03-.83-.38-1.17-.73Z" fill="#fdc1a1"/><path d="M200.62,372.11c3.87,7.36,9.72,4.1,15.2,2.82,2.56,2.35.73,4.79-.06,7.01-3.96,11.16-11.74,18.09-23.39,20.57-.92.2-1.43.49-.52.24.02,0,.16.41.24.63-4.22,1.86-8.7,2.06-11.21-2.05-2.65-4.33-2.45-9.49.24-14.06,1.41-2.4,3.33-4.51,5.02-6.75,4.93-2.63,8.52-7.58,14.49-8.41Z" fill="#feb097"/><path d="M284.04,13c-.03-2.25-.05-4.49-.08-6.74,29.85,5.38,58.54,13.77,83.27,32.36-2.09,2.17-4.79,3.02-7.66,3.51-3.39-.3-6.23-2.07-9.11-3.61-18.8-10.04-38.83-16.68-59.46-21.69-2.62-.64-5.83-.41-6.96-3.83Z" fill="#7e6e87"/><path d="M309.26,353.71c5.43-14.78,11.92-28.85,25.63-38.05,3.75,1.81,3.28,5.38,3.4,8.57.25,7.03-.31,14.09.91,21.08-8.88,6.72-17.63,13.9-29.94,8.4Z" fill="#8a194a"/><path d="M402.94,165.98c-4.07-3.2-8.44-6.06-11.75-10.14-.29-.67-.13-1.18.55-1.5,7.97-9.37,13.06-20.57,19.48-30.92,3.16-.38,3.75,2.44,4.71,4.26,1.93,3.64,5.57,5.51,8.03,8.54-5.81,10.77-12.23,21.11-21.02,29.77Z" fill="#fdaf96"/><path d="M111.63,235.04c.33-1.58.41-3.27,1.03-4.72,1.43-3.31,3.78-6.73,7.06-7.29,3.5-.59,5,3.49,6.77,6.19,4.38,6.68,8.05,13.74,10.22,21.41.69,2.45,1.75,6.1-1.04,7.75-2.86,1.69-4.23-1.94-6.19-3.34-.76-.54-1.5-1.1-2.25-1.65-2.36-1.82-1.34-4.63-2.03-7.13-2.3,2.27-2.45,4.64-.89,7.23-1,3.97-1.56,8.21-6.11,10.01-5.14-5.49-8.64-12.06-12.21-18.59,1.38-.94,2.77-1.88,4.15-2.82,4.08-.89,4.36-2.24,1.48-7.05Z" fill="#f57d72"/><path d="M367.35,182.73c4.39,7.24,12.45,10.34,21.08,7.76,4.46-1.33,8.76-3.21,13.13-4.84-1.25,7.9-3.59,15.44-7.27,22.55-10.83,3.86-20.99,2.78-30.39-4.08-1.13-7.5-1.44-14.86,3.44-21.4Z" fill="#705b7e"/><path d="M181.83,342.29c-4.18,7.1-10.03,9.11-17.63,5.79-5.63-11.55-7.16-23.96-7.6-36.6,8.45.03,13.7,5.46,18.79,11.16,1.8,6.67,3.59,13.34,6.44,19.66Z" fill="#5c3e6b"/><path d="M166.69,297.25c21.61,2.41,43.22,4.79,65.03,4.21,2.6,3.69,2.75,7.38,0,11.07-19.87,1.39-39.06-2.02-57.84-8.26-1.87-2.88-6.43-3-7.18-7.03Z" fill="#e44652"/><path d="M428.13,83.82c-2.28-.93-4.56-1.87-6.84-2.8,4.44-10.74,10.06-20.61,18.85-28.57,3.91-3.54,7.16-2.83,10.6-.16,3.82,2.96,1.29,5.89-.67,8.41-5.2,6.71-9.88,13.72-13.33,21.5-2.54,2.34-5.42,2.81-8.62,1.62Z" fill="#fdc8a5"/><path d="M62.07,222.48c4.05-2.52,8.75-2.22,13.18-2.91,4.44-.68,8.42-2.32,12.33-4.33,9.54,12.47,7.15,22.52-7.01,29.55-1.38-.37-2.76-.75-4.14-1.12-3.68-3.29-7.83-6.23-8.8-11.58-1.45-3.43-4.98-5.67-5.56-9.61Z" fill="#5e4172"/><path d="M231.72,312.54c0-3.69,0-7.38,0-11.07,12.52-1.42,25.03-2.9,37.56-4.22,2.13-.22,4.21-.3,6.06-1.48,2.01,3.09,5.04,4.31,8.54,4.65-16.5,7.89-33.88,11.97-52.17,12.13Z" fill="#ce455a"/><path d="M339.2,345.31c-3.89-.61-2.7-3.69-2.92-6.06-.72-7.85,1.53-15.87-1.39-23.59,2.79-2.4,5.58-4.79,8.37-7.19,4.46-2.9,6.58-.78,8.12,3.5,4.52,12.51.36,24.1-12.19,33.34Z" fill="#7c1850"/><path d="M364.56,203.93c9.47,4.45,19.57,4.61,29.73,4.28-2.06,6.07-4.42,11.99-8.49,17.06-8.48-1.36-17.77.26-24.7-6.77-1.79-3.83-.19-7.43.73-11.09.55-1.44,1.31-2.72,2.74-3.48Z" fill="#684f79"/><path d="M361.73,218.06c5.14,2.82,10.49,4.61,16.52,4.37,2.69-.1,5.47.73,7.55,2.83-2.81,5.69-6.7,10.6-10.77,15.42-3.03,3.6-6.31,5.35-10.86,3.02.92-1.53.19-2.48-.95-3.58-6.9-6.68-7.36-13.99-1.49-22.06Z" fill="#5f4273"/><path d="M428.13,83.82c2.87-.54,5.75-1.08,8.62-1.62,1.1.26,2.28.36,2.85,1.58-.69,5.18-2.64,9.99-4.97,14.56-2.28,4.49.71,6.45,3.39,8.69,2.94,2.47,5.06.52,7.35-1.33,1.94-1.57,2.85-5.3,6.6-3.5.14.42.25.84.35,1.27.69,2.12-.59,3.64-1.96,4.72-3.58,2.83-4.49,6.49-4,10.76-.86.12-1.73.25-2.59.37-1.66-1.66-3.11-2.44-5.98-1.97-7.76,1.25-15.88-4.23-18.46-11.08-1.46-3.87-1.33-6.37,3.46-6.99,2.62-.34,4.81-1.7,6.78-3.49,6.06-5.5,5.71-8.64-1.45-11.97Z" fill="#f49383"/><path d="M166.69,297.25c2.34,2.4,7.6,1.81,7.18,7.03.5,6.12,1,12.24,1.51,18.35-6.25-3.74-11.86-8.55-18.79-11.16-1.87-5.94-.66-12.07-1.12-18.09,3.74,1.29,7.48,2.58,11.21,3.86Z" fill="#271023"/><path d="M72.47,51.35c2.27.02,4.53.04,6.8.06.97,1.26.93,2.72.3,3.97-7.74,15.44-10.07,32.38-13.59,48.98-2.15,2.25-4.64,3.98-7.68,4.84,1.39-20.1,5.05-39.64,14.16-57.85Z" fill="#6e587d"/><path d="M451.98,102.21c-1.62.04-2.29,1.24-3.23,2.32-7.08,8.19-10.41,8.17-16.77.11-.81-1.03-1.2-2.19-.52-3.22,3.62-5.47,3.67-12.58,8.14-17.64,5.34,3.23,7.08,9.75,12.16,13.26,2.06,1.42.2,3.43.22,5.16Z" fill="#fdc0a1"/><path d="M80.57,244.79c.11-.21.16-.52.33-.6,13.83-6.98,9.86-18.05,6.68-28.95-1.48-8.91-4.8-17.59-3.21-26.87,1.55.66,1.94,2.09,2.34,3.51,3.41,12.65,8.17,24.82,13.23,36.88.96,3.89,5.26,6.91,3.06,11.63-7.3,2.38-14.55,5-22.43,4.4Z" fill="#513764"/><path d="M326.33,247.74c-6.24-2.56-2.89-7.42-2.67-11.47.08-1.34.59-2.81,1.32-3.95,2.29-3.59,3.29-10.16,8.04-9.36,5.33.89,6.41,7.29,7.45,12.35.8,3.86-1.91,8.72,3.31,11.28-.6,2.18-1.4,4.25-3.07,5.87.12-7.72-5.59-5.89-10.04-6.14-2.25-1.99-3.23-.09-4.35,1.41Z" fill="#f88074"/><path d="M361.73,218.06c-.88,4.28-1.78,8.56-2.62,12.85-.96,4.9,3.28,6.04,5.99,8.35,1.09.93,3.14,1.76,2.29,3.66-.27.61-2.1.53-3.22.77-5.82.31-11.2-1.48-16.55-3.42,3.81-11.62,7.61-23.24,11.42-34.87,1.79-.84,3.03-.05,4.07,1.35-.46,3.76-.92,7.53-1.38,11.29Z" fill="#513765"/><path d="M58.3,109.2c1.16-3.04,3.03-4.97,6.61-4.24,2.37,2.22,1.95,5.06,1.66,7.83-1.41,13.46-1.14,26.93-.05,40.4-2.82,1.35-5.63,2.7-8.45,4.05-1.2-16.02-1.29-32.03.24-48.04Z" fill="#614574"/><path d="M385.4,75.31c3.38,12.99,5.8,26.13,5.74,39.62-1.83,1.58-3.76,1.55-5.78.4-.69-.64-1.52-1.34-1.63-2.24-1.56-13.41-5.13-26.53-5.84-40.06,3.79-3.5,5.68-.73,7.5,2.28Z" fill="#6b547b"/><path d="M385.4,75.31c-2-1.51-3.88-3.32-6.72-2.8-2.89-.99-3.36-3.76-4.21-6.08-2.59-7.09-6.34-13.5-10.81-19.52-1-1.91-3.98-2.61-3.37-5.5,1.8-2.2,4.2-2.9,6.94-2.78,6.73,3.97,8.87,11.1,11.86,17.56,2.82,6.11,5.19,12.42,6.32,19.12Z" fill="#766282"/><path d="M385.72,114.91c1.81,0,3.62.01,5.43.02,1.74,13.11.39,26.28.6,39.41-.18.5-.37,1-.55,1.5-2.78-.92-5.88-.84-8.37-2.66,1.08-9.62.64-19.27.79-28.91.05-3.23-.5-6.67,2.1-9.36Z" fill="#604474"/><path d="M192.09,403.39c-.45-.14-.9-.26-1.35-.41-1.68-.57-1.15-.73.14-1,14.67-3.14,22.46-12.65,24.94-27.04,1.59-6.75-.41-13.3-1.15-19.92,3.65,1.36,5.25,3.94,5.89,7.86,3.26,19.89-8.18,36.34-28.47,40.52Z" fill="#802257"/><path d="M200.62,372.11c-4.53,3.33-8.29,7.96-14.49,8.41,1.92-5.61,3.84-11.23,5.76-16.84.68-.11,1.39-.13,2.02-.36,3.3-1.21,7.76-2.61,9.72-.2,2.22,2.73-1.26,6.14-3.01,8.98Z" fill="#f39b84"/><path d="M67.63,232.08c2.73,4.02,7.54,6.45,8.8,11.58-2.94,3.19-5.88,6.39-8.82,9.58-5.57-3.86-7.27-9.1-5.58-15.56,1.87-1.87,3.73-3.74,5.6-5.6Z" fill="#261023"/><path d="M137.06,284.35c11.53-.78,11.73-1.1,8.14-13.07-.34-1.12-.83-2.22-.96-3.36-.15-1.34-.57-3.2.96-3.75,2.17-.78,2.68,1.2,3.16,2.77,1.3,4.25,2.76,8.46,3.79,12.78,1.64,6.85.34,8.41-7.09,9.3-3.22-.6-5.43-2.94-8-4.67Z" fill="#de626d"/><path d="M446.38,118.96c-3.45-3.61-3.05-6.72.89-9.82,1.96-1.54,3.39-3.75,5.07-5.66,6.53,8,5.54,10.58-5.96,15.48Z" fill="#fac0a3"/><path d="M103,240.38c-1.44-3.63-2.89-7.26-4.33-10.89,3.44-4.05,7.86-5.22,12.95-4.36-.33,7.03-6.53,12.38-5.63,19.76-1-1.5-1.99-3.01-2.99-4.51Z" fill="#f57d72"/><path d="M423.97,136.21c-7.66-.87-8.66-8.36-12.74-12.79-.04-1.19.18-2.27,1.23-3.02,4.61,4.13,10.1,6.86,15.49,9.76-1.32,2.02-2.65,4.04-3.97,6.06Z" fill="#f38182"/><path d="M62.03,237.69c.58,5.64,3.03,10.62,5.58,15.56-.44.59-.87,1.18-1.31,1.77-3.61-4.67-9.28-5.18-14.28-7.04,3.34-3.43,6.68-6.86,10.02-10.29Z" fill="#644670"/><path d="M31.1,318.43c1.62-2.15,2.32-2.33,2.89-.53.69,2.18,3.19,1.46,4.02,3.12-2.21.94-4.4,1.98-6.91,1.72,0-1.44,0-2.88,0-4.31Z" fill="#f28283"/><path d="M176.51,239.27c1.72-11.23,4.17-12.21,17.35-6.97,6.67,3.88,11.09,10.62,18.6,13.65,12.61,5.08,23.41,2.11,33.42-5.91,2.91-2.33,5.64-4.95,8.16-7.74,2.81-.88,5.58-1.96,8.45-2.6,5.86-1.31,10.48-.32,11.05,6.95,3.07,5.7,1.1,10.62-2.38,15.3-3.09,5.79-5.13,12.2-10.02,16.93-2.99,1.88-4.24-.87-5.7-2.37-6.43-6.6-14.4-9.57-23.37-9.71-7.69-.12-15.47-.92-23.03,1.44-4.76,1.49-9.04,3.75-12.77,7.13-2,1.81-3.69,4.45-7.08,3.68-3.95-2.97-5.21-7.88-8.29-11.48-4.64-5.33-6.88-11.24-4.4-18.29Z" fill="#691343"/><path d="M189.2,269.05c14.57-16.19,33.11-16.13,52.44-12.82,8.31,1.42,13.46,7.75,19.53,12.65-2.28,4.59-6.62,6.44-10.99,8.25-4.46,2.9-9.38,4.17-14.66,3.89-12.07-.64-24.45,2.14-36.1-3.25-4.53-1.58-7.4-5.11-10.21-8.72Z" fill="#8a1849"/><path d="M111.62,225.14c-4.32,1.45-8.63,2.9-12.95,4.36-6.17-11.69-9.74-24.36-13.76-36.86,2.4-2.12,5.22-2.81,8.34-2.46,4.42,2.63,7.72,6.41,11.03,10.27-.81-8.21,1.7-17.15-3.82-24.94-2.62-.1-3.16,4.5-5.91,2.53-2.05-1.47-1.75-4.24-1.58-6.57.24-3.27.21-7.33,3.71-8.48,3.51-1.15,5.84,2.08,7.95,4.67,5.37,6.6,6.37,14.72,6.67,22.58.52,13.88,8.78,21.53,19.69,27.69,1.85,1.05,4.83,1.11,4.65,4.39-4.98,2.41-8.29-2.76-12.72-2.83-6.5-3.6-8.19,2.45-11.3,5.65Z" fill="#f7867a"/><path d="M176.51,239.27c.58,6.31,2.62,12.27,4.39,18.29-3.27,2.91-7.21,1.27-10.82,1.4-4.01.15-7.96.26-11.8,1.52-3.99-5.48-6.44-11.43-5.7-18.38,7.44-5.47,15.97-1.73,23.93-2.83Z" fill="#f57d72"/><path d="M271.18,251.95c.79-5.1,1.59-10.2,2.38-15.3,6.4-1.08,12.98,1.48,19.38-1.36,3.38-1.51,4.61,2.3,6.64,4,1.3,5.95-.42,11.05-4.33,15.55-8.01-1.09-16.59,2.57-24.07-2.89Z" fill="#f57d72"/><path d="M199.41,277.76c16.94,1.79,33.88,2.93,50.76-.63-1.06,3.13-4.07,3.97-6.59,4.7-15.21,4.45-30.23,5.69-44.17-4.07Z" fill="#edc4c5"/><path d="M295.25,254.83c1.44-5.18,2.89-10.37,4.33-15.55,1.07-.86,2.12-1.75,3.21-2.58,1.76-1.34,3.15-4.72,5.28-3.63,2.78,1.42,1.41,4.98,1.04,7.53-.42,2.92-1.63,5.72-2.49,8.57-1.86,2.33-2.79,5.49-5.63,6.94-2.13,1.09-4.77,3.28-5.75-1.28Z" fill="#f8a098"/><path d="M152.59,242.1c1.9,6.13,3.8,12.25,5.7,18.38-1.94,8.16-3.72-1.63-5.6-.05-5.55-5.43-9.6-11.4-7.23-19.73.11-1.99.22-3.98.34-6.14,4.36,1,3.99,5.66,6.78,7.55Z" fill="#f8a197"/><path d="M145.46,240.7c.33,7.34,4.19,13.39,7.22,19.73-4.34-.38-5.78-4.02-7.99-6.92-4.35-5.69-7.9-11.79-10.47-18.47,3.77,1.83,6.42,5.89,11.24,5.66Z" fill="#f57d72"/><path d="M124.32,253.49c-2.43-.18-5.27-.27-3.49-3.9,1.38-2.8,3.34-5.32,6.41-7.69,0,3.83,0,7.66,0,11.49-.92,1.61-1.95.17-2.93.1Z" fill="#d35c6f"/><path d="M326.33,247.74c.11-1.97.22-3.95.34-6.09,2.88.65,2.81,3.17,4.01,4.68,2.94,4.54,1.65,6.97-4.01,7.48-.12-2.07-.23-4.07-.34-6.07Z" fill="#d25b6f"/><path d="M111.63,235.04c3.85-1.63,4.07,1.72,3.87,3.57-.27,2.57-.31,6.16-3.4,7.02-2.32.64-1.59-2.14-1.95-3.54-.01-2.46.13-4.88,1.47-7.05Z" fill="#f9a095"/><path d="M231.25,289.18c.96-2.17,2.63-3.28,4.95-3.25,1.3.02,3.34-.45,3.37,1.44.04,2.42-1.99,3.65-4.19,3.9-1.6.18-3.16-.55-4.13-2.09Z" fill="#f6a2a0"/><path d="M135.64,222.32c-7.43-3.86-14.4-7.97-20.27-14.45-6.33-7.01-5.03-15.29-6.41-23.1-1.12-6.37-2.57-12.33-6.62-17.45-1.32-1.68-3-3.77-5.11-3.13-2.01.61-2.15,3.38-2.4,5.34-.32,2.52-.08,5.11-.08,7.85,4.24-.85,1.67-4.63,3.42-6.3,7.56,2.69,9.09,15.57,7.14,30.36-5.5-1.74-8.62-6.17-12.05-10.22-6.94-4.54-7.05-12.13-7.21-18.9-.21-9.13,1.74-18.2,5.46-26.7,1.02-2.34,2.08-5.15,5.06-5.3,3.07-.16,4.2,2.68,5.36,4.93,5.61,10.86,10.22,22.18,15.09,33.38,2.06,4.74,4.23,9.43,6.58,14.02,1.14,2.25,2.75,4.22,3.95,6.46,3.02,5.67,4.46,5.74,8.74.62,1.77-2.11,3.26-4.48,5.83-5.79,5.42-2.88,10.17-6.78,15.33-10.06,15.42-9.81,31.9-8.01,48.56-4.94,2.55.47,5.01,1.29,7.56,1.77,5.59.24,10.78,2.87,16.44,2.65,10.47-2.54,20.87-5.3,31.62-6.63,18.31-2.26,32.84,5.42,46.14,16.72,1.79,1.52,3.35,3.29,5.35,4.54.75.51,1.43,1.12,2.11,1.73,5.13,4.55,5.62,4.47,8.61-1.66,1-2.05,1.76-4.23,3.28-6,7.2-13.82,11.91-28.7,18.46-42.79,1.19-2.56,2.13-5.24,3.59-7.67,1.2-1.99,2.35-4.43,5.16-4.12,2.33.26,3.59,2.32,4.22,4.35,4.25,13.66,5.66,27.53,2.62,41.65-.47,2.17-1.75,3.83-3.71,4.92-1.5,4.43-5.06,7.09-8.5,9.85-2.54,4.15-4.9,5.85-7.06-.31-.42-1.2-.9.42-1.45.3-4.78,7.12-9.19,14.43-16.75,19.31-4.93,3.18-8.99,5.66-12.86-.91-5.54-4.37-9.63-10.22-15.09-14.69-13.01-10.66-35.63-8.36-46.21,4.84-1.16,1.44-2.79,3.08-1.83,4.97,1.14,2.24,3.32.72,5.08.57,2.99-.33,6.02-.9,8.59,1.35,4.7,3.18,10.84,1.21,15.56,4.35,5.81,6.12,8.64,6.76,12.67,2.9,3.48-.17,6.28,1.36,9.2,3.74-6.7,2.98-12.88,5.66-20.06,1.89-6.37-3.35-12.99-.97-19.1.96-23.14,7.32-46.22,8.78-69.33.34-7.54-2.75-14.91-.88-22.1.53-5.76,1.13-9.36-.83-12.81-4.64,1.68-2.07,3.76-3.58,6.34-4.23,12.29-3.08,24.55-6.34,37.36-6.21,1.43,0,2.85-.19,4.26-.33,7.52-.34,3.26-3.94,1.29-5.83-14.28-13.71-34.68-19.56-51.97.5-3.81,4.42-7.29,9.13-11.45,13.25-1.75.99-3.59,1.64-5.64,1.43Z" fill="#fe9b88"/><path d="M213.51,182.64c-13.89-3.06-27.78-6.3-42.07-2.77-9.05,2.23-16.43,7.69-23.83,12.97-1.96,1.4-3.63,2.91-6.2,2.67.09-3.2-1.91-1.19-3.1-1.23-3.77.27-7.53.55-11.26-.28-1.4.15-2.88-3.82-4.22.09-7.36-11.03-10.7-23.95-16.71-35.62-2.36-4.59-4.37-9.36-6.61-14.02-.59-1.23-.92-3.03-2.52-3.14-2.1-.15-2.47,1.97-3.03,3.37-6.15,15.41-9.83,30.89-.69,46.54-2.79.44-5.41,1.92-8.36,1.42-.18-1.42-.36-2.85-.53-4.27,0,0,.62.06.62.06,1-7.87-2.07-15.48-.91-23.53,1.44-9.94,4.29-19.27,8.66-28.18,1.44-2.93,3.27-6.04,7.25-5.79,3.6.23,4.99,3.24,6.26,6.03,2.15,4.71,4.05,9.53,5.7,14.44,2.72,10.53,7.82,19.47,16.48,26.39,3.95,3.16,7.97,4.89,12.95,4.08,6.5-1.06,13.23-1.42,19.34-3.84,12.99-5.14,26.4-6.42,40.16-5.74,3.05.15,6.11.03,9.17.02,13.46-.05,14.09-.67,13.97-13.83-.68-7.93,1.94-16.21-2.51-23.75,2.6-5.54,6.24-5.83,10.68-2.12.93,9.66-2.06,19.13-1.4,28.82.52,7.61,1.52,8.9,9.13,9.43,24.36,1.71,48.86,2.1,72.71,8.33,5.72,1.5,9.69-.12,13.94-4.97,6.61-7.54,10.13-16.28,13.71-25.21,2.02-5.02,3.79-10.15,6.24-14.98,1.43-2.82,2.5-6.77,6.58-6.32,3.71.41,4.94,4.02,6.12,7.1,3.14,8.2,4.55,16.77,5.25,25.48.45,5.61.21,11.28,1.23,16.85.23,3.67-.59,7.01-3.01,9.87-1.54,1.22-3.33,1.56-5.24,1.42,6.09-15.62,3.59-31.11-.77-46.54-.4-1.42-.86-3.52-2.97-3.37-1.61.11-1.98,1.89-2.51,3.13-5.97,14-11.88,28.03-17.83,42.04-1.54,3.63-2.67,7.51-5.73,10.3-.88-.34-.85-2.23-1.21-1.83q-7.12,7.87-14.73,3.04c1.08.98,2.87,2.1,1.84,4.57-5.01-.9-7.71-5.28-11.07-8.2-16.11-13.99-34.4-15.3-53.98-10.81-6.13,1.4-12.17,3.19-18.25,4.8.77-3.74-.36-5.75-4.56-5.28-4.13.47-8.39.2-12.18,2.39Z" fill="#f6887e"/><path d="M141.28,220.9c7.09-12.74,15.78-23.71,30.86-27.44,11.4-2.81,31.22,5.75,36.82,15.95.84,1.54,2.5,3.43.61,5.09-1.91,1.66-3.98.4-5.86-.64-14.11-8.81-27.67-3.64-41.35,1.41-4.41,1.63-8.64,4.84-13.85,2.88-2.41.92-4.83,1.84-7.24,2.75Z" fill="#fb8a77"/><path d="M251.51,214.21c-2.45,2.11-4.59.62-6.15-1.02-2.05-2.14.1-3.97,1.4-5.43,12.98-14.6,37.19-23.71,55.64-1.96,2.94,3.47,7.65,5.7,8.47,10.85-5.22-1.55-10.52-2.08-15.93-1.23-2.44,1.47-4.55-.07-6.66-.84-6.41-2.34-12.98-4.12-19.65-5.46-6.51-1.31-12.44-.09-17.11,5.09Z" fill="#fb8977"/><path d="M254.04,232.3c-5.04,13.23-24.57,21.24-39.71,16.23-8.79-2.91-15.36-8.66-20.47-16.22,20.06,6.6,40.12,7.18,60.18,0Z" fill="#f0cacb"/><path d="M148.52,218.14c11.7-3.29,22.54-9.24,34.79-10.85,7.96-1.04,14.92.26,20.4,6.56-.52,1.46-1.69,1.45-2.92,1.32-12.56-1.95-24.59.91-36.65,3.87-2.79.68-5.63,2.92-8.71.7-1.48.54-3.01.98-4.43,1.64-5.99,2.82-1.9-1.98-2.47-3.24Z" fill="#3f1b38"/><path d="M251.51,214.21c-1.05-.4-3.65-.22-1.19-2.21,5.39-4.37,11.52-5.93,18.48-4.7,9.08,1.61,17.66,4.67,26.14,8.12,1.95,1.53,3.9,3.05,5.85,4.58-13.22-2.52-25.67-8.11-39.38-6.32-3.3.18-6.6.35-9.89.53Z" fill="#401b38"/><path d="M362.72,186.99c.53-3.33,1.05-6.67,1.58-10-.28-4.33-1.96-8.87,1.9-12.57,2.53,5.97.51,12.23,1.15,18.32-2.25,6.89-1.83,14.14-2.79,21.2-.06,1.16-.3,2.24-1.45,2.85-1.36-.45-2.72-.9-4.07-1.35,1.23-6.15,2.46-12.29,3.69-18.44Z" fill="#5f456b"/><path d="M155.43,219.74c12.03-3.54,24.03-7.36,36.83-6.32,2.88.23,6.08-.7,8.54,1.75-15.66,0-30.65,3.54-45.35,8.58,0-1.34,0-2.67-.01-4.01Z" fill="#f7867a"/><path d="M289.63,220.93c1.31,2.14,3.73,4.35-1.66,4.34-7.08-.02-10.99-2.28-11.01-7.23,4.53-.37,8.42,2.04,12.67,2.9Z" fill="#feb4a8"/><path d="M340.48,198.26c.49-1.46.98-2.92,1.83-5.43,1.99,2.89-.49,11.77,6.68,5.44,1.32,4.41-2.43,5.89-4.87,7.87-1.42,1.16-3.21.52-3.45-1.68-.22-2.05-.14-4.13-.19-6.2Z" fill="#d35c70"/><path d="M79.21,148.77c1.32-10.38,1.06-20.99,4.41-31.09,1.52-1.62,3.49-2.34,5.57-2.86,26.51-6.54,44.23-23.88,57.31-46.84,1.4-2.46,2.7-4.95,4.61-7.06,8.38-2.42,16.83-4.47,25.57-5.13,8.38,8.39,15.46,18.09,25.38,24.94,5.77,3.99,11.41,8.15,18.26,10.2,2.73,1.2,5.76,2,7.03,5.19,1.09,7.99,1.55,15.96-.75,23.85-.98,3.03-2.57,5.66-5.09,7.66-13.23,12.5-29.97,17.24-47.07,21.05-7.13,1.59-13.62-1.37-19.53-4.66-9.46-5.25-18.91-10.53-28.41-15.73-3.57-3.5-4.61-7.61-2.5-12.2,7.41-16.17,18.73-28.62,35.33-35.52,10.41-4.33,14.42-2.78,20.93,6.34,5.49,7.71,10.09,15.81,11.98,25.23,2.58,12.93-5.54,17.06-15.58,16.14-6.7-.61-13.59-1.46-19.55-5.25-2.63-2.78-1.73-5.92-.84-9.12-2.65,3.51-6.03,6.23-9.37,9.91,2.65.47,5.07-.88,7.24.21,4.44,3.08,8.52,6.63,12.71,10.02,3.67,2.97,7.35,3.32,11.76,1.35,18.08-8.08,19.37-10.87,12.3-29.15-3.59-9.27-8.44-17.77-15.38-25.01-3.5-3.65-7.22-4.54-12.05-2.78-19.51,7.13-31.82,21.73-41.37,39.28-1.64,3.02-.58,5.86.72,8.75,5.07,11.3,13.72,19.5,23.12,27.07,2.37,1.91,5.13,3.35,6.83,6.02,1.54,3.36,4.73,5.16,7.16,7.68,4.41,4.55,3.75,7.32-2.35,8.67-17.36,3.84-33.88-.81-43.19-17.73-1.25-2.27-2.61-4.46-4.14-6.56-2.12-5.17-4.02-10.44-6.43-15.47-2.66-5.54-5.01-5.74-8.14-.65-5.19,8.42-8.29,17.73-9.36,27.5-.79,7.26-1.82,14.71.85,21.93.71,1.93-.12,3.15-2.17,3.48-.6-2.37-1.2-4.73-1.81-7.1-1.33-10.85-2.65-21.7-3.98-32.56Z" fill="#feaa87"/><path d="M87.71,52.78c-12.59,21.92-15.7,46.18-17.03,70.77-.5,9.3-.8,18.69.4,28.01-1.52.55-3.05,1.09-4.57,1.64-4.2-.9-2.87-4.32-2.89-6.85-.11-13.8-.42-27.62,1.29-41.37,1.28-16.12,4.83-31.68,11.38-46.5,1.03-2.33,1.99-4.7,2.98-7.06,1.81-1.95,3.61-3.91,5.42-5.87,2.6,1.75,3.24,4.32,3.03,7.24Z" fill="#4a3757"/><path d="M75.65,153.96c2.06,7.21,1,11.99-7.03,14.71-5.63,1.91-10.49,6.14-15.63,9.43-3.53,2.26-5.08,1.46-5.05-2.78.02-2.42.23-4.57,2.01-6.51,7.02-7.65,15.27-13.06,25.7-14.86Z" fill="#b2a7b9"/><path d="M367.04,130.34c1.16,5.91-.92,12.05,1.31,17.87-1.44,5.3-2.44,10.66-2.15,16.2-2.39,3.92-1.09,8.41-1.9,12.57-2.72-7.87-.22-16.21-2.43-24.23-1.73-6.28-2.56-12.84-4.94-18.97-.84-2.16-1.73-5-4.28-5.15-2.46-.14-2.8,2.87-3.6,4.67-2.88,6.41-6.21,12.74-8.1,19.46-2.98,10.55-9.33,18.74-16.27,26.71-1.92,2.21-3.8,3.2-7.28,2.54-21.34-4.05-42.61-8.89-64.59-7.83-2.03.1-4.11-.82-6.18-1.18-5.61-.96-12.97,2.42-16.49-3.33-3.42-5.59-1.6-12.95-.96-19.35.56-5.65-.02-11.64,2.54-17.05,4.73-2.22,7.68,1.92,11.44,3.18,9.79,8.4,19.54,16.86,31.41,22.34.8.48-.06-.33.62.3,7.19,6.56,14.64,7.51,22.47,1.13,16.13-7.29,28.62-18.34,35.92-34.75,1.02-1.75,1.53-4.12,4.38-3.68,2.81,3.91,6.29,4.81,10.82,2.9,4.71-1.98,9.59-.28,14.39.04,3.57.24,3.31,3.22,3.87,5.59Z" fill="#fea287"/><path d="M378.58,150.12c.98-27.63-.49-54.97-9.66-81.4-1.93-5.55-4.24-10.91-7.37-15.89-.19-2.92-.26-5.78,3.05-7.22,7.01,7.75,10.36,17.42,14.09,26.9,3.38,13.97,5.21,28.19,7.04,42.41,0,10.33,0,20.66.01,30.99,0,2.81.35,5.77-2.91,7.28-1.97-.25-3.49-1.13-4.25-3.06Z" fill="#4a3657"/><path d="M371.84,156c11.36,2.73,19.99,7.09,26.72,14.77,1.72,1.96,1.12,3.82.07,5.81-1.44,2.74-3.24.89-4.75.33-6.13-2.26-12.17-4.77-18.32-6.99-5.91-2.14-5.36-6.94-5.08-11.65.11-1.82,1.36-2.26,1.35-2.26Z" fill="#b2a7b8"/><path d="M364.59,45.61c-1.87,2.05-.62,5.41-3.05,7.22-35.12-18.27-72.93-26.75-112.02-29.8-56.49-4.41-110.49,5.57-161.8,29.76-2.06-1.97-2.23-4.74-3.02-7.24,8.3-7.53,18.69-11.26,28.7-15.61,18.03-7.83,36.8-13.33,56.09-17.08,19.99-3.79,40.03-7.17,60.47-6.79,16.42.3,32.49,3.34,48.57,6.33,1.82.34,3.68.41,5.52.61,11.37,3.21,22.81,6.2,34.09,9.7,14.76,4.58,28.54,11.5,42.16,18.7,1.43,1.4,2.86,2.8,4.29,4.2Z" fill="#311e3b"/><path d="M122.83,194.09c-.09-1.57-.18-3.15-.28-5.04,2.32.17,2.28,2.42,3.31,3.59,4.68,4.41,9.38,1.6,14.07.02,1.07-.17,2.26-1.79,2.98-.63.38.62-.94,2.29-1.49,3.49q-9.85,13.9-18.58-1.42Z" fill="#cf5a70"/><path d="M313.56,199.75c-2.03-2.5-4.06-4.99-6.34-7.81,3.7-.47,5.6,2.26,8.01,3.61,4.14,2.33,7.63,3.7,9.19-2.7.3-1.24,1.57-2.23,2.44-3.4,1.65,1.43.63,3.07.81,4.52-.67,1.42-1.37,2.82-2,4.26-4.24,9.83-5.13,9.94-12.11,1.52Z" fill="#cf5a70"/><path d="M213.51,182.64c3.75-4.01,14.8-6.02,18.77-3.03,4.66,3.52-2.42,3.55-2.02,5.92-5.85.58-10.96-3.11-16.75-2.89Z" fill="#cf5a70"/><path d="M182,181.29c3.88.04,7.37,1.22,9.41,4.82.97,1.71-.85,2.41-2.06,2.96-4.01,1.79-7.27.55-9.9-2.73-.96-1.2-3.04-2.12-2.03-4,.91-1.71,2.95-.76,4.58-1.04Z" fill="#fec8b9"/><path d="M268.11,189.82c-1.51-.13-3.64-.01-3.21-1.78.67-2.8,3.54-3.29,6.01-3.74,1.07-.19,2.78-.03,2.53,1.45-.47,2.91-2.72,3.99-5.34,4.07Z" fill="#fec4b6"/><path d="M110.25,151.64c4.66,2.68,6.88,7.5,9.9,11.57,5.19,6.99,11.63,10.61,20.57,11.34,5.84.48,11.45,1.52,17.21-.23,1.33-.4,3.02-.22,3.53-1.73.54-1.58-1.05-2.39-1.94-3.4-2.7-3.09-7.27-4.48-8.32-9.08,4.52-2.26,7.46,2.12,11.32,2.68,4.21,2.67,8.67,3.76,13.57,2.2,1.27.39,1.98,1.38,2.55,2.48,4.79,2.81,7.31-2.57,11.16-3.1,1.03-.25,2.07-.37,3.12-.41,4.37.11,8.68-.36,12.95-1.28,4.57.15,8.44-2.44,12.74-3.31,2.45-.5,4.83-1.88,7.44-.65.11,15.55.08,16.2-15.57,15.4-19.67-1.01-38.64,1.58-57.29,7.64-3.73,1.21-7.72,1.76-11.63,2.31-5.63.79-10.13-.98-14.69-4.84-8.79-7.44-14.18-16.51-16.62-27.57Z" fill="#fe9b88"/><path d="M178.01,168.55c-.49-.98-.98-1.96-1.47-2.94.14-4.3,4.06-4.9,6.65-6.8,11.17-5.1,19.8-13.77,29.48-20.96,2.92-1.43,5.35-4.27,9.14-3.16,3.36-.23,4.36,1.5,4.29,4.65-.15,6.46-.05,12.92-.06,19.39-6.5,2.17-12.79,5.08-19.74,5.67.04-4,4.19-5.3,5.56-8.49,1.08-2.51,3.16-4.63,2.78-8.13-8.62,4.96-13.05,14.68-22.48,18.02-.95,0-1.9,0-2.84,0-4.19-.79-7.04,3.9-11.32,2.76Z" fill="#feaa87"/><path d="M221.81,134.67c-2.81,1.41-5.63,2.82-8.44,4.22-2.07-3.09.8-4.72,2.11-6.71,1.42-2.15,3.67-3.66,4.91-5.99,2.4-1.15,3.06-3.6,4.25-5.66,3.5-5.79,6.37-2.15,9.32.6,2.86,2.71,5.03,5.97,7.29,9.17,1.01,2.3,3.76,4.18,1.78,7.21-3.77-1.41-7.54-2.83-11.31-4.24-3.76-2.8-6.9-1.2-9.9,1.39Z" fill="#cf5970"/><path d="M139.92,192.65c-1.33.9-2.7,1.76-4,2.72-4.53,3.35-7.98,2.83-10.07-2.73,4.69,0,9.38.01,14.07.02Z" fill="#f7867a"/><path d="M240.21,130.45c-2.36-2.82-4.72-5.64-7.09-8.46-7.3-7.58-4.77-16.77-4.21-25.64,1.76-4.49,6.19-5.12,9.87-6.82,14.4-6.02,25.44-16.38,35.63-27.79,1.57-1.76,2.93-3.63,5.23-4.49,9.33,1.2,18.41,3.44,27.31,6.45,9.44,28.04,28.91,44.34,57.9,49.5,1.5,5.62,1.96,11.37,2.19,17.15-3.19-4.93-10.98-6.49-19.72-3.19-5.7,2.16-8.88,1.19-9.63-5.15-1.98-1.38-3.34-3.26-4.27-5.47-8.52-17.89-21.6-30.96-40.13-38.43-4.76-1.92-8.29-1.14-11.98,2.56-10.48,10.5-15.72,23.72-20.19,37.39-1.07,3.26.25,5.91,2.77,8.14,5.02,4.43,11,7.14,17.01,9.83,2.69,1.21,4.97-.06,7.25-1.44,4.07-2.48,7.16-6.05,10.63-9.2,3.53-2.91,7.46-2.04,12.32-.97-3.3-4.46-8.07-6.29-11.07-10.73.69,2.91,1.12,5.3-1.57,6.77-10.66,3.66-21.37,5.49-32.3,1.13-3.47-3.32-2.49-7.42-1.56-11.22,2.57-10.43,7.76-19.52,14.8-27.64,4.1-4.73,8.84-5.73,14.55-3.82,12.47,4.16,22.03,12.28,30.01,22.38,3.18,4.03,6.31,8.2,7.92,13.22,3.21,6.35-.37,11.51-2.94,16.85-3.67,6.4-8.86,10.82-16.18,12.58-1.81.44-3.54,1.3-5.14,2.28-11.51,7.07-23.38,7.58-35.71,2.28-3.01-1.29-6.16-2.62-9.39-2.94-10.24-1.03-17.29-6.5-22.33-15.08Z" fill="#fea887"/><path d="M179.43,55.62c11.29-1.75,22.6-3.23,34.07-2.64,1.75,1.62,6.25,1.79,3.17,5.97-7.48-.78-14.98-3.26-22.15.19,7.9,1.22,16.08,2.89,23.97-1.16,6.55,2.39,9.6,7.18,9.5,14.02-.06,4.2.62,8.46-.94,12.54-4.38,3.57-9.65,4.24-14.4,2.05-13.39-6.19-24.48-15.4-32.86-27.67-.69-1.01-.94-2.12-.37-3.3Z" fill="#feaf87"/><path d="M242.96,53.05c8.85.83,17.7,1.67,26.55,2.51,2.07.2,4.27-.22,6.04,1.35,1.57,2,.24,3.57-.89,5.02-8.55,10.93-19.16,19.35-31.74,25.11-4.16,1.91-8.7,2.55-12.1-1.98-3.57-13.56.53-24.21,12.14-32Z" fill="#feae87"/><path d="M87.68,106.45c5.69-14.39,16.56-24.03,29.52-32.22.62,3.2-5.53,4.47-2.54,7.18,2.38,2.16,6.33,1.63,9.33.02,2.49-1.34,4.67-3.43,4.61-6.61-.07-4.12-4.08-1.46-5.89-3.13,3.09-2.39,6.53-3.72,10.04-4.93,7.15.86,8.34,2.49,6.08,8.86-3.01,8.49-7.93,15.07-16.66,18.86-9.01,3.91-17.24,9.54-26.54,12.9-2.7.97-5.75,3.07-7.95-.93Z" fill="#feae88"/><path d="M317.86,67.16c17.03,7.09,32.59,16.08,42.2,32.72.67,1.17,1.03,2.52,1.53,3.79-.08,8.83-2.01,10.19-9.89,5.97-14.4-7.7-27.46-17-34.75-32.4-1.67-3.53-2.96-7.04.91-10.08Z" fill="#feaa88"/><path d="M87.68,106.45c4.05,2.69,7.31-.66,10.35-1.99,9.58-4.18,18.99-8.81,28.1-13.93,6.87-3.87,9.67-11.12,12.06-18.22,1.65-4.9-4.1-3.21-5.45-5.55,5.87-2.74,11.94-4.85,18.36-5.85-11.32,27.85-30.95,46.69-59.98,55.3-2.43.72-5,.99-7.51,1.46,1.35-3.74,2.71-7.49,4.06-11.23Z" fill="#f4877f"/><path d="M317.86,67.16c-3.14,10.21,4.56,16.07,9.71,22.5,6.19,7.73,14.79,12.9,23.39,17.7,7.75,4.33,7.85,4.14,10.62-3.7,1.64,2.99,2.71,6.16,3.26,9.52-1.07,1.59-2.64,1.96-4.34,1.52-25.37-6.69-43.98-21.34-53.94-46.07-.64-1.59-2.05-3.48.39-4.94,3.64,1.15,7.27,2.31,10.91,3.46Z" fill="#f38081"/><path d="M242.96,53.05c-.29.86-.31,2.09-.9,2.53-10.33,7.5-11.49,18.15-10.32,29.63.76,1.04.89,2.11.14,3.22-2.15,1.49-4.38,1.48-6.68.38-1.86-1.72-.3-2.62.86-3.61,0-3.29-.4-6.65.09-9.86,1.17-7.79-2.2-13.06-8.48-17h-.02c-1.38-1.79-2.76-3.57-4.14-5.35,9.82.02,19.64.05,29.46.07Z" fill="#f37f81"/><path d="M226.06,85.19c-.47.95-.93,1.9-1.4,2.85-.8,2.79-3.67,2.83-5.56,4.17-18.06-7.58-32.19-19.73-42.42-36.43.92-.05,1.84-.11,2.75-.16,7.58,14.36,20.47,22.62,34.32,29.68,3.96,2.02,8.18-.97,12.31-.11Z" fill="#f48381"/><path d="M231.73,87.96c0-.92,0-1.84,0-2.76,2.53,1.58,5.59,2.3,8.07,1.15,14.42-6.7,28.39-14.11,35.74-29.45,1.37.11,2.73.23,4.1.34-10.37,14.51-23.26,26.05-39.56,33.58-2.95-.49-6.23.02-8.36-2.86Z" fill="#f48381"/><path d="M162.55,164.32c-3.78-1.4-7.56-2.81-11.35-4.21-7.2-5.94-14.47-11.77-20.88-18.63-12.7-13.61-13.51-20.5-3-35.25,8.26-11.6,18.42-21.19,31.32-27.54,10.81-5.33,13.74-4.92,20.86,4.71,7.7,10.41,13.47,21.94,17.62,34.26,1.27,3.78.67,6.73-2.3,9.5-5.61,5.24-12.42,8.38-19.29,11.4-2.15.95-4.57.63-6.65-1-5.15-4.01-10.83-7.38-14.95-12.62.53-1.52,1.55-2.57,3.09-3.07,6.62,2.38,13.45,4.33,20.4,4.67,8.49.41,14.78-2,13.36-11.85-1.8-12.49-6.96-23.22-16.06-31.95-2.42-2.32-5.07-3.17-8.9-2.29-20.73,4.78-32.53,19-40.77,37.3-1.77,3.92.8,6.71,2.12,9.86,8.37,10.58,18.26,19.51,29.36,27.12,1.61,3.44,6.37,4.92,6,9.6Z" fill="#f48280"/><path d="M155.39,155.76c-6.4-5.31-13.87-9.21-19.48-15.64-3.41-3.91-6.82-7.64-8.74-12.52,8.38,2.52,15.94,6.91,23.02,11.76,11.57,7.92,23.29,9.27,36.42,4.6,12.17-4.33,24.3-8.41,33.77-17.75-.88,5.04-6.45,7.48-7.02,12.69-9.26,7.96-18.17,16.38-29.64,21.26-.26-1.81-.96-2.11-2.6-1.08-9.45,5.91-18.02,4.53-25.74-3.31Z" fill="#f7927a"/><path d="M123.04,150.41c5.37,3.88,10.7,5,14.18,9.15,3.03,3.61,5.65,9.16,3.06,11.86-3.07,3.2-7.38-1.38-10.56-3.85-5.28-4.1-6.18-10.04-6.68-17.15Z" fill="#febfa9"/><path d="M191.46,89.12c10.07,3.25,15.51,8.86,19.27,16.41.49.99,1.39,2.13.12,3.12-1.06.83-2.2.27-3.29-.18-8.2-3.37-11.87-10.36-16.1-19.36Z" fill="#fec4a9"/><path d="M155.22,95.13c-3.99,6.29-6.2,12.14-11.14,16.02-1.6,1.26-3.82,3.15-5.66,1.83-2.4-1.72.12-3.83,1-5.44,3.22-5.94,8.04-10.06,15.8-12.4Z" fill="#fec4a8"/><path d="M185.25,109.9c-.52,1.73.95,4.61-2.5,4.71-3.34.1-7.39-7.48-7.2-13.31.04-1.33-.03-3.53,1.9-2.82,5.11,1.87,7.55,5.94,7.8,11.41Z" fill="#fefbfa"/><path d="M157.02,121.87c-.2,1.86-1.18,2.94-3.09,3.07-3.45-.5-6.66,2.44-10.55.7,5.34-5.08,10.53-10.01,15.71-14.94-.5,3.47-3.49,7.01-2.07,11.17Z" fill="#cf5a70"/><path d="M230.39,95.24c.47,8.96-1.98,18.22,2.73,26.75-2.69-1.31-4.83-5.85-8.49-1.44,2.62-8.32,1.05-16.87,1.36-25.32,1.47-.46,2.93-.48,4.4.01Z" fill="#f38181"/><path d="M230.39,95.24c-1.47.78-2.93.8-4.4-.01-2.3-1-4.6-2.01-6.9-3.01.13-3.7,3.93-2.49,5.56-4.17,2.36-.03,4.71-.05,7.07-.08,2.99.35,5.95.8,8.36,2.86-3.23,1.47-6.46,2.94-9.69,4.41Z" fill="#cf5a71"/><path d="M160.77,67.61c7.59-5.53,15.97-4.06,21.54,3.08.62.8,1.2,1.71.45,2.39-.54.49-1.81.67-2.52.4-3.68-1.43-7.35-2.93-10.9-4.66-2.74-1.34-5.36-2.6-8.57-1.21Z" fill="#fec7a8"/><path d="M162.08,91.91c4.79-6.94,5.85-6.94,10.79,0h-10.79Z" fill="#fec3a5"/><path d="M240.21,130.45c7.16,8.79,17.56,11.07,27.55,14.94,14.89,5.76,28.16,6.03,42.36-2.1,6.5-3.72,13.52-6.01,17.51-12.89,3.04-.31,3.25-5.47,7.21-4.21-7.1,17.11-19.92,28.28-36.67,35.39-.59-3.95,2.76-4.22,4.8-5.38-1.04.23-2.28.72-3.34,1.6-6.85,5.7-14.25,6.64-22.26,2.63-.99-.5-2.11-1.12-3.28-.29-12.05-5.22-22.27-12.94-31.07-22.61-.94-2.36-1.88-4.72-2.81-7.08Z" fill="#f68c7d"/><path d="M274.1,160.14c.9-1.45,2.58-1.88,3.7-1.22,8.84,5.25,16.24.85,23.74-3.24.76-.41,1.52-1.24,2.83-.25-1.6,2.52-5.27,3.06-6.19,6.15-11.49,7.59-12.28,7.54-24.08-1.44Z" fill="#d05b71"/><path d="M317.87,177.09c-1.5-.67-5.53,1.02-4.67-1.8,1.38-4.54,5.48-7.45,10.58-8.02,1.97-.22,4.25.1,3.84,2.73-.82,5.27-4.38,7.38-9.74,7.09Z" fill="#fec7b9"/><path d="M334.84,126.18c-2.97.44-3.18,5.6-7.21,4.21,1.86-4.99,5.88-9.57,2.88-15.47,1.27-2.36,1.61-2.25,4.29,1.45.88,1.92,3.2,3.09,2.9,5.62-.95,1.4-1.9,2.79-2.86,4.19Z" fill="#d15c71"/><path d="M192.17,165.78c6.97-6.5,13.89-13.05,20.96-19.44.85-.77,2.52-.64,4.38-1.06-1.26,8.37-5.11,14.38-11.2,19.1-4.59,1.69-9.37,1.47-14.13,1.4Z" fill="#febea9"/><path d="M155.39,155.76c9.8,6.86,19.68,6.86,29.11-.61,1.92,2.92-.76,3.53-.78,5-2.44,1.76-5.38,2.86-7.19,5.45-4.98,3.04-9.59,1.94-13.99-1.28-2.38-2.85-4.77-5.71-7.15-8.56Z" fill="#d05a71"/><path d="M178.01,168.55c3.62-1.56,6.61-5.67,11.32-2.76-3.33,2.61-6.5,5.67-11.33,3.91-.14-.05-.27-.36-.26-.54,0-.21.18-.41.27-.61Z" fill="#febea9"/><path d="M334.8,116.37c-1.56-.08-2.11-3.18-4.28-1.45-7.84-16.57-19.32-29.1-37.51-34.49-4.76-1.41-8.42-1.01-12.06,2.77-10.08,10.48-15.58,22.68-15.28,37.33,2.5,3.13,5.19,5.88,9.06,7.51,6.38,2.68,12.22,2.83,17.61-2.14,1.52-1.4,3.07-2.96,5.42-2.92,1.51.64,1.78,1.97,1.88,3.4-16.33,17.37-15.65,13.61-33.97,3.41-7.04-3.92-8.21-9.14-5.02-16.47,5.63-12.95,11.39-25.67,21.71-35.78,2.69-2.63,4.94-3.59,8.55-2.13,19.87,8.07,34.78,21.39,43.9,40.96Z" fill="#f48181"/><path d="M279.22,71.09c-16.38,9.4-21.92,29.18-38.62,39.06-1.04-7.73,1.27-13.5,6.76-17.81,3.3-2.6,6.91-4.93,10.68-6.78,5.05-2.48,9.11-5.75,11.49-10.92,1.79-3.9,4.54-5.88,9.69-3.54Z" fill="#fec4a9"/><path d="M298.11,123.37c-12.47,10-17.22,10.7-28,4.39-2.86-1.67-4.85-3.64-4.45-7.22,11.41,2.91,22.61.86,33.8-1.42,1.45,2.02.6,3.31-1.35,4.25Z" fill="#f9997f"/><path d="M298.11,123.37c.45-1.42.9-2.83,1.35-4.25.69-3.24-1.68-5.67-3.11-10.46,6.95,6.18,12.48,11.1,18.9,16.81-5.92,1.89-11.15-2.99-15.63.91-1.2-.65-1.47-1.78-1.51-3.01Z" fill="#d05b71"/><path d="M306.6,95.13c10.8,4.57,14.98,11.6,13.44,23.75-5.25-8.06-6.52-17.58-13.41-23.77l-.02.03Z" fill="#fec0a6"/><path d="M277.1,104.96c.73-5.89,2.75-9.86,6.4-13,.81-.69,1.65-2.13,2.78-1.27.72.55,1.13,2.05,1.02,3.05-.61,5.69-4.09,9-10.21,11.21Z" fill="#fef9f7"/><path d="M311.97,132.02c-1.4,3.05-3.99,5.38-7.53,6.28-2.01.51-2.22-1.47-1.94-2.8.84-4.04,4.05-5.53,7.62-6.21,1.27-.24,2.04.9,1.85,2.72Z" fill="#febfa8"/><path d="M306.62,95.11c-4.75-.85-9.23-2.93-14.17-2.9-1.24,0-2.4-.56-2.45-1.91-.07-1.85,1.42-2.35,2.85-2.16,5.39.7,10.08,2.86,13.75,7,0,0,.02-.03.02-.03Z" fill="#fec2a6"/><path d="M217.66,58.33c-8.45,7.78-17.3,2.92-27.49,1.36,9.93-6.43,18.68-4.57,27.47-1.36,0,0,.02,0,.02,0Z" fill="#fef9f7"/><path d="M268.14,59.01c-9.01,5.16-17.89,3.62-27.01,3.47,5.68-6.28,16.16-7.69,27.01-3.47Z" fill="#fefcfa"/><path d="M337.91,88.1c-5.6.01-8.21-3.72-9.79-8.41-.74-2.2.91-2.76,2.82-2.77,4.1-.03,12.26,5.64,11.95,8.51-.33,3.01-2.89,2.43-4.98,2.68Z" fill="#fefcfb"/><ellipse cx="230.29" cy="453.98" rx="163.99" ry="36.86" fill="#311e3b" opacity=".2"/></g></svg>
