<svg id="icon-medal" xmlns="http://www.w3.org/2000/svg" width="40" height="40" viewBox="0 0 40 40">
  <rect id="Rectangle_4927" data-name="Rectangle 4927" width="40" height="40" fill="none"/>
  <g id="Group_2069" data-name="Group 2069" transform="translate(5.333 0)">
    <g id="Group_2068" data-name="Group 2068">
      <path id="Path_102" data-name="Path 102" d="M90.338,12.233,89.086,10.6c-.008-.138-.006-.344,0-.481,0-.084,0-.166,0-.245V7.7a3.577,3.577,0,0,0-2.815-3.42l-2.176-.627a.548.548,0,0,1-.3-.215L82.517,1.584A3.671,3.671,0,0,0,78.268.212l-2.14.761a.563.563,0,0,1-.377,0L73.611.212a3.671,3.671,0,0,0-4.249,1.372L68.086,3.439a.546.546,0,0,1-.263.2l-2.243.471c-.037.008-.074.017-.111.028a3.66,3.66,0,0,0-2.675,3.585V9.956c0,.08,0,.165,0,.251,0,.109.006.275,0,.38l-1.257,1.648a3.626,3.626,0,0,0,0,4.465L62.8,18.337c.006.105,0,.273,0,.4,0,.1,0,.209,0,.316v2.236a3.526,3.526,0,0,0,2.815,3.361l1.3.374V39.776l9.031-5.446,9.031,5.451V25.028l1.3-.374a4.212,4.212,0,0,0,2.815-3.905V18.59c0-.089,0-.209,0-.295l1.244-1.589A3.626,3.626,0,0,0,90.338,12.233ZM81.859,34.269h0L75.94,30.7l-5.92,3.57V28.073a3.668,3.668,0,0,0,3.591.649l2.14-.761a.562.562,0,0,1,.377,0l2.14.761a3.675,3.675,0,0,0,3.591-.649v6.2Zm6.025-19.48L86.5,16.553q-.039.05-.074.1a3.342,3.342,0,0,0-.454,1.934v2.178c0,.016,0,.032,0,.049a1.225,1.225,0,0,1-.566.847l-2.176.627a3.667,3.667,0,0,0-2,1.441l-1.276,1.855a.555.555,0,0,1-.644.2l-2.14-.761a3.685,3.685,0,0,0-2.461,0l-2.14.761a.555.555,0,0,1-.644-.2l-1.276-1.855a3.667,3.667,0,0,0-2-1.441l-2.176-.627a1.142,1.142,0,0,1-.566-.307c0-.015,0-.029,0-.044V19.057c0-.089,0-.177,0-.262a3.329,3.329,0,0,0-.561-2.245L64,14.8l-.009-.012a.521.521,0,0,1,0-.644l.012-.015,1.342-1.759a3.369,3.369,0,0,0,.559-2.227c0-.064,0-.127,0-.187V7.7q0-.024,0-.049a.562.562,0,0,1,.388-.514l2.244-.471q.056-.012.111-.028a3.668,3.668,0,0,0,2-1.441l1.276-1.855a.555.555,0,0,1,.644-.2l2.14.761a3.685,3.685,0,0,0,2.461,0l2.14-.761a.555.555,0,0,1,.644.2L81.23,5.2a3.667,3.667,0,0,0,2,1.441l2.177.627c.133.038.565.182.565.431V9.879c0,.066,0,.135,0,.206a3.336,3.336,0,0,0,.6,2.352l1.3,1.7.009.011A.521.521,0,0,1,87.884,14.789Z" transform="translate(-60.77 0.001)" fill="#cf3"/>
    </g>
  </g>
</svg>
