<svg xmlns="http://www.w3.org/2000/svg" xmlns:xlink="http://www.w3.org/1999/xlink" width="601.035" height="165.016" viewBox="0 0 601.035 165.016">
  <defs>
    <clipPath id="clip-path">
      <rect id="Rectangle_5340" data-name="Rectangle 5340" width="592.748" height="162.026" fill="#ffc233" stroke="rgba(0,0,0,0)" stroke-width="1"/>
    </clipPath>
  </defs>
  <g id="Group_11567" data-name="Group 11567" transform="translate(0.5 0.516)">
    <path id="Path_18267" data-name="Path 18267" d="M56.863,36.765a56.648,56.648,0,0,1,2.3,11.893q.522,6.106.821,12.231T60.9,73.1a57.008,57.008,0,0,0,2.533,11.924A83.52,83.52,0,0,0,70.6,101.069q4.392,7.592,8.916,15.19,1.117,1.858,2.116,3.849A28.481,28.481,0,0,1,83.3,124.2a23.31,23.31,0,0,1,1.115,9.382,20.961,20.961,0,0,1-2.56,8.29,22.938,22.938,0,0,1-5.756,6.716,29.927,29.927,0,0,1-8.556,4.7,22.779,22.779,0,0,1-8.572,1.473,21.326,21.326,0,0,1-7.79-1.674,19.6,19.6,0,0,1-6.454-4.51,21.455,21.455,0,0,1-4.48-7.055,25.041,25.041,0,0,1-1.288-4.33,43.712,43.712,0,0,1-.658-4.384q-1-9.381-2.053-18.727a75.221,75.221,0,0,0-4.365-18.2,65.576,65.576,0,0,0-5.175-10.7Q23.634,80.078,20.3,75.125T13.828,65.091A63.688,63.688,0,0,1,8.554,54.446a29.257,29.257,0,0,1-2.042-9.46,18.7,18.7,0,0,1,1.739-8.662,21.352,21.352,0,0,1,6.018-7.449,36.217,36.217,0,0,1,10.742-5.739,34.365,34.365,0,0,1,11.614-2.256,21.607,21.607,0,0,1,9.2,1.9,18.171,18.171,0,0,1,6.761,5.472,26.748,26.748,0,0,1,4.274,8.509M23.146,51.284a35.659,35.659,0,0,1-1.071-3.618,19.475,19.475,0,0,1-.558-4.2,12.839,12.839,0,0,1,.6-4.186,6.693,6.693,0,0,1,2.469-3.4A5.787,5.787,0,0,0,26,34.391a2.022,2.022,0,0,0,.1-1.8,2.2,2.2,0,0,0-1.553-1.34,3.651,3.651,0,0,0-2.406.043,8.72,8.72,0,0,0-5.146,4.448,16.153,16.153,0,0,0-1.564,6.672,28.263,28.263,0,0,0,.715,7A46.417,46.417,0,0,0,17.734,55c.192.516.473,1.229.852,2.133a13.6,13.6,0,0,0,1.437,2.6,6.817,6.817,0,0,0,2.013,1.932,2.708,2.708,0,0,0,2.479.19,3.619,3.619,0,0,0,1.776-1.4,2.083,2.083,0,0,0,.3-1.927A20.747,20.747,0,0,0,24.871,54.9a20.527,20.527,0,0,1-1.724-3.619m7.988,22a3.989,3.989,0,0,0,1.846-1.423,2.114,2.114,0,0,0,.359-2.042,15.089,15.089,0,0,0-.676-1.561A5.8,5.8,0,0,0,31.6,66.747a3.828,3.828,0,0,0-1.557-.94,3.081,3.081,0,0,0-2.047.128,3.348,3.348,0,0,0-1.744,1.442,2.2,2.2,0,0,0-.265,1.966,9.747,9.747,0,0,0,.708,1.449,7.718,7.718,0,0,0,1.144,1.531,4.088,4.088,0,0,0,1.47,1.015,2.463,2.463,0,0,0,1.827-.05" transform="translate(2.069 5.941)" fill="#ffc233" stroke="rgba(0,0,0,0)" stroke-width="1"/>
    <path id="Path_18269" data-name="Path 18269" d="M147.328,43.955q1.08,6.712,2.85,13.387a104.874,104.874,0,0,0,4.4,13.081,91.749,91.749,0,0,0,6.19,12.336,74.355,74.355,0,0,0,8.214,11.172,68.123,68.123,0,0,1,5.419,7.132,19.6,19.6,0,0,1,3.048,8.234,14.466,14.466,0,0,1-1,7.975,19.124,19.124,0,0,1-4.521,6.331,27.173,27.173,0,0,1-6.754,4.557,30.089,30.089,0,0,1-7.7,2.524,17.38,17.38,0,0,1-7.873-.283,17.852,17.852,0,0,1-6.455-3.33,20.319,20.319,0,0,1-4.761-5.642,23.5,23.5,0,0,1-2.734-7.216q-.364-1.8-.9-4.685t-1.33-6.1a55.324,55.324,0,0,0-1.986-6.338,23.6,23.6,0,0,0-2.9-5.489,11.643,11.643,0,0,0-4.08-3.591,7.808,7.808,0,0,0-5.44-.553,9.262,9.262,0,0,0-6.548,4.551,18.674,18.674,0,0,0-2.15,7.865,40.61,40.61,0,0,0,.443,8.813q.7,4.455,1.314,7.425a56.026,56.026,0,0,1,1.059,9.187,21.322,21.322,0,0,1-1.2,8,15.069,15.069,0,0,1-4.483,6.3,22.522,22.522,0,0,1-8.8,4.248,36.222,36.222,0,0,1-7.987,1.294,19.874,19.874,0,0,1-7.2-.948,14.255,14.255,0,0,1-5.821-3.752,17.361,17.361,0,0,1-3.858-7.024,25.025,25.025,0,0,1-1.109-7.676,56.791,56.791,0,0,1,.642-7.824q1.149-7.632,1.987-15.387T76.339,87A139.733,139.733,0,0,0,75.9,71.531,87.58,87.58,0,0,0,73.268,56.4a54.473,54.473,0,0,0-2.5-7.263,53.788,53.788,0,0,1-2.5-7.258,28.117,28.117,0,0,1-.526-13.708A26.912,26.912,0,0,1,73.517,16.7a37.484,37.484,0,0,1,11.242-8.8A62.009,62.009,0,0,1,100.472,2.26c12.678-2.8,23.019-2.215,30.785,1.47s12.4,10.941,14.077,21.574a92.664,92.664,0,0,1,.987,9.328,89.694,89.694,0,0,0,1.007,9.324m-62.59,7.759a2.053,2.053,0,0,0-1.425-1.479A3.861,3.861,0,0,0,81,50.127a3.107,3.107,0,0,0-1.8,1.24,2.234,2.234,0,0,0-.4,1.91q.411,1.6.825,3.2a2.125,2.125,0,0,0,1.366,1.438,3.449,3.449,0,0,0,2.252.165A3.26,3.26,0,0,0,85.08,56.84a2.213,2.213,0,0,0,.459-1.92q-.4-1.6-.8-3.206m-4.8-7.57a3.363,3.363,0,0,0,2.028-1.336,2.58,2.58,0,0,0,.369-2.133,29.235,29.235,0,0,1-.846-6.18,19.377,19.377,0,0,1,.783-6.121,17.65,17.65,0,0,1,2.886-5.644A18.661,18.661,0,0,1,90.609,18a9,9,0,0,0,1.6-1.324,1.78,1.78,0,0,0,.477-1.715A2.54,2.54,0,0,0,91.4,13.331,3.054,3.054,0,0,0,89.011,13a13.227,13.227,0,0,0-6.982,4.311,26.047,26.047,0,0,0-4.583,7.513,30.416,30.416,0,0,0-2.078,8.42,20.848,20.848,0,0,0,.327,7.084c.121.474.266.974.439,1.5a5.438,5.438,0,0,0,.705,1.427,2.426,2.426,0,0,0,1.192.916,3.179,3.179,0,0,0,1.906-.028m33.34,17.136a6.686,6.686,0,0,0,3.623-1.921,8.493,8.493,0,0,0,1.825-3.161,10.893,10.893,0,0,0,.494-3.669A21.406,21.406,0,0,0,118.833,49a24.4,24.4,0,0,0-1.084-3.477,22.545,22.545,0,0,0-2.189-4.322,15.208,15.208,0,0,0-3.092-3.515,4.184,4.184,0,0,0-3.644-.988,4.408,4.408,0,0,0-2.989,2.643,16.755,16.755,0,0,0-1.471,4.944,30.088,30.088,0,0,0-.306,5.347,22.969,22.969,0,0,0,.367,3.869,20.637,20.637,0,0,0,.949,3.033,9.248,9.248,0,0,0,1.709,2.806,6.629,6.629,0,0,0,2.61,1.806,6.142,6.142,0,0,0,3.583.137" transform="translate(21.373 -0.5)" fill="#ffc233" stroke="rgba(0,0,0,0)" stroke-width="1"/>
    <path id="Path_18271" data-name="Path 18271" d="M203.92,58.164a22.463,22.463,0,0,1,8.887,1.157,20.008,20.008,0,0,1,6.926,4.088,18.847,18.847,0,0,1,4.509,6.352,20.674,20.674,0,0,1,1.711,7.962,30.6,30.6,0,0,1-2.2,12.03,34.751,34.751,0,0,1-16.028,17.982,29.7,29.7,0,0,1-12,3.443,36.458,36.458,0,0,1-7.187-.17,41.931,41.931,0,0,1-7.078-1.5,46.167,46.167,0,0,1-6.732-2.645,41.05,41.05,0,0,1-6.14-3.68,38.442,38.442,0,0,1-7.184-6.551,44.047,44.047,0,0,1-5.33-7.858,49.762,49.762,0,0,1-3.636-8.78,56.726,56.726,0,0,1-2.02-9.3,45.745,45.745,0,0,1-.26-9.261,41.271,41.271,0,0,1,1.738-9.211,44.278,44.278,0,0,1,5.512-11.343,50.085,50.085,0,0,1,8.9-10.058,47.965,47.965,0,0,1,11.671-7.447,39.653,39.653,0,0,1,13.684-3.451q2.516-.182,5.475-.15a54.461,54.461,0,0,1,5.929.391,34.277,34.277,0,0,1,5.731,1.191,19,19,0,0,1,4.918,2.227A11.413,11.413,0,0,1,217.167,27a9.273,9.273,0,0,1,1.375,4.869,11.189,11.189,0,0,1-3.945,9.058,14.707,14.707,0,0,1-4.51,2.581,19.234,19.234,0,0,1-5.663,1.128,16.628,16.628,0,0,1-2.858-.086q-1.4-.164-2.845-.351c-.96-.129-1.909-.237-2.845-.341a16.261,16.261,0,0,0-2.869-.051,17.557,17.557,0,0,0-6.659,1.715,17.123,17.123,0,0,0-4.949,3.643,19.971,19.971,0,0,0-3.4,5,27.08,27.08,0,0,0-2.037,5.813,35.24,35.24,0,0,0-.841,6.108,40.431,40.431,0,0,0,.1,5.8A47.256,47.256,0,0,0,176.467,79a21.166,21.166,0,0,0,2.761,6.439,13.319,13.319,0,0,0,4.881,4.484,13.575,13.575,0,0,0,7.639,1.286A18.387,18.387,0,0,0,196,90.359a13.092,13.092,0,0,0,3.74-1.866,8.773,8.773,0,0,0,2.58-2.953,7.59,7.59,0,0,0,.821-4.107,2.735,2.735,0,0,0-1.052-2.228,8.022,8.022,0,0,0-2.356-1.088,27.291,27.291,0,0,0-3.039-.695,11.789,11.789,0,0,1-3.065-.961,6.736,6.736,0,0,1-2.447-1.985,6.845,6.845,0,0,1-1.213-3.782,10.038,10.038,0,0,1,.85-5.088,10.863,10.863,0,0,1,3.036-3.852,15.306,15.306,0,0,1,4.587-2.514,19.893,19.893,0,0,1,5.475-1.077m-39.076-9.121q.295-.529.556-1.058a1.952,1.952,0,0,0,.206-1.08,1.609,1.609,0,0,0-.721-1.195,2.1,2.1,0,0,0-1.481-.365,1.885,1.885,0,0,0-1.039.492,3.784,3.784,0,0,0-.8,1.024,6.171,6.171,0,0,0-.5,1.211,2.7,2.7,0,0,0-.132,1.044,1.624,1.624,0,0,0,.725,1.191,2.079,2.079,0,0,0,1.471.361,1.983,1.983,0,0,0,1.168-.537,1.772,1.772,0,0,0,.551-1.087m4.138-7.846a1.876,1.876,0,0,0,.956-.347,3.7,3.7,0,0,0,.712-.695,34.459,34.459,0,0,1,4.066-4.409,34.059,34.059,0,0,1,5.019-3.813,29.448,29.448,0,0,1,5.784-2.781,23.742,23.742,0,0,1,6.27-1.309,2.016,2.016,0,0,0,1.354-.654,1.681,1.681,0,0,0,.53-1.275A1.555,1.555,0,0,0,193,24.751a2.056,2.056,0,0,0-1.427-.428,21.061,21.061,0,0,0-4.111.8,41.783,41.783,0,0,0-4.968,1.762,55.1,55.1,0,0,0-5.14,2.5,43.82,43.82,0,0,0-4.713,2.991,25.278,25.278,0,0,0-3.659,3.227,8.726,8.726,0,0,0-2,3.2,1.8,1.8,0,0,0-.1.443,2.49,2.49,0,0,0-.028.44,1.563,1.563,0,0,0,.682,1.171,2.061,2.061,0,0,0,1.448.345" transform="translate(47.77 5.588)" fill="#ffc233" stroke="rgba(0,0,0,0)" stroke-width="1"/>
    <path id="Path_18273" data-name="Path 18273" d="M269.731,66.864a22.548,22.548,0,0,0,.38,6c.392,1.992.837,3.966,1.333,5.946s.929,3.948,1.308,5.917a22.746,22.746,0,0,1,.327,6.035,20.6,20.6,0,0,1-3.43,10.637,19.455,19.455,0,0,1-7.318,6.2,31.092,31.092,0,0,1-9.848,2.848,71.6,71.6,0,0,1-11.1.549,62.076,62.076,0,0,1-10.46-1.142,29.41,29.41,0,0,1-9.209-3.393,19.468,19.468,0,0,1-6.668-6.427,19.222,19.222,0,0,1-2.683-10.219,22.129,22.129,0,0,1,.7-5.918q.748-2.89,1.645-5.748c.6-1.9,1.159-3.818,1.68-5.739a22.119,22.119,0,0,0,.767-5.914,11.35,11.35,0,0,0-.7-3.856q-.688-1.875-1.38-3.661a87,87,0,0,1-2.779-8.52,35.382,35.382,0,0,1-1.168-8.79,18.393,18.393,0,0,1,3-10.994,22.812,22.812,0,0,1,8.169-7.153,37.383,37.383,0,0,1,11.5-3.781,66.471,66.471,0,0,1,12.878-.874,48.545,48.545,0,0,1,10.982,1.644,38.189,38.189,0,0,1,10.265,4.3,23.375,23.375,0,0,1,7.355,6.946,14.368,14.368,0,0,1,2.313,9.431,24.14,24.14,0,0,1-1.469,6.556q-1.188,3.164-2.522,6.27c-.891,2.073-1.718,4.159-2.484,6.275a24.22,24.22,0,0,0-1.386,6.57m-48.5-25.622a30.422,30.422,0,0,1,.293-4.268,7.081,7.081,0,0,1,2.058-3.839,4.907,4.907,0,0,1,1.772-1.113c.8-.328,1.606-.653,2.411-.982a16.189,16.189,0,0,0,2.1-1.009,1.5,1.5,0,0,0,.9-1.2,1.328,1.328,0,0,0-.655-1.179,2.6,2.6,0,0,0-1.449-.443,9.97,9.97,0,0,0-4.837,1.134,12.264,12.264,0,0,0-3.624,2.919,13.125,13.125,0,0,0-2.291,3.974,12.358,12.358,0,0,0-.8,4.306q0,.555.037,1.142a3.251,3.251,0,0,0,.248,1.08,2.143,2.143,0,0,0,.629.829,1.945,1.945,0,0,0,1.251.328,2.07,2.07,0,0,0,1.355-.5,1.5,1.5,0,0,0,.6-1.177m-1.123,10.394a2.118,2.118,0,0,0,1.409-.5,1.577,1.577,0,0,0,.588-1.241,4.837,4.837,0,0,0-.477-2.039,1.776,1.776,0,0,0-1.793-1.04,1.989,1.989,0,0,0-1.349.536,1.6,1.6,0,0,0-.584,1.209,5.149,5.149,0,0,0,.452,2.037,1.705,1.705,0,0,0,1.753,1.038M251.38,83A15.769,15.769,0,0,0,251,78.774c-.314-1.369-.654-2.737-1.018-4.09s-.708-2.731-1.03-4.12a15.679,15.679,0,0,1-.4-4.192,18.064,18.064,0,0,1,.837-4.794c.492-1.546,1.022-3.09,1.59-4.613s1.1-3.056,1.608-4.58a17.781,17.781,0,0,0,.877-4.76c.254-5.188-2.572-7.913-8.485-8.084a11.152,11.152,0,0,0-7.316,1.966,7.668,7.668,0,0,0-2.781,6.291,15.581,15.581,0,0,0,.523,4.367q.571,2.148,1.237,4.288c.443,1.436.839,2.862,1.188,4.319a16.912,16.912,0,0,1,.463,4.4,14.528,14.528,0,0,1-.885,4.653q-.825,2.241-1.767,4.452T233.9,78.667a13.624,13.624,0,0,0-.836,4.473,6.148,6.148,0,0,0,.668,3.039,6.523,6.523,0,0,0,1.883,2.19,8.667,8.667,0,0,0,2.7,1.349,11.578,11.578,0,0,0,3.138.5,13.923,13.923,0,0,0,3.615-.363,9.82,9.82,0,0,0,3.1-1.292,7.329,7.329,0,0,0,2.244-2.268,6.642,6.642,0,0,0,.961-3.3" transform="translate(67.223 5.296)" fill="#ffc233"/>
    <path id="Path_18275" data-name="Path 18275" d="M307.434,73.482a2.48,2.48,0,0,0,1.036,2.087,22.882,22.882,0,0,0,3.2,2.415c1.346.879,2.889,1.817,4.626,2.848s3.482,2.167,5.237,3.426a56.8,56.8,0,0,1,5.069,4.1,24.951,24.951,0,0,1,4.146,4.832,17.978,17.978,0,0,1,2.44,5.642,15.106,15.106,0,0,1,.053,6.495,16.5,16.5,0,0,1-2.287,5.733,17,17,0,0,1-4.08,4.459,15.859,15.859,0,0,1-5.361,2.643,14.227,14.227,0,0,1-6.239.278,12.264,12.264,0,0,1-6.588-2.947,16.488,16.488,0,0,1-3.772-5.358,35.5,35.5,0,0,1-2.2-6.793q-.819-3.672-1.848-7.191a30.979,30.979,0,0,0-2.721-6.521,11.921,11.921,0,0,0-4.915-4.723,4.358,4.358,0,0,0-1.524-.5,2.5,2.5,0,0,0-1.449.2,3,3,0,0,0-1.032.84,4.272,4.272,0,0,0-.678,1.2,5.539,5.539,0,0,0-.322,1.267,19.069,19.069,0,0,0-.057,4.167c.132,1.386.286,2.77.46,4.165s.32,2.79.444,4.2a19.654,19.654,0,0,1-.079,4.2,7.754,7.754,0,0,1-1.74,4.176,10.186,10.186,0,0,1-3.405,2.615,14.718,14.718,0,0,1-4.332,1.282,18.7,18.7,0,0,1-4.53.105,16.677,16.677,0,0,1-5.052-1.277,11.492,11.492,0,0,1-3.772-2.615,10.007,10.007,0,0,1-2.256-3.889,12.966,12.966,0,0,1-.481-5.1,29.641,29.641,0,0,1,1.043-5.651c.529-1.844,1.094-3.659,1.694-5.471q1.645-5.19,3-10.379a67.883,67.883,0,0,0,1.885-10.6,46.145,46.145,0,0,0,.129-7.283q-.227-3.652-.6-7.285t-.659-7.287a42.944,42.944,0,0,1,.058-7.285,17.249,17.249,0,0,1,2.356-7.678,14.879,14.879,0,0,1,4.908-4.86,20.971,20.971,0,0,1,6.771-2.564,43.306,43.306,0,0,1,7.99-.815,73.441,73.441,0,0,1,8.514.4q4.317.456,8.3.995a54.864,54.864,0,0,1,12.754,3.328,36.219,36.219,0,0,1,10.545,6.259,23.81,23.81,0,0,1,6.537,9,19.792,19.792,0,0,1,.87,11.54,18.48,18.48,0,0,1-3.129,7.658,17.356,17.356,0,0,1-5.369,4.717,27.388,27.388,0,0,1-7.176,2.747q-4.013.955-8.552,1.624c-.331.071-.924.171-1.785.287s-1.723.28-2.593.483a17.093,17.093,0,0,0-2.352.716c-.7.268-1.074.6-1.129.961M280.219,38.893a18.734,18.734,0,0,1,.389-2.29,7.557,7.557,0,0,1,.831-2.094,5.743,5.743,0,0,1,1.5-1.679,5.671,5.671,0,0,1,2.389-.995q1.6-.324,1.748-1.553a1.469,1.469,0,0,0-.526-1.3,2.415,2.415,0,0,0-1.391-.646,5.714,5.714,0,0,0-3.955.871,9.391,9.391,0,0,0-2.69,2.841,14.479,14.479,0,0,0-1.629,3.726,21.479,21.479,0,0,0-.717,3.534c-.038.367-.078.869-.116,1.479a8.459,8.459,0,0,0,.087,1.873,4.48,4.48,0,0,0,.566,1.636,1.623,1.623,0,0,0,1.314.78,2.089,2.089,0,0,0,1.4-.359,1.491,1.491,0,0,0,.713-1.108,12.714,12.714,0,0,0,.042-2.327,13.109,13.109,0,0,1,.049-2.387m-2.3,14.933a3.154,3.154,0,0,0,1.539-.22,1.306,1.306,0,0,0,.817-1.161,6.388,6.388,0,0,0,.015-1.086,4.558,4.558,0,0,0-.22-1.141,2.513,2.513,0,0,0-.591-.961,1.7,1.7,0,0,0-1.093-.483,2.035,2.035,0,0,0-1.392.363,1.507,1.507,0,0,0-.7,1.112,6.1,6.1,0,0,0,0,1.024,6.01,6.01,0,0,0,.192,1.137,2.588,2.588,0,0,0,.488.949,1.339,1.339,0,0,0,.952.466M298.8,55.39a23.494,23.494,0,0,0,3.1.126,20.31,20.31,0,0,0,3.841-.416,12.615,12.615,0,0,0,3.375-1.179,2.947,2.947,0,0,0,1.693-2.192,2.592,2.592,0,0,0-.707-2.258,7.5,7.5,0,0,0-2.315-1.64,16.7,16.7,0,0,0-2.969-1.062,22.034,22.034,0,0,0-2.662-.544,23.324,23.324,0,0,0-3.127-.217,6.715,6.715,0,0,0-2.476.436,3.66,3.66,0,0,0-1.723,1.408,7.988,7.988,0,0,0-.852,4.972A2.45,2.45,0,0,0,294.8,54.2a4.17,4.17,0,0,0,1.6.758,20.328,20.328,0,0,0,2.4.43" transform="translate(83.854 6.537)" fill="#ffc233" stroke="rgba(0,0,0,0)" stroke-width="1"/>
    <path id="Path_18277" data-name="Path 18277" d="M387.514,74.951c-.87,2.924-1.6,5.917-2.2,8.956a71.97,71.97,0,0,0-1.2,9.212,61.385,61.385,0,0,0,.091,9.277,49,49,0,0,0,1.664,9.149,47.493,47.493,0,0,1,1.2,5.893,13.379,13.379,0,0,1-.529,5.888,9.808,9.808,0,0,1-2.9,4.571,12.706,12.706,0,0,1-4.57,2.55,17.882,17.882,0,0,1-5.419.808,19.646,19.646,0,0,1-5.4-.72,11.537,11.537,0,0,1-4.661-2.491,11.87,11.87,0,0,1-2.881-3.926,13.623,13.623,0,0,1-1.162-4.823,16.053,16.053,0,0,1,.529-5.169c.214-.794.5-1.821.864-3.1s.707-2.625,1.028-4.077a38.345,38.345,0,0,0,.716-4.417,16.4,16.4,0,0,0-.07-4.174,7.911,7.911,0,0,0-1.32-3.377,5.034,5.034,0,0,0-3.007-1.948,5.988,5.988,0,0,0-5.173.782,12.838,12.838,0,0,0-3.623,4.081,28.228,28.228,0,0,0-2.406,5.433q-.941,2.89-1.484,4.857a38.263,38.263,0,0,1-2.174,5.837,14.409,14.409,0,0,1-3.155,4.432,10,10,0,0,1-4.581,2.4,14.639,14.639,0,0,1-6.5-.186,22.909,22.909,0,0,1-5.094-1.72,12.789,12.789,0,0,1-3.912-2.827,9.429,9.429,0,0,1-2.207-4.065,11.886,11.886,0,0,1-.025-5.393,17.487,17.487,0,0,1,1.771-4.913,39.349,39.349,0,0,1,2.817-4.451q3.042-4.181,5.918-8.546t5.38-8.949a95.059,95.059,0,0,0,4.477-9.381,61.2,61.2,0,0,0,3.114-9.861,38.693,38.693,0,0,0,.795-5.109,38.145,38.145,0,0,1,.792-5.113,19.98,19.98,0,0,1,3.84-8.371,17.916,17.916,0,0,1,6.659-5.139A23.261,23.261,0,0,1,362.4,34.9a37.907,37.907,0,0,1,10.467,1.236c7.946,2.015,13.627,5.326,16.989,9.778s3.953,10.174,1.865,17.124q-.908,3.024-2.109,5.954t-2.1,5.958m-38.193-13.7a1.4,1.4,0,0,0-.363-1.317,2.343,2.343,0,0,0-1.274-.763,1.919,1.919,0,0,0-1.392.193,1.523,1.523,0,0,0-.8,1.023q-.251,1.088-.5,2.171a1.458,1.458,0,0,0,.34,1.279,2.124,2.124,0,0,0,1.225.78,1.986,1.986,0,0,0,1.416-.186,1.511,1.511,0,0,0,.839-1.013q.257-1.084.513-2.167m-.436-5.994a2.038,2.038,0,0,0,1.544-.19,1.761,1.761,0,0,0,.849-1.169,21.159,21.159,0,0,1,1.374-3.966,13.676,13.676,0,0,1,2.272-3.445,11.464,11.464,0,0,1,7.768-3.755,5.51,5.51,0,0,0,1.289-.324,1.207,1.207,0,0,0,.777-.892,1.777,1.777,0,0,0-.241-1.363,1.89,1.89,0,0,0-1.243-.9,8.07,8.07,0,0,0-5.191.516,17.216,17.216,0,0,0-4.805,3.141,20.973,20.973,0,0,0-3.686,4.43,14.884,14.884,0,0,0-1.946,4.348c-.074.32-.144.666-.2,1.032a3.8,3.8,0,0,0-.034,1.07,1.657,1.657,0,0,0,.4.912,1.97,1.97,0,0,0,1.082.559m13.87,20.292a4.169,4.169,0,0,0,2.657-.088,5.545,5.545,0,0,0,1.986-1.371,7.577,7.577,0,0,0,1.366-2.074,14.917,14.917,0,0,0,.817-2.248,17.046,17.046,0,0,0,.4-2.418A15.861,15.861,0,0,0,370,64.091a10.373,10.373,0,0,0-.734-3.031,2.61,2.61,0,0,0-1.786-1.669,2.758,2.758,0,0,0-2.484.713,11.392,11.392,0,0,0-2.3,2.549,21.124,21.124,0,0,0-1.761,3.129,16.356,16.356,0,0,0-.941,2.444,14.62,14.62,0,0,0-.36,2.11,6.459,6.459,0,0,0,.144,2.2,4.369,4.369,0,0,0,.962,1.861,3.8,3.8,0,0,0,2.02,1.146" transform="translate(101.139 10.367)" fill="#ffc233" stroke="rgba(0,0,0,0)" stroke-width="1"/>
    <path id="Path_18279" data-name="Path 18279" d="M398.321,118.353c-4.5-1.778-9.115-4.728-11.2-8.846-2.145-4.477,1.84-14.78,4.431-19.053,2.19-3.726,10.124-5.689,14.97-4.665,4.381.67,8.537,3.049,12.779,4.627a17.414,17.414,0,0,0,8.468.783,15.519,15.519,0,0,0,7.127-4.014,23.172,23.172,0,0,0,7.051-15.365c.232-3.056-.19-6.534-2.483-8.992-3.946-3.973-10.675-3.537-14.87-.395-3.212,2.112-4.748,5.7-7.275,8.24a7.927,7.927,0,0,1-4.779,2.261c-3.624.243-12.784-4.243-15.772-6.4-2.2-1.577-4.257-3.6-5.068-5.9-2.237-6.323,3.226-16.692,8.951-20.486,7.018-4.746,16.981-6.758,26.491-5.963A69.583,69.583,0,0,1,453.9,42.155c7.85,4.153,15.231,9.886,19.864,16.686,4.243,6.268,6.382,14.021,5.524,20.763-1.061,9.879-7.061,19.252-15.3,25.327-5.761,4.169-13.179,7.442-20.614,7.995-6.977.392-13.846-2.939-20.433-5.148-.475,3.123-1.026,6.4-2.981,8.944-4.208,5.314-14.869,4.189-21.635,1.633m.3-57.872a3.679,3.679,0,0,0,4.86-2.668c.1-2.023,3.524-6.179,5.142-7.353,3.119-2.035,6.373-4.353,10.244-4.9a36.894,36.894,0,0,1,12.1-.508,39.6,39.6,0,0,1,4.229,1.387c5.119.707,5.87-5.955.752-6.82a49.338,49.338,0,0,0-6.937-1.49c-4.372-.538-8.819.316-12.943.967-5.019.859-9.08,3.791-12.811,6.5a23.332,23.332,0,0,0-3.722,3.911c-2.835,3.693-5.871,9.353-.914,10.966m-16.231,81.525c-7.9-6.437-2.771-18.6,7.756-18.614,4.568-.133,8.984,1.788,13.024,4.147,2.716,1.515,5.706,4.22,5.753,7.366.088,3.51-3.283,9.341-6.289,11.152a13.848,13.848,0,0,1-10.244.869,26.3,26.3,0,0,1-10-4.919m22.934-4.825a3.249,3.249,0,0,0-.6-5.082,3.561,3.561,0,0,0-5.524,3.144,3.684,3.684,0,0,0,6.121,1.939m43.373-86.959c2.187-1.754.695-5.317-2.646-5.909-2.367-.387-4.473,1.234-4.1,3.465.372,2.745,4.323,4.281,6.748,2.444" transform="translate(120.529 10.094)" fill="#ffc233" stroke="rgba(0,0,0,0)" stroke-width="1"/>
  </g>
</svg>
