<svg xmlns="http://www.w3.org/2000/svg" width="20" height="20" viewBox="0 0 20 20">
  <path id="Union_50" data-name="Union 50" d="M14.181,17.446a2.979,2.979,0,0,1,.028-.412L5.8,12.681a3.209,3.209,0,0,1-2.138.805A3.108,3.108,0,0,1,.5,10.433,3.108,3.108,0,0,1,3.66,7.379,3.209,3.209,0,0,1,5.8,8.185l8.4-4.346q-.013-.141-.014-.285a3.162,3.162,0,0,1,6.319,0,3.108,3.108,0,0,1-3.16,3.054,3.2,3.2,0,0,1-2.276-.935L6.782,9.959a2.988,2.988,0,0,1,0,.948l8.374,4.334a3.207,3.207,0,0,1,2.185-.848,3.055,3.055,0,1,1-3.16,3.054Z" transform="translate(-0.5 -0.5)" fill="#ffc"/>
</svg>
