<svg id="Group_11917" data-name="Group 11917" xmlns="http://www.w3.org/2000/svg" xmlns:xlink="http://www.w3.org/1999/xlink" width="63.501" height="59.872" viewBox="0 0 63.501 59.872">
  <defs>
    <clipPath id="clip-path">
      <rect id="Rectangle_6148" data-name="Rectangle 6148" width="63.501" height="59.872" fill="#ccff33"/>
    </clipPath>
  </defs>
  <g id="Group_11889" data-name="Group 11889" transform="translate(0 0)" clip-path="url(#clip-path)">
    <path id="Path_18886" data-name="Path 18886" d="M17.771,24.719c-3.745,0-6.941,3.057-8.239,7.372l8.239,4.273L9.465,40.4c1.25,4.44,4.492,7.611,8.306,7.611,4.895,0,8.863-5.213,8.863-11.644s-3.968-11.645-8.863-11.645" transform="translate(-3.43 -9.189)" fill="#ccff33"/>
    <path id="Path_18887" data-name="Path 18887" d="M77.652,24.719c-3.745,0-6.941,3.057-8.239,7.372l8.239,4.273L69.346,40.4c1.25,4.44,4.492,7.611,8.306,7.611,4.895,0,8.863-5.213,8.863-11.644s-3.968-11.645-8.863-11.645" transform="translate(-25.134 -9.189)" fill="#ccff33"/>
    <path id="Path_18889" data-name="Path 18889" d="M0,0,3.783.024l.139,22.3L.139,22.3Z" transform="matrix(0.487, -0.873, 0.873, 0.487, 0, 3.292)" fill="#ccff33"/>
    <path id="Path_18890" data-name="Path 18890" d="M0,0,22.3.139l.024,3.783L.024,3.783Z" transform="translate(42.092 10.749) rotate(-29.167)" fill="#ccff33"/>
    <path id="Path_18888" data-name="Path 18888" d="M59.107,87.921c-19-18.309-40.9-2.327-41.82-1.638l-2.317-3a44.677,44.677,0,0,1,15.2-6.828c8.244-1.95,20.42-2.011,31.61,8.77Z" transform="translate(-5.426 -28.049)" fill="#ccff33"/>
  </g>
</svg>
