<svg id="Group_11923" data-name="Group 11923" xmlns="http://www.w3.org/2000/svg" width="72.572" height="72.572" viewBox="0 0 72.572 72.572">
  <path id="Subtraction_31" data-name="Subtraction 31" d="M22.12,44A22.134,22.134,0,0,1,1.74,30.565,21.908,21.908,0,0,1,6.479,6.443,22.237,22.237,0,0,1,30.731,1.73,22.135,22.135,0,0,1,42.5,13.436a21.9,21.9,0,0,1-4.741,24.12A22.125,22.125,0,0,1,22.12,44Zm0-18.833a9.38,9.38,0,0,0-8.638,5.695,9.241,9.241,0,0,0-.736,3.628H31.495A9.281,9.281,0,0,0,28.751,27.9a9.375,9.375,0,0,0-6.628-2.73Zm7.684-9.507a3.169,3.169,0,1,0,3.187,3.167A3.181,3.181,0,0,0,29.806,15.662Zm-15,0A3.17,3.17,0,1,0,18,18.829,3.181,3.181,0,0,0,14.811,15.661Z" transform="translate(0 0)" fill="#2a60fe"/>
  <path id="Subtraction_36" data-name="Subtraction 36" d="M18.838,37.447a19.012,19.012,0,0,1-4.885-.647A18.721,18.721,0,0,1,18.812,0,18.956,18.956,0,0,1,30.389,3.953,18.739,18.739,0,0,1,18.838,37.447Zm-8.761-16.9h0a7.927,7.927,0,0,0,5.64,9.715,8.11,8.11,0,0,0,2.07.272,7.975,7.975,0,0,0,7.7-5.879L10.077,20.545ZM29.2,14.287h0l-.018,0a.342.342,0,0,0-.056.009c-2.121.3-3.31.514-3.723.59-1.14.2-2.012.371-2.665.531a8.982,8.982,0,0,0-.965.285l0,0c-.217.083-.79.3-.857.887a.89.89,0,0,0,.437.863c.086.043.15.076.213.1.989.368,5.022,2.4,7.016,3.422l.742-1.437a1.133,1.133,0,0,0-.137-.072c-2.763-1.41-4.413-2.218-5.312-2.646.523-.11,1.251-.246,2.227-.416,1.637-.28,3.142-.49,3.308-.516a.135.135,0,0,0,.029-.005l-.226-1.6v-.005l0,.005Zm-19.9-.3h0L9.166,15.6c1.538.129,6.644.569,7.771.794a.97.97,0,0,0,.236.026.9.9,0,0,0,.828-.5,1.157,1.157,0,0,0-.255-1.207,8.091,8.091,0,0,0-.669-.751c-.462-.476-1.125-1.1-1.972-1.86-.785-.7-1.73-1.52-2.808-2.43l-.071-.058L12.2,9.6,11.15,10.832s.039.036.1.088l.021.017c.374.316,1.37,1.157,2.431,2.1.649.578,1.209,1.092,1.666,1.527C12.908,14.29,9.338,13.993,9.3,13.991Z" transform="translate(34.924 35.125)" fill="#2a60fe"/>
</svg>
