<svg xmlns="http://www.w3.org/2000/svg" xmlns:xlink="http://www.w3.org/1999/xlink" width="70" height="63" viewBox="0 0 70 63">
  <defs>
    <clipPath id="clip-path">
      <rect id="Rectangle_6300" data-name="Rectangle 6300" width="70" height="63" fill="#ccff33"/>
    </clipPath>
  </defs>
  <g id="Group_12288" data-name="Group 12288" transform="translate(0 -3.999)">
    <g id="Group_12287" data-name="Group 12287" transform="translate(0 3.999)" clip-path="url(#clip-path)">
      <path id="Path_19134" data-name="Path 19134" d="M40.094,119.177l6.57-21.449c.287.074.61.144.924.24,5.785,1.771,11.545,3.634,17.367,5.271a4.077,4.077,0,0,1,3.2,3.893q.95,8.052,1.787,16.117c.274,2.6-.416,3.328-3,3.328q-31.972,0-63.944,0c-2.5,0-3.211-.732-2.952-3.248.547-5.335,1.172-10.66,1.726-15.994a4.255,4.255,0,0,1,3.517-4.158c6.037-1.647,12-3.574,18-5.39l6.638,21.283.389-.044a5.734,5.734,0,0,0,.216-.869c.349-3.773.631-7.553,1.054-11.317a6.815,6.815,0,0,0-.939-3.75,2.253,2.253,0,0,1,2.116-3.378c1.61,0,3.221-.01,4.831,0,1.254.01,2.678,1.653,2.055,2.68-1.929,3.176-.8,6.46-.65,9.7.109,2.331.44,4.652.673,6.978l.423.107" transform="translate(0 -63.576)" fill="#ccff33"/>
      <path id="Path_19135" data-name="Path 19135" d="M70.736,0A16.019,16.019,0,1,0,86.679,16.018,15.981,15.981,0,0,0,70.736,0m0,4.376a11.5,11.5,0,0,1,6.872,2.269l-16.2,16.278A11.653,11.653,0,0,1,70.736,4.375m0,23.286a11.493,11.493,0,0,1-6.766-2.194L80.141,9.219a11.651,11.651,0,0,1-9.4,18.441" transform="translate(-35.737 0.001)" fill="#ccff33"/>
    </g>
  </g>
</svg>
