<svg xmlns="http://www.w3.org/2000/svg" xmlns:xlink="http://www.w3.org/1999/xlink" width="51.429" height="28.571" viewBox="0 0 51.429 28.571">
  <defs>
    <clipPath id="clip-path">
      <rect id="Rectangle_6162" data-name="Rectangle 6162" width="51.429" height="28.571" fill="#ffc"/>
    </clipPath>
  </defs>
  <g id="Group_11919" data-name="Group 11919" opacity="0.3" clip-path="url(#clip-path)">
    <path id="Path_18926" data-name="Path 18926" d="M176.318,218.763h-3.16c-.935,0-1.289.155-1.225.589.116.778.771.554,1.254.558,2.1.018,4.207.009,6.31.009.142,0,.283,0,.425,0a1.327,1.327,0,0,1,1.368,1.3,1.313,1.313,0,0,1-1.378,1.288c-.971.016-1.942.007-2.912,0-.46,0-.979-.023-.971.6s.551.566.994.567c.93,0,1.861-.006,2.791,0a1.31,1.31,0,1,1,.029,2.6c-1.011.012-2.022.008-3.034,0-.434,0-.795.107-.783.6.011.458.355.568.764.567q1.517-.006,3.034,0a1.306,1.306,0,1,1,.008,2.593c-1.011.014-2.022.007-3.034,0-.4,0-.76.088-.774.553-.014.49.331.619.773.616q1.486-.01,2.973,0c.91.007,1.524.522,1.524,1.262a1.353,1.353,0,0,1-1.53,1.325q-5.37.007-10.739-.008a2.392,2.392,0,0,1-2.474-2.405c-.02-3.011-.033-6.023.027-9.033a2.269,2.269,0,0,1,.659-1.4,21.1,21.1,0,0,1,2.113-1.678c.873-.672,1.766-1.321,2.619-2.017a2.143,2.143,0,0,1,2.775-.117,22.462,22.462,0,0,1,1.572,1.606" transform="translate(-157.554 -205.252)" fill="#ffc"/>
    <path id="Path_18927" data-name="Path 18927" d="M518.36,219.011c.613-.608,1.07-1.113,1.581-1.557a2.155,2.155,0,0,1,2.735-.03c1.227.937,2.47,1.852,3.7,2.785a14.407,14.407,0,0,1,1.11.92,2.321,2.321,0,0,1,.748,1.813c-.02,2.814,0,5.628-.011,8.441a2.465,2.465,0,0,1-2.709,2.672c-3.459.008-6.919,0-10.378,0-.142,0-.284,0-.424-.012a1.3,1.3,0,0,1-1.235-1.3,1.266,1.266,0,0,1,1.266-1.263c.97-.028,1.942-.009,2.913-.011.162,0,.367.057.476-.018.235-.162.555-.37.6-.6.062-.351-.245-.55-.629-.551-1.032,0-2.064.021-3.094-.018a2.09,2.09,0,0,1-1.015-.3,1.118,1.118,0,0,1-.452-1.368,1.231,1.231,0,0,1,1.21-.917c1.051-.022,2.1-.017,3.156-.008.455,0,.855-.087.843-.611-.011-.486-.4-.57-.828-.564q-1.456.019-2.913.008c-.932-.007-1.542-.546-1.529-1.327a1.353,1.353,0,0,1,1.513-1.285q1.517-.016,3.034-.006c.405,0,.7-.143.714-.551.013-.441-.294-.612-.722-.611-1.032,0-2.063,0-3.1,0a1.3,1.3,0,1,1-.019-2.575c2.266-.014,4.531-.006,6.8-.008.182,0,.4.058.537-.022.227-.138.519-.339.565-.558.077-.368-.221-.568-.6-.571-1.011-.006-2.023,0-3.034,0h-.8" transform="translate(-485.771 -205.488)" fill="#ffc"/>
    <path id="Path_18928" data-name="Path 18928" d="M5.664,305.805v10.926H4.533c-.87,0-1.74.014-2.61,0a1.827,1.827,0,0,1-1.915-1.881q-.02-3.6,0-7.194a1.784,1.784,0,0,1,1.7-1.835c1.292-.046,2.586-.011,3.959-.011" transform="translate(0.001 -289.638)" fill="#ffc"/>
    <path id="Path_18929" data-name="Path 18929" d="M849.158,305.839c1.379,0,2.692-.039,4,.014a1.692,1.692,0,0,1,1.609,1.653q.045,3.772,0,7.546a1.622,1.622,0,0,1-1.474,1.641c-1.362.087-2.733.023-4.14.023Z" transform="translate(-803.362 -289.669)" fill="#ffc"/>
    <path id="Path_18930" data-name="Path 18930" d="M280.657,18.685a4.14,4.14,0,0,1,.867.594q2.974,3.679,5.907,7.39a.977.977,0,0,1-.17,1.471,1,1,0,0,1-1.455-.158c-2.007-2.484-4.008-4.974-5.969-7.493a1.185,1.185,0,0,1-.076-1.036c.14-.3.551-.489.9-.769" transform="translate(-264.594 -17.698)" fill="#ffc"/>
    <path id="Path_18931" data-name="Path 18931" d="M526.584,31.469a4.809,4.809,0,0,1-.919-.761.923.923,0,0,1,.137-1.155q1.532-1.917,3.06-3.836,1.343-1.684,2.688-3.367c.5-.621,1.1-.753,1.616-.368.549.412.571,1,.045,1.662-1.877,2.355-3.75,4.713-5.646,7.053a6.029,6.029,0,0,1-.981.773" transform="translate(-497.175 -20.615)" fill="#ffc"/>
    <path id="Path_18932" data-name="Path 18932" d="M459.27,5.369c0,1.346,0,2.692,0,4.038,0,.779-.41,1.262-1.043,1.27s-1.071-.471-1.073-1.244q-.01-4.1,0-8.195c0-.769.434-1.249,1.078-1.237a1.073,1.073,0,0,1,1.042,1.212c.011,1.385,0,2.771,0,4.156h-.005" transform="translate(-432.493 0)" fill="#ffc"/>
    <rect id="Rectangle_6160" data-name="Rectangle 6160" width="0.849" height="7.807" transform="translate(43.678 17.712)" fill="#ffc"/>
    <rect id="Rectangle_6161" data-name="Rectangle 6161" width="0.852" height="7.771" transform="translate(6.913 17.738)" fill="#ffc"/>
  </g>
</svg>
