<svg id="Group_11918" data-name="Group 11918" xmlns="http://www.w3.org/2000/svg" xmlns:xlink="http://www.w3.org/1999/xlink" width="63.501" height="52.615" viewBox="0 0 63.501 52.615">
  <defs>
    <clipPath id="clip-path">
      <rect id="Rectangle_6152" data-name="Rectangle 6152" width="63.501" height="52.615" fill="#2a60fe"/>
    </clipPath>
  </defs>
  <g id="Group_11891" data-name="Group 11891" clip-path="url(#clip-path)">
    <path id="Path_18891" data-name="Path 18891" d="M34.133,53.126c-17.726,0-31.654,18.6-31.654,18.6l0,.045C18.813,89.909,32.74,90.061,32.74,90.061,50.466,89.878,64.2,71.431,64.2,71.431h0c-16.143-18.3-30.071-18.3-30.071-18.3m-.808,26.283a7.978,7.978,0,1,1,8-7.978,7.99,7.99,0,0,1-8,7.978" transform="translate(-1.745 -37.446)" fill="#2a60fe"/>
    <rect id="Rectangle_6149" data-name="Rectangle 6149" width="2.96" height="10.415" transform="translate(30.117)" fill="#2a60fe"/>
    <path id="Path_18892" data-name="Path 18892" d="M0,0,10.79.016l0,2.956L0,2.956Z" transform="matrix(0.711, -0.703, 0.703, 0.711, 53.735, 18.202)" fill="#2a60fe"/>
    <path id="Path_18893" data-name="Path 18893" d="M0,0,2.956,0l.016,11.081-2.956,0Z" transform="translate(0 11.473) rotate(-45.828)" fill="#2a60fe"/>
  </g>
</svg>
