<svg id="Group_11921" data-name="Group 11921" xmlns="http://www.w3.org/2000/svg" xmlns:xlink="http://www.w3.org/1999/xlink" width="72.572" height="56.243" viewBox="0 0 72.572 56.243">
  <defs>
    <clipPath id="clip-path">
      <rect id="Rectangle_6145" data-name="Rectangle 6145" width="72.572" height="56.243" fill="#ccff33"/>
    </clipPath>
  </defs>
  <g id="Group_11887" data-name="Group 11887" transform="translate(0 0)" clip-path="url(#clip-path)">
    <path id="Path_18884" data-name="Path 18884" d="M22.729,0C10.176,0,0,8.783,0,19.616c0,6.762,3.964,12.724,10,16.251l-1.2,5.56,5.677-3.533a25.862,25.862,0,0,0,8.251,1.338c12.552,0,22.728-8.782,22.728-19.616S35.281,0,22.729,0M17.19,19.5a2.717,2.717,0,1,1,2.746-2.717A2.732,2.732,0,0,1,17.19,19.5m16.908,0a2.717,2.717,0,1,1,2.745-2.717A2.731,2.731,0,0,1,34.1,19.5" transform="translate(0 0)" fill="#ccff33"/>
    <path id="Path_18885" data-name="Path 18885" d="M97.1,54.407c0-9.117-8.563-16.507-19.125-16.507S58.849,45.291,58.849,54.407s8.563,16.507,19.125,16.507a21.828,21.828,0,0,0,6.292-.919l6.112,2.269-.938-4.644A15.861,15.861,0,0,0,97.1,54.407M68.746,52.762a2.32,2.32,0,1,1,2.343-2.32,2.331,2.331,0,0,1-2.343,2.32m14.136,0a2.32,2.32,0,1,1,2.343-2.32,2.332,2.332,0,0,1-2.343,2.32" transform="translate(-24.527 -16.02)" fill="#ccff33"/>
  </g>
</svg>
