<svg xmlns="http://www.w3.org/2000/svg" xmlns:xlink="http://www.w3.org/1999/xlink" width="40" height="37.714" viewBox="0 0 40 37.714">
  <defs>
    <clipPath id="clip-path">
      <rect id="Rectangle_6148" data-name="Rectangle 6148" width="40" height="37.714" fill="#ffc"/>
    </clipPath>
  </defs>
  <g id="Group_11917" data-name="Group 11917" opacity="0.3">
    <g id="Group_11889" data-name="Group 11889" transform="translate(0 0)" clip-path="url(#clip-path)">
      <path id="Path_18886" data-name="Path 18886" d="M14.7,24.719c-2.359,0-4.372,1.926-5.19,4.644l5.19,2.691-5.232,2.54c.787,2.8,2.829,4.794,5.232,4.794,3.083,0,5.583-3.284,5.583-7.335s-2.5-7.335-5.583-7.335" transform="translate(-5.664 -14.937)" fill="#ffc"/>
      <path id="Path_18887" data-name="Path 18887" d="M74.578,24.719c-2.359,0-4.372,1.926-5.19,4.644l5.19,2.691-5.232,2.54c.787,2.8,2.829,4.794,5.232,4.794,3.083,0,5.583-3.284,5.583-7.335s-2.5-7.335-5.583-7.335" transform="translate(-41.496 -14.937)" fill="#ffc"/>
      <path id="Path_18889" data-name="Path 18889" d="M0,0,2.383.015l.088,14.05L.088,14.05Z" transform="matrix(0.487, -0.873, 0.873, 0.487, 0, 2.073)" fill="#ffc"/>
      <path id="Path_18890" data-name="Path 18890" d="M0,0,14.05.088l.015,2.383L.015,2.383Z" transform="translate(26.515 6.771) rotate(-29.167)" fill="#ffc"/>
      <path id="Path_18888" data-name="Path 18888" d="M42.772,83.306C30.8,71.774,17.011,81.841,16.429,82.275l-1.459-1.89a28.143,28.143,0,0,1,9.575-4.3,20.689,20.689,0,0,1,19.911,5.525Z" transform="translate(-8.958 -45.592)" fill="#ffc"/>
    </g>
  </g>
</svg>
