<svg id="Group_11875" data-name="Group 11875" xmlns="http://www.w3.org/2000/svg" xmlns:xlink="http://www.w3.org/1999/xlink" width="51.429" height="18.286" viewBox="0 0 51.429 18.286">
  <defs>
    <clipPath id="clip-path">
      <rect id="Rectangle_6138" data-name="Rectangle 6138" width="51.429" height="18.286" fill="#ccff33"/>
    </clipPath>
  </defs>
  <g id="Group_11874" data-name="Group 11874" clip-path="url(#clip-path)">
    <path id="Path_18875" data-name="Path 18875" d="M34.137,18.286a8.268,8.268,0,0,1-1.424-.7c-1.513-1.143-2.983-2.341-4.476-3.51a3.8,3.8,0,0,0-5.056,0c-1.477,1.154-2.953,2.309-4.41,3.488a2.512,2.512,0,0,1-1.885.575A36.708,36.708,0,0,1,.959,12.81a1.794,1.794,0,0,1-.794-2.356Q2.059,5.806,3.994,1.174A1.819,1.819,0,0,1,6.058.034,114.953,114.953,0,0,0,30.136,1.522,94.8,94.8,0,0,0,45.193.065a1.867,1.867,0,0,1,2.3,1.246q1.888,4.546,3.751,9.1a1.776,1.776,0,0,1-.784,2.4,36.217,36.217,0,0,1-15.995,5.319c-.088.006-.175.015-.262.022l-.065.129M15.346,12.761a6.09,6.09,0,0,0,3.437-.883,2.15,2.15,0,0,0,.694-3.108A5.852,5.852,0,0,0,17.953,7.2a9.988,9.988,0,0,0-6.6-1.745,7.25,7.25,0,0,0-2.673.779,2.073,2.073,0,0,0-.775,3.2,6.772,6.772,0,0,0,1.759,1.7,10.612,10.612,0,0,0,5.676,1.63m20.372.054c2.895-.164,5.178-.737,7.047-2.39A2.736,2.736,0,0,0,43.914,7.7c-.272-1.175-1.241-1.649-2.3-1.991-.1-.034-.213-.047-.32-.073a9.28,9.28,0,0,0-4.425.116A8.143,8.143,0,0,0,32.317,8.28a2.309,2.309,0,0,0,.916,3.905,14.434,14.434,0,0,0,2.485.63" transform="translate(0 0)" fill="#ccff33"/>
  </g>
</svg>
