<svg xmlns="http://www.w3.org/2000/svg" xmlns:xlink="http://www.w3.org/1999/xlink" width="81.644" height="45.358" viewBox="0 0 81.644 45.358">
  <defs>
    <clipPath id="clip-path">
      <rect id="Rectangle_6162" data-name="Rectangle 6162" width="81.644" height="45.358" fill="#2a60fe"/>
    </clipPath>
  </defs>
  <g id="Group_11919" data-name="Group 11919" clip-path="url(#clip-path)">
    <path id="Path_18926" data-name="Path 18926" d="M182.065,219.975h-5.016c-1.484,0-2.046.246-1.944.935.183,1.235,1.224.879,1.991.886,3.339.029,6.678.014,10.017.015.225,0,.45-.007.674,0a2.106,2.106,0,0,1,2.171,2.063,2.084,2.084,0,0,1-2.188,2.044c-1.541.026-3.082.012-4.623.007-.73,0-1.553-.036-1.541.951.013,1.008.874.9,1.579.9,1.477,0,2.954-.01,4.431,0a2.08,2.08,0,1,1,.045,4.133c-1.605.019-3.211.012-4.816,0-.69,0-1.262.169-1.242.96.018.727.564.9,1.214.9q2.408-.01,4.816,0a2.073,2.073,0,1,1,.013,4.117c-1.605.022-3.211.011-4.816.005-.64,0-1.207.14-1.228.878-.022.778.525.982,1.228.978q2.36-.016,4.72.005c1.444.012,2.419.829,2.419,2a2.148,2.148,0,0,1-2.429,2.1q-8.524.012-17.049-.012a3.8,3.8,0,0,1-3.927-3.818c-.032-4.78-.052-9.562.044-14.341a3.6,3.6,0,0,1,1.047-2.223,33.494,33.494,0,0,1,3.355-2.664c1.386-1.067,2.8-2.1,4.157-3.2a3.4,3.4,0,0,1,4.406-.186,35.664,35.664,0,0,1,2.495,2.55" transform="translate(-152.277 -198.526)" fill="#2a60fe"/>
    <path id="Path_18927" data-name="Path 18927" d="M521.237,220.222c.973-.966,1.7-1.766,2.51-2.472a3.421,3.421,0,0,1,4.342-.047c1.947,1.487,3.921,2.94,5.873,4.422a22.869,22.869,0,0,1,1.762,1.46,3.685,3.685,0,0,1,1.187,2.878c-.032,4.467,0,8.934-.018,13.4-.008,2.676-1.588,4.236-4.3,4.242-5.492.012-10.983,0-16.475,0-.225,0-.451,0-.674-.019a2.057,2.057,0,0,1-1.961-2.064,2.009,2.009,0,0,1,2.009-2c1.54-.045,3.083-.015,4.624-.018.257,0,.583.091.756-.028.373-.257.881-.587.945-.952.1-.557-.389-.874-1-.874-1.638,0-3.277.034-4.913-.028a3.319,3.319,0,0,1-1.611-.47,1.775,1.775,0,0,1-.717-2.171,1.954,1.954,0,0,1,1.921-1.455c1.669-.035,3.34-.028,5.009-.012.722.007,1.358-.138,1.339-.97-.018-.772-.636-.9-1.315-.9q-2.312.03-4.624.012c-1.479-.012-2.447-.866-2.428-2.107a2.148,2.148,0,0,1,2.4-2.039q2.408-.026,4.817-.01c.643.005,1.115-.226,1.134-.874.021-.7-.467-.972-1.147-.97-1.638,0-3.276.008-4.914,0a2.056,2.056,0,1,1-.03-4.087c3.6-.022,7.194-.01,10.79-.013.289,0,.642.093.852-.035.36-.218.824-.539.9-.886.123-.584-.351-.9-.954-.906-1.606-.01-3.211,0-4.817,0h-1.274" transform="translate(-469.502 -198.755)" fill="#2a60fe"/>
    <path id="Path_18928" data-name="Path 18928" d="M8.991,305.813v17.346H7.2c-1.381,0-2.763.022-4.143-.007a2.9,2.9,0,0,1-3.04-2.986q-.031-5.71,0-11.421a2.833,2.833,0,0,1,2.693-2.913c2.05-.073,4.106-.018,6.285-.018" transform="translate(0.001 -280.147)" fill="#2a60fe"/>
    <path id="Path_18929" data-name="Path 18929" d="M849.158,305.848c2.189,0,4.274-.062,6.352.022a2.685,2.685,0,0,1,2.554,2.624q.072,5.989.005,11.979a2.575,2.575,0,0,1-2.339,2.605c-2.162.138-4.339.037-6.572.037Z" transform="translate(-776.456 -280.177)" fill="#2a60fe"/>
    <path id="Path_18930" data-name="Path 18930" d="M281.232,18.685a6.574,6.574,0,0,1,1.377.944q4.721,5.841,9.378,11.732a1.551,1.551,0,0,1-.27,2.335,1.583,1.583,0,0,1-2.31-.251c-3.187-3.944-6.363-7.9-9.477-11.894a1.882,1.882,0,0,1-.121-1.645c.222-.483.874-.777,1.423-1.221" transform="translate(-255.732 -17.118)" fill="#2a60fe"/>
    <path id="Path_18931" data-name="Path 18931" d="M527.211,37.17a7.637,7.637,0,0,1-1.459-1.208,1.464,1.464,0,0,1,.218-1.834q2.432-3.043,4.857-6.09,2.132-2.674,4.267-5.346c.792-.986,1.749-1.2,2.565-.584.872.654.907,1.591.072,2.638-2.98,3.739-5.954,7.481-8.964,11.2a9.571,9.571,0,0,1-1.557,1.227" transform="translate(-480.524 -19.939)" fill="#2a60fe"/>
    <path id="Path_18932" data-name="Path 18932" d="M460.517,8.523c0,2.137.007,4.274,0,6.41-.006,1.236-.651,2-1.656,2.015-1.022.012-1.7-.747-1.7-1.975q-.016-6.5,0-13.009c0-1.221.689-1.983,1.711-1.963a1.7,1.7,0,0,1,1.655,1.924c.018,2.2.005,4.4.005,6.6h-.008" transform="translate(-418.008 0)" fill="#2a60fe"/>
    <rect id="Rectangle_6160" data-name="Rectangle 6160" width="1.347" height="12.393" transform="translate(69.34 28.118)" fill="#2a60fe"/>
    <rect id="Rectangle_6161" data-name="Rectangle 6161" width="1.353" height="12.337" transform="translate(10.975 28.159)" fill="#2a60fe"/>
  </g>
</svg>
